<svg id="Layer_1" data-name="Layer 1" xmlns="http://www.w3.org/2000/svg" viewBox="0 0 27 24"><defs><style>.cls-1{fill:#fff;}</style></defs><title>ex</title><path class="cls-1" d="M25.88,4.79c-.6,2.42-2.57,3.92-3.94,5.82-.76,1.06-.81,1.73.06,2.67,1.77,1.91,2.86,4.39,5,6v.54c-1.24.13-1.93-.66-2.59-1.54-1.32-1.77-2.69-3.52-4.05-5.29-2.28,2.18-3.46,5.22-6.52,6.54a35.92,35.92,0,0,1,3.59-4.67c2.24-2.13,2-3.88-.08-5.92a47.46,47.46,0,0,1-3.54-4.5c3.5,1.3,4.24,4.51,6.58,6.39,1.16-1.5,2.3-3.05,3.53-4.52C24.44,5.67,24.67,4.56,25.88,4.79Z"/><path class="cls-1" d="M8.67,4A6.5,6.5,0,0,0,.69,8a11.75,11.75,0,0,0,.07,8.12,6.15,6.15,0,0,0,6,4.16c2.92.06,4.94-1.4,6.32-4.07-1.38-.25-1.64.83-2.24,1.38A5.58,5.58,0,0,1,1.46,15C1,13.56,1.07,12.7,3,12.8c3,.15,6.06,0,9.09,0,.65,0,1.32.22,1.5-.92A7.4,7.4,0,0,0,8.67,4Zm2,7.82a31.68,31.68,0,0,0-4,0,19,19,0,0,0-3.2,0C1,12.2,1,10.82,1.4,9.16A5.68,5.68,0,0,1,7.09,4.8a5.73,5.73,0,0,1,5.35,4.78C12.66,11,12.65,12,10.68,11.78Z"/></svg>