<svg id="Layer_1" data-name="Layer 1" xmlns="http://www.w3.org/2000/svg" xmlns:xlink="http://www.w3.org/1999/xlink" viewBox="0 0 24 24"><defs><style>.cls-1{fill:url(#linear-gradient);}.cls-2{fill:url(#linear-gradient-2);}</style><linearGradient id="linear-gradient" x1="0.69" y1="12" x2="23.31" y2="12" gradientUnits="userSpaceOnUse"><stop offset="0" stop-color="#cbacf9"/><stop offset="0.48" stop-color="#010319"/></linearGradient><linearGradient id="linear-gradient-2" x1="9.91" y1="15.7" x2="10.35" y2="15.7" xlink:href="#linear-gradient"/></defs><title>favicon</title><path class="cls-1" d="M21.31,21.47a43.08,43.08,0,0,1-3.68-8.34c-.05-.16,0-.19.16-.23,1.13-.26,2.27-.45,3.43-.6.08,0,.21,0,.24-.07s-.09-.2-.19-.25a2.31,2.31,0,0,0-.89-.24,14.24,14.24,0,0,0-2.92.07c-.2,0-.27,0-.32-.22-.2-.7-.42-1.4-.62-2.1-.71-2.43-1.24-4.9-1.92-7.34A5.48,5.48,0,0,0,14,.49.91.91,0,0,0,12.66.15,5.42,5.42,0,0,0,10.88,1.6,17.72,17.72,0,0,0,9.72,3.31a138.71,138.71,0,0,0-7.9,15.75,16.87,16.87,0,0,0-1.08,3A1.54,1.54,0,0,0,2.39,24,1.79,1.79,0,0,0,3.79,23a15.61,15.61,0,0,1,2.13-2.79,19.63,19.63,0,0,1,7.41-5.19c.05,0,.14,0,.12-.1a4.29,4.29,0,0,0-.8,0,11.37,11.37,0,0,0-2.3.64l0,0h-.06a.28.28,0,0,0-.12,0,.32.32,0,0,0,.14-.12,23.13,23.13,0,0,1,3.46-1.52c.53-.2.53-.2.68.35a50.66,50.66,0,0,0,2.11,6.34,5.21,5.21,0,0,0,1.34,1.93,6.85,6.85,0,0,0,5.44,1.15A7.66,7.66,0,0,1,21.31,21.47Zm-7.63-9.06a39.78,39.78,0,0,0-4.9,1.31l-.08,0C9.85,11.08,11,8.48,12.28,5.83c.5,2.16,1,4.23,1.53,6.3C13.85,12.28,13.87,12.37,13.68,12.41Z"/><path class="cls-2" d="M10.35,15.65l-.24.12c-.06,0-.1.08-.2,0a1.17,1.17,0,0,1,.37-.22Z"/></svg>