<svg id="Layer_1" data-name="Layer 1" xmlns="http://www.w3.org/2000/svg" viewBox="0 0 27 24"><defs><style>.cls-1{fill:#fec928;}.cls-2{fill:#fea003;}.cls-3{fill:#f48016;}</style></defs><title>fb</title><path class="cls-1" d="M16.28,8.08c1.39-.48,2.06-2.9,3.27-2.34s.88,2.72,1.11,4.21c.43,2.77.79,5.56,1.36,8.31.27,1.28.14,2.11-1.16,2.56a5.52,5.52,0,0,0-.72.38C12.94,25,13,25,6,20.71c-1.37-.85-1.42-1.69-.72-2.89.32.14.34.5.55.73A1.21,1.21,0,0,1,6,17.93c2.4-2.79,5.15-5.23,7.69-7.88C14.52,9.37,15.11,8.34,16.28,8.08Z"/><path class="cls-2" d="M5.93,18.53c-.84.32-.36-.52-.62-.71C6.15,12.05,7,6.29,7.91,0,10,2,10.33,4.17,11.62,5.79c.72.09.81-.55,1-1,.82-1.56,1.38-.95,1.95.17s1.11,2.08,1.67,3.11a5.78,5.78,0,0,1-2.17,2.19c-1.35.29-1.2-1.43-2.45-1.69C9.38,11.6,8.27,15.44,5.93,18.53Z"/><path class="cls-3" d="M5.93,18.53c1.33-4.07,3.55-7.68,5.72-11.37,1.55.55,1.31,2.38,2.46,3.11A81.77,81.77,0,0,1,5.93,18.53Z"/></svg>