<svg id="Layer_1" data-name="Layer 1" xmlns="http://www.w3.org/2000/svg" viewBox="0 0 27 24"><defs><style>.cls-1{fill:#fede00;}.cls-2{fill:#fefefe;}</style></defs><title>js</title><path class="cls-1" d="M1.56,0H25.29c.17,0,.21,0,.21.21q0,11.86,0,23.73c-.09,0-.17,0-.26,0H1.82c-.32,0-.28,0-.28-.28V.26A.58.58,0,0,1,1.56,0Z"/><path class="cls-2" d="M1.56,0q0,11.84,0,23.66c0,.23.06.29.29.29H25.5c-.05.1-.13,0-.19,0H1.51V.21C1.51.15,1.46.06,1.56,0Z"/><path d="M19.89,22.07a4.56,4.56,0,0,1-3.39-1.33,4.35,4.35,0,0,1-.62-.84c-.06-.1-.05-.15.06-.21l1.55-.9c.12-.07.17-.07.24.05a2.86,2.86,0,0,0,.46.58,2.34,2.34,0,0,0,2.36.54,1,1,0,0,0,.82-.86,1.05,1.05,0,0,0-.55-1.1,13.41,13.41,0,0,0-1.58-.75,6.22,6.22,0,0,1-1.74-1,3,3,0,0,1-.9-3.2A2.79,2.79,0,0,1,18.94,11a4.51,4.51,0,0,1,1.83,0,3.2,3.2,0,0,1,2.13,1.58c.06.1.05.15,0,.21-.5.32-1,.63-1.49,1-.12.08-.17,0-.23-.07a1.47,1.47,0,0,0-1.27-.81,1,1,0,0,0-1.1.65,1,1,0,0,0,.47,1.24,10.68,10.68,0,0,0,1.49.71,8.73,8.73,0,0,1,1.64.9,3.05,3.05,0,0,1,1.2,3.28,2.86,2.86,0,0,1-2.25,2.27A5.18,5.18,0,0,1,19.89,22.07Z"/><path d="M14.6,15.07v3.58A4.5,4.5,0,0,1,14.42,20a2.64,2.64,0,0,1-1.81,1.89,4.15,4.15,0,0,1-3.24-.22,3.38,3.38,0,0,1-1.44-1.48c-.06-.11,0-.16.06-.22.53-.31,1-.63,1.57-.95.12-.07.16,0,.21.06s.2.32.31.47A1.37,1.37,0,0,0,11.7,20a1,1,0,0,0,.61-.85,4.63,4.63,0,0,0,0-.65V11.29c0-.3,0-.3.31-.3h1.68c.2,0,.27,0,.26.25C14.59,12.52,14.6,13.79,14.6,15.07Z"/></svg>