<svg id="Layer_1" data-name="Layer 1" xmlns="http://www.w3.org/2000/svg" viewBox="0 0 27 24"><defs><style>.cls-1{fill:#fff;}.cls-2{fill:#a6a385;}.cls-3{fill:#499d4a;}.cls-4{fill:#58aa50;}.cls-5{fill:#918e74;}.cls-6{fill:#408940;}.cls-7{fill:#4d9446;}</style></defs><title>mg</title><path class="cls-1" d="M14.05,24l-.64-.22s.08-3.26-1.09-3.49c-.78-.9.12-38.34,2.93-.12a2.26,2.26,0,0,0-1.14,1.31A11.72,11.72,0,0,0,14.05,24Z"/><path class="cls-2" d="M14.05,24l-.64-.22s.08-3.26-1.09-3.49c-.78-.9.12-38.34,2.93-.12a2.26,2.26,0,0,0-1.14,1.31A11.72,11.72,0,0,0,14.05,24Z"/><path class="cls-1" d="M14.39,20.85A11.33,11.33,0,0,0,18.67,9.52C17.41,4,14.44,2.13,14.11,1.43a7.41,7.41,0,0,1-.7-1.37l.23,15.48s-.48,4.73.75,5.31Z"/><path class="cls-3" d="M14.39,20.85A11.33,11.33,0,0,0,18.67,9.52C17.41,4,14.44,2.13,14.11,1.43a7.41,7.41,0,0,1-.7-1.37l.23,15.48s-.48,4.73.75,5.31Z"/><path class="cls-1" d="M13.08,21.06s-5.25-3.59-4.94-9.9a13.32,13.32,0,0,1,4.72-10A1.46,1.46,0,0,0,13.38,0c.32.7.26,10.49.31,11.64.14,4.44-.25,8.57-.61,9.42Z"/><path class="cls-4" d="M13.08,21.06s-5.25-3.59-4.94-9.9a13.32,13.32,0,0,1,4.72-10A1.46,1.46,0,0,0,13.38,0c.32.7.26,10.49.31,11.64.14,4.44-.25,8.57-.61,9.42Z"/><path class="cls-5" d="M13.5,18.55a11.09,11.09,0,0,1-.42,2.5L13,21a7.88,7.88,0,0,1,.4,2.65v.12h0l.09,0V18.55Z"/><path class="cls-6" d="M13.41.06h0v0c0,.15.06.42.09.78V.29c-.06-.14-.09-.23-.09-.23Z"/><path class="cls-7" d="M13.38,0a1.43,1.43,0,0,1-.52,1.18,13.38,13.38,0,0,0-4.72,10c0,.18,0,.36,0,.55,0,6,4.95,9.35,4.95,9.35a11.34,11.34,0,0,0,.42-2.51V.88A5.81,5.81,0,0,0,13.41.1h0a.62.62,0,0,0,0-.1Z"/></svg>