<svg id="Layer_1" data-name="Layer 1" xmlns="http://www.w3.org/2000/svg" viewBox="0 0 27 24"><defs><style>.cls-1{fill:#815cc3;}.cls-2{fill:#815bc3;}</style></defs><title>rdx</title><path class="cls-1" d="M15.58,23.15c.69-1.73,1.78-1.18,2.86-1,2.09.31,4,0,5.31-1.95s.42-3.68-.57-5.35A8.87,8.87,0,0,0,12.4,10.64a1.76,1.76,0,0,1-1.93-.43,1.59,1.59,0,0,1-.36-1.93,1.58,1.58,0,0,1,1.68-1c3.89.78,7.93,1.08,11,4.16s4.22,7,2.62,9.72S20.17,24.7,15.58,23.15Z"/><path class="cls-2" d="M5.69,9.77A10.93,10.93,0,0,1,7,4.29C8.3,1.8,10.15-.23,13.26,0s4.86,2.49,6,5.18c.27.62.65,1.49-.09,1.87s-1.24-.29-1.53-1a9.21,9.21,0,0,0-.78-1.61c-2.26-3.57-6-3.48-8.1.18C6.44,8.65,7.21,12.7,11,16a1.61,1.61,0,0,1,.15,2.6,1.6,1.6,0,0,1-2.59-.17C7.41,17.21,5.69,11.86,5.69,9.77Z"/><path class="cls-2" d="M4.19,11.79c.81,1.5-.08,2.44-.62,3.49-.85,1.64-1.47,3.37-.18,5.08a4.67,4.67,0,0,0,5.38,1.71c3.72-1.16,7.55-2.38,7.87-7.35a1.55,1.55,0,0,1,2.22-1.35c1.07.38,1.79,1.48,1,2.36-2.64,2.91-4.77,6.43-8.9,7.7-4,1.22-7.61.47-9.21-2.14C0,18.5.86,15.07,4.19,11.79Z"/></svg>