<?xml version="1.0" encoding="utf-8"?>
<!-- Generator: Adobe Illustrator 24.0.1, SVG Export Plug-In . SVG Version: 6.00 Build 0)  -->
<svg version="1.1" id="Layer_1" xmlns="http://www.w3.org/2000/svg" xmlns:xlink="http://www.w3.org/1999/xlink" x="0px" y="0px"
	 viewBox="0 0 27 24" style="enable-background:new 0 0 27 24;" xml:space="preserve">
<style type="text/css">
	.st0{fill:#61D9FA;}
	.st1{fill:#FEFEFE;}
</style>
<g>
	<path class="st0" d="M13.5,9c-1.4,0-2.5,1.1-2.5,2.5c0,1.4,1.1,2.5,2.5,2.5c1.4,0,2.5-1.1,2.5-2.5C16,10.1,14.9,9,13.5,9z M13.5,9
		c-1.4,0-2.5,1.1-2.5,2.5c0,1.4,1.1,2.5,2.5,2.5c1.4,0,2.5-1.1,2.5-2.5C16,10.1,14.9,9,13.5,9z M13.5,9c-1.4,0-2.5,1.1-2.5,2.5
		c0,1.4,1.1,2.5,2.5,2.5c1.4,0,2.5-1.1,2.5-2.5C16,10.1,14.9,9,13.5,9z M13.5,9c-1.4,0-2.5,1.1-2.5,2.5c0,1.4,1.1,2.5,2.5,2.5
		c1.4,0,2.5-1.1,2.5-2.5C16,10.1,14.9,9,13.5,9z M13.5,9c-1.4,0-2.5,1.1-2.5,2.5c0,1.4,1.1,2.5,2.5,2.5c1.4,0,2.5-1.1,2.5-2.5
		C16,10.1,14.9,9,13.5,9z M13.5,9c-1.4,0-2.5,1.1-2.5,2.5c0,1.4,1.1,2.5,2.5,2.5c1.4,0,2.5-1.1,2.5-2.5C16,10.1,14.9,9,13.5,9z
		 M13.5,9c-1.4,0-2.5,1.1-2.5,2.5c0,1.4,1.1,2.5,2.5,2.5c1.4,0,2.5-1.1,2.5-2.5C16,10.1,14.9,9,13.5,9z M13.5,9
		c-1.4,0-2.5,1.1-2.5,2.5c0,1.4,1.1,2.5,2.5,2.5c1.4,0,2.5-1.1,2.5-2.5C16,10.1,14.9,9,13.5,9z M13.5,9c-1.4,0-2.5,1.1-2.5,2.5
		c0,1.4,1.1,2.5,2.5,2.5c1.4,0,2.5-1.1,2.5-2.5C16,10.1,14.9,9,13.5,9z M13.5,9c-1.4,0-2.5,1.1-2.5,2.5c0,1.4,1.1,2.5,2.5,2.5
		c1.4,0,2.5-1.1,2.5-2.5C16,10.1,14.9,9,13.5,9z M13.5,9c-1.4,0-2.5,1.1-2.5,2.5c0,1.4,1.1,2.5,2.5,2.5c1.4,0,2.5-1.1,2.5-2.5
		C16,10.1,14.9,9,13.5,9z M13.5,9c-1.4,0-2.5,1.1-2.5,2.5c0,1.4,1.1,2.5,2.5,2.5c1.4,0,2.5-1.1,2.5-2.5C16,10.1,14.9,9,13.5,9z
		 M26.3,9.7c-0.7-0.8-1.5-1.4-2.4-1.8c-0.8-0.4-1.6-0.7-2.4-0.9c-0.1,0-0.2-0.1-0.1-0.2c0.2-1.2,0.4-2.3,0.2-3.5
		c-0.1-0.7-0.2-1.3-0.6-1.9C20.4,0.5,19.7,0,18.7,0c-0.9,0-1.7,0.2-2.4,0.6c-1,0.5-1.8,1.2-2.6,1.9c-0.1,0.1-0.1,0.1-0.2,0
		c-0.7-0.7-1.5-1.3-2.4-1.7C10.2,0.3,9.3,0,8.4,0C7.2,0,6.4,0.6,5.9,1.6C5.6,2.3,5.5,3.1,5.4,4c0,0.9,0.1,1.8,0.3,2.7
		C5.7,6.9,5.7,6.9,5.5,7c-1,0.3-1.9,0.6-2.8,1.1C2,8.5,1.3,9,0.7,9.7c-0.8,1-0.9,2.2-0.2,3.2c0.4,0.6,0.9,1.1,1.5,1.5
		c1,0.7,2.1,1.1,3.2,1.5c0.2,0.1,0.2,0.1,0.1,0.3c-0.3,1.2-0.5,2.3-0.5,3.5c0,0.7,0.1,1.3,0.3,2c0.1,0.5,0.4,0.9,0.7,1.3
		c0.8,0.8,1.7,1,2.7,0.8c0.8-0.1,1.5-0.5,2.2-0.9c1-0.6,1.8-1.3,2.6-2.1c0.1-0.1,0.1-0.1,0.2,0c0.5,0.5,1.1,1.1,1.7,1.5
		c0.9,0.7,1.9,1.2,3.1,1.5c0.6,0.1,1.1,0.1,1.6-0.1c0.9-0.3,1.5-1.1,1.8-2c0.4-1.1,0.3-2.3,0.2-3.5c-0.1-0.7-0.2-1.5-0.4-2.2
		c0-0.1,0-0.1,0.1-0.2c0.8-0.2,1.6-0.6,2.4-0.9c0.9-0.4,1.6-1,2.2-1.7C27.2,12.3,27.2,10.8,26.3,9.7z M14.5,3.4
		c0.9-0.8,1.8-1.5,2.9-1.9c0.4-0.1,0.7-0.2,1.1-0.2c0.8,0,1.3,0.5,1.6,1.2c0.3,0.8,0.3,1.7,0.2,2.6c0,0.4-0.1,0.9-0.2,1.3
		c0,0.2-0.1,0.2-0.2,0.2c-1-0.2-2-0.4-2.9-0.5c-0.2,0-0.4-0.1-0.5-0.3c-0.6-0.8-1.2-1.5-1.9-2.2C14.5,3.5,14.4,3.5,14.5,3.4z
		 M7.9,13C7.9,13,7.9,13,7.9,13c0.5,0.9,1,1.7,1.5,2.6c-0.5-0.1-1-0.1-1.4-0.2c-0.3-0.1-0.5-0.1-0.8-0.2c-0.1,0-0.1,0-0.1-0.1
		C7.3,14.3,7.6,13.7,7.9,13z M7.4,7.8C8,7.7,8.7,7.5,9.3,7.5c0,0,0.1,0,0.1,0C8.9,8.3,8.4,9.1,8,9.9C7.9,9.7,7.8,9.5,7.7,9.2
		C7.6,8.8,7.4,8.4,7.3,8C7.3,7.9,7.3,7.8,7.4,7.8z M8.7,11.7c-0.1-0.2-0.1-0.3,0-0.5c0.7-1.3,1.5-2.6,2.3-3.8
		c0.1-0.1,0.1-0.1,0.2-0.1c1.1-0.1,2.1-0.1,3.2-0.1c0.4,0,0.9,0,1.3,0.1c0.1,0,0.1,0,0.2,0.1c0.7,1,1.4,2.1,2,3.2
		c0.1,0.3,0.3,0.5,0.4,0.8c0,0.1,0,0.2,0,0.2c-0.7,1.4-1.4,2.8-2.3,4.1c0,0.1-0.1,0.1-0.2,0.1c-0.3,0-0.5,0.1-0.8,0.1
		c-0.6,0-1.1,0-1.7,0c-0.8,0-1.5,0-2.3-0.1c-0.1,0-0.2-0.1-0.2-0.1C10.1,14.4,9.4,13.1,8.7,11.7z M19.1,12.9
		c0.1,0.2,0.2,0.5,0.3,0.7c0.2,0.5,0.4,0.9,0.5,1.4c0.1,0.2,0.1,0.2-0.2,0.3c-0.7,0.2-1.4,0.3-2,0.4c0,0,0,0-0.1,0
		C18.2,14.7,18.6,13.8,19.1,12.9z M19.7,8c-0.2,0.6-0.4,1.2-0.6,1.7c0,0.1,0,0.1-0.1,0.2c-0.5-0.8-0.9-1.6-1.5-2.4
		c0.3,0,0.6,0.1,0.9,0.1c0.4,0.1,0.7,0.1,1.1,0.2C19.7,7.8,19.7,7.9,19.7,8z M13.4,4.5c0.1-0.1,0.1-0.1,0.2,0
		c0.4,0.5,0.9,0.9,1.3,1.4c0,0,0,0,0,0c-0.9,0-1.8,0-2.7,0c0.2-0.2,0.3-0.4,0.5-0.6C12.9,5,13.1,4.8,13.4,4.5z M6.9,2.5
		C7.2,1.5,8,1.1,9,1.3c0.9,0.2,1.6,0.7,2.4,1.2c0.4,0.3,0.8,0.6,1.1,0.9c0.1,0.1,0.1,0.1,0,0.2c-0.7,0.7-1.3,1.5-1.9,2.3
		c-0.1,0.1-0.2,0.2-0.4,0.2C9.2,6.2,8.1,6.4,7.1,6.6C7,6.6,7,6.6,6.9,6.5C6.8,5.9,6.7,5.3,6.7,4.8c0-0.2,0-0.4,0-0.6
		C6.7,3.6,6.7,3.1,6.9,2.5z M5.9,14.7c0,0.1-0.1,0.1-0.2,0.1c-1.2-0.4-2.4-0.8-3.4-1.6c-0.4-0.4-0.8-0.8-1-1.4
		c-0.1-0.5,0.1-1,0.4-1.4c0.4-0.5,1-0.9,1.6-1.2c0.8-0.4,1.7-0.8,2.5-1c0,0,0.1,0,0.1,0c0.1,0,0.1,0.1,0.1,0.1
		c0.2,0.5,0.3,1.1,0.5,1.6c0.2,0.5,0.4,0.9,0.6,1.4c0,0.1,0,0.2,0,0.3C6.7,12.6,6.2,13.6,5.9,14.7z M12.5,20c-1,0.9-2,1.8-3.2,2.4
		c-0.4,0.2-0.9,0.3-1.5,0.3c-0.7,0-1.2-0.5-1.4-1.3c-0.2-0.8-0.3-1.5-0.2-2.3c0.1-0.9,0.2-1.7,0.4-2.5c0.1-0.2,0.1-0.2,0.3-0.2
		c1.1,0.2,2.2,0.4,3.3,0.5c0.1,0,0.1,0,0.2,0.1c0.7,1,1.4,1.9,2.2,2.8C12.6,19.9,12.6,20,12.5,20z M13.6,18.9
		c-0.1,0.1-0.1,0.1-0.2,0c-0.5-0.6-0.9-1.1-1.4-1.7c0,0-0.1-0.1-0.1-0.1c0-0.1,0.1,0,0.1,0c0.1,0,0.2,0,0.3,0c0.5,0,1,0,1.6,0
		c0.3,0,0.6,0,1,0c0,0,0.1,0,0.1,0c0,0,0,0.1,0,0.1C14.5,17.8,14.1,18.4,13.6,18.9z M20.5,21.8c-0.3,0.7-1,1-1.7,0.9
		c-1-0.1-1.8-0.6-2.5-1.2c-0.6-0.4-1.2-1-1.8-1.5c-0.1-0.1-0.1-0.1,0-0.2c0.8-0.9,1.5-1.8,2.2-2.8c0.1-0.1,0.1-0.1,0.2-0.1
		c1.1-0.1,2.2-0.3,3.3-0.5c0.1,0,0.2,0,0.2,0.1c0.3,1.1,0.5,2.1,0.5,3.3C20.9,20.5,20.8,21.2,20.5,21.8z M25.1,12.7
		c-0.4,0.5-1,0.9-1.6,1.2c-0.7,0.4-1.5,0.7-2.2,0.9c-0.1,0-0.2,0-0.2-0.1c-0.4-1.1-0.8-2.1-1.3-3.1c-0.1-0.1-0.1-0.2,0-0.3
		c0.4-1,0.8-1.9,1.1-2.9c0-0.2,0.1-0.2,0.3-0.1c1,0.3,2.1,0.7,3,1.3c0.5,0.3,0.9,0.7,1.2,1.1c0.2,0.3,0.3,0.6,0.3,1
		C25.7,12,25.4,12.4,25.1,12.7z M13.5,14c1.4,0,2.5-1.1,2.5-2.5c0-1.4-1.1-2.5-2.5-2.5c-1.4,0-2.5,1.1-2.5,2.5
		C11,12.9,12.1,14,13.5,14z M13.5,9c-1.4,0-2.5,1.1-2.5,2.5c0,1.4,1.1,2.5,2.5,2.5c1.4,0,2.5-1.1,2.5-2.5C16,10.1,14.9,9,13.5,9z
		 M13.5,9c-1.4,0-2.5,1.1-2.5,2.5c0,1.4,1.1,2.5,2.5,2.5c1.4,0,2.5-1.1,2.5-2.5C16,10.1,14.9,9,13.5,9z M13.5,9
		c-1.4,0-2.5,1.1-2.5,2.5c0,1.4,1.1,2.5,2.5,2.5c1.4,0,2.5-1.1,2.5-2.5C16,10.1,14.9,9,13.5,9z M13.5,9c-1.4,0-2.5,1.1-2.5,2.5
		c0,1.4,1.1,2.5,2.5,2.5c1.4,0,2.5-1.1,2.5-2.5C16,10.1,14.9,9,13.5,9z M13.5,9c-1.4,0-2.5,1.1-2.5,2.5c0,1.4,1.1,2.5,2.5,2.5
		c1.4,0,2.5-1.1,2.5-2.5C16,10.1,14.9,9,13.5,9z M13.5,9c-1.4,0-2.5,1.1-2.5,2.5c0,1.4,1.1,2.5,2.5,2.5c1.4,0,2.5-1.1,2.5-2.5
		C16,10.1,14.9,9,13.5,9z M13.5,9c-1.4,0-2.5,1.1-2.5,2.5c0,1.4,1.1,2.5,2.5,2.5c1.4,0,2.5-1.1,2.5-2.5C16,10.1,14.9,9,13.5,9z
		 M13.5,9c-1.4,0-2.5,1.1-2.5,2.5c0,1.4,1.1,2.5,2.5,2.5c1.4,0,2.5-1.1,2.5-2.5C16,10.1,14.9,9,13.5,9z M13.5,9
		c-1.4,0-2.5,1.1-2.5,2.5c0,1.4,1.1,2.5,2.5,2.5c1.4,0,2.5-1.1,2.5-2.5C16,10.1,14.9,9,13.5,9z M13.5,9c-1.4,0-2.5,1.1-2.5,2.5
		c0,1.4,1.1,2.5,2.5,2.5c1.4,0,2.5-1.1,2.5-2.5C16,10.1,14.9,9,13.5,9z"/>
	<path class="st1" d="M16,11.5c0,1.4-1.1,2.5-2.5,2.5c-1.4,0-2.5-1.1-2.5-2.5c0-1.4,1.1-2.5,2.5-2.5C14.9,9,16,10.1,16,11.5z"/>
	<path class="st0" d="M16,11.5c0,1.4-1.1,2.5-2.5,2.5c-1.4,0-2.5-1.1-2.5-2.5c0-1.4,1.1-2.5,2.5-2.5C14.9,9,16,10.1,16,11.5z"/>
</g>
</svg>
