<svg id="Layer_1" data-name="Layer 1" xmlns="http://www.w3.org/2000/svg" viewBox="0 0 27 24"><defs><style>.cls-1{fill:#fff;}</style></defs><title>shdcn</title><path class="cls-1" d="M1.51,20.15A1.87,1.87,0,0,1,2,18.84l.2-.21q9-9,18-18A1.93,1.93,0,0,1,21.66,0,1.84,1.84,0,0,1,23.4,1.13a1.83,1.83,0,0,1-.29,2.05l-.17.18L4.86,21.43A1.93,1.93,0,0,1,3,22,1.91,1.91,0,0,1,1.51,20.15Z"/><path class="cls-1" d="M25.49,12.48a1.87,1.87,0,0,1-.59,1.39Q21.8,17,18.68,20.09c-1.11,1.11-2.22,2.23-3.34,3.34a1.92,1.92,0,1,1-2.68-2.75l6.41-6.41c1-1,2.08-2.09,3.12-3.12a1.93,1.93,0,0,1,3.29,1s0,.07,0,.11A1.62,1.62,0,0,1,25.49,12.48Z"/></svg>