<svg id="Layer_1" data-name="Layer 1" xmlns="http://www.w3.org/2000/svg" viewBox="0 0 27 24"><defs><style>.cls-1{fill:#090706;}.cls-2{fill:#685b4f;}.cls-3{fill:#f7efd6;}.cls-4{fill:#443e38;}.cls-5{fill:#716257;}.cls-6{fill:#83786e;}.cls-7{fill:#312f2a;}.cls-8{fill:#050504;}.cls-9{fill:#b8b599;}.cls-10{fill:#c77f6d;fill-opacity:0.99;}.cls-11{fill:#faf3df;}.cls-12{fill:#2c2925;}.cls-13{fill:#af6c54;}.cls-14{fill:#3b3732;}.cls-15{fill:#97826f;}.cls-16{fill:#25211c;}.cls-17{fill:#cc836f;fill-opacity:0.99;}.cls-18{fill:#6e6053;}.cls-19{fill:#403222;}.cls-20{fill:#89634b;}.cls-21{fill:#13100e;}.cls-22{fill:#9e6950;}.cls-23{fill:#6a5133;}.cls-24{fill:#524c41;}.cls-25{fill:#605449;}.cls-26{fill:#aba085;}.cls-27{fill:#fef9e9;}.cls-28{fill:#c9826f;fill-opacity:1;}.cls-29{fill:#f6e7ba;}.cls-30{fill:#743f4c;fill-opacity:0.21;}.cls-31{fill:#f26c2d;}.cls-32{fill:#491f1f;fill-opacity:0;}.cls-33{fill:#90554d;fill-opacity:0.69;}.cls-34{fill:#a96e61;fill-opacity:0.75;}.cls-35{fill:#d0c196;}.cls-36{fill:#111512;fill-opacity:0.39;}.cls-37{fill:#3a3630;}.cls-38{fill:#c27c67;}.cls-39{fill:#cf492a;}</style></defs><title>zustand</title><path class="cls-1" d="M20.34.21a2.24,2.24,0,0,1,1,1s0,0,0,.07a3.63,3.63,0,0,1,.21,1,.23.23,0,0,1,0,.07.17.17,0,0,0,0,.08.09.09,0,0,1,0,.1.18.18,0,0,0-.05.18,2.07,2.07,0,0,1,0,.22c0,.06,0,.07-.08,0l-.12,0a.18.18,0,0,1-.14-.17c0-.13,0-.26,0-.39a.08.08,0,0,0,0-.07c-.06-.32-.12-.62-.2-.9a.39.39,0,0,0-.13-.2.38.38,0,0,0-.08-.17.39.39,0,0,0-.08-.1.24.24,0,0,0-.17-.14L20.46.76,20.27.52s0,0,0,0a1.93,1.93,0,0,0-.79-.07,1.7,1.7,0,0,0-.63.14,3.62,3.62,0,0,0-.56.3,3.08,3.08,0,0,0-.76.64L17,2a1.25,1.25,0,0,0-.36.39.33.33,0,0,0-.06.12l-.1.27a1.71,1.71,0,0,0-.13.38c0,.05,0,.06-.08,0a.17.17,0,0,0-.13,0h0a.22.22,0,0,0,.09-.1,1.55,1.55,0,0,1,0-.21.77.77,0,0,1,.06-.15.64.64,0,0,0,.06-.16.91.91,0,0,1,.2-.36l.05,0s0,0,0,0V2a4.2,4.2,0,0,1,.52-.66L17.82.8l.5-.3a3.3,3.3,0,0,1,.51-.27A2.4,2.4,0,0,1,19.9.08,1,1,0,0,1,20.34.21Z"/><path class="cls-2" d="M20.27.52l.19.24a.29.29,0,0,1-.17-.07c-.08-.07-.13-.11-.15-.11a1.38,1.38,0,0,0-.69-.16,1.93,1.93,0,0,1,.79.07S20.26.5,20.27.52Z"/><path class="cls-3" d="M19.45.42a1.38,1.38,0,0,1,.69.16s.07,0,.15.11a.29.29,0,0,0,.17.07l.05.05a.38.38,0,0,0,.17.14.39.39,0,0,1,.08.1c0,.06,0,.1-.05.11A1.61,1.61,0,0,0,18.88.68a3.54,3.54,0,0,0-1.1.66l-.25.19a0,0,0,0,1,0,0,3.08,3.08,0,0,1,.76-.64,3.62,3.62,0,0,1,.56-.3A1.7,1.7,0,0,1,19.45.42Z"/><path class="cls-4" d="M20.71,1.16a.22.22,0,0,1,.07.09l0,0s0,0,0-.06a.39.39,0,0,1,.13.2c.08.28.14.58.2.9a.08.08,0,0,1,0,.07c0,.13,0,.26,0,.39a.18.18,0,0,0,.14.17V3c-.05,0-.09.07-.11.16a.41.41,0,0,0,0,.19.43.43,0,0,1,0,.25.63.63,0,0,0,0,.26,1,1,0,0,1,0,.25c-.05.3-.12.6-.19.9a.71.71,0,0,1-.31-.16.06.06,0,0,0-.08,0l-.28.21h0s-.05,0,0-.08l0,0V4.86c.16.06.18,0,.06-.08s0-.06,0-.08l0,0c0-.06,0-.08-.08-.07a.16.16,0,0,1,0-.15s0,0,.06,0,.08,0,.09,0,0,0,0,0,.11,0,.14-.12,0,0,0,0h0a.15.15,0,0,1-.11,0l0,0s0,0-.06,0l0-.18A.24.24,0,0,0,20.37,4l0,0a.07.07,0,0,0-.08-.07.16.16,0,0,1,0-.15.17.17,0,0,0,0-.12.41.41,0,0,1,.05-.33.12.12,0,0,0,0-.15l0,0,0-.37a.23.23,0,0,0,.1-.07s0,0,0,0,.06,0,.05.05a.09.09,0,0,0,0,.09.07.07,0,0,1,0,0l0,.29a0,0,0,0,0,0,0,.07.07,0,0,1,0,.12.05.05,0,0,0,0,0,.33.33,0,0,1-.06.23c-.06,0-.05.11,0,.17a0,0,0,0,0,.07,0v0c0-.15.05-.31.07-.48a.82.82,0,0,0,0-.26,1.37,1.37,0,0,1,0-.35.17.17,0,0,0,0-.14.08.08,0,0,1,0-.08s0-.05,0-.07a.16.16,0,0,1-.07-.09c0-.07-.08-.11-.14-.1s-.05,0,0,0a.43.43,0,0,0,.06-.17.08.08,0,0,0,0,0,1.51,1.51,0,0,0-1.08-.57,1.57,1.57,0,0,0-1.14.36L17.78,2A2.71,2.71,0,0,0,17,3a.71.71,0,0,0-.38-.23s0,0,0,0a.07.07,0,0,1-.1,0l.1-.27a.33.33,0,0,1,.06-.12A1.25,1.25,0,0,1,17,2a0,0,0,0,0,0,0h0c.16-.14.31-.29.46-.45l.25-.19a3.54,3.54,0,0,1,1.1-.66,1.61,1.61,0,0,1,1.83.48Z"/><path class="cls-5" d="M20.51.81a.24.24,0,0,1,.17.14A.38.38,0,0,1,20.51.81Z"/><path class="cls-6" d="M20.76,1.05a.38.38,0,0,1,.08.17s0,.06,0,.06l0,0a.22.22,0,0,0-.07-.09S20.77,1.11,20.76,1.05Z"/><path class="cls-7" d="M21.31,1.19l.06.11a3.85,3.85,0,0,1,.23,1.82A7,7,0,0,1,21.17,5s-.05,0-.05-.06a1.73,1.73,0,0,1,.12-.43.39.39,0,0,0,0-.28.2.2,0,0,1,0-.18.74.74,0,0,0,.08-.16,1.31,1.31,0,0,0,.07-.44.53.53,0,0,0,0-.25c0-.07,0-.07-.09,0a.17.17,0,0,1-.1.06s-.06,0,0,0a.83.83,0,0,0,.08-.12s0-.05,0-.07V3l.12,0c.06,0,.09,0,.08,0a2.07,2.07,0,0,0,0-.22.18.18,0,0,1,.05-.18.09.09,0,0,0,0-.1.17.17,0,0,1,0-.08.23.23,0,0,0,0-.07,3.63,3.63,0,0,0-.21-1C21.26,1.2,21.27,1.18,21.31,1.19Z"/><path class="cls-8" d="M19.31,1.32a1.51,1.51,0,0,1,1.08.57.08.08,0,0,1,0,0,.43.43,0,0,1-.06.17s0,0,0,0,.11,0,.14.1a.16.16,0,0,0,.07.09s0,0,0,.07a.08.08,0,0,0,0,.08.17.17,0,0,1,0,.14,1.37,1.37,0,0,0,0,.35.82.82,0,0,1,0,.26c0,.17,0,.33-.07.48s0,0-.06,0h0c-.09-.06-.1-.12,0-.17a.33.33,0,0,0,.06-.23.05.05,0,0,1,0,0,.07.07,0,0,0,0-.12,0,0,0,0,1,0,0l0-.29a.07.07,0,0,0,0,0,.09.09,0,0,1,0-.09c0-.05,0-.07-.05-.05s0,0,0,0a.23.23,0,0,1-.1.07A4.89,4.89,0,0,0,20.08,2a.6.6,0,0,0-.17-.21,1,1,0,0,0-.67-.21,1,1,0,0,0-.45.13A3.5,3.5,0,0,0,17.39,3l-.25.39c-.06,0-.08.1-.06.14a.15.15,0,0,0,.09.08l.5.19a6.53,6.53,0,0,1,.7.35,5.45,5.45,0,0,0,.53.29,3,3,0,0,1,.66.45.22.22,0,0,1,.13.12l0,0,.25.09a.22.22,0,0,1,.13.12.38.38,0,0,0,.15.16l.12.07.24.2h0a.58.58,0,0,0,.13-.33L20.88,5c.07-.3.14-.6.19-.9a1,1,0,0,0,0-.25.63.63,0,0,1,0-.26.43.43,0,0,0,0-.25.41.41,0,0,1,0-.19c0-.09.06-.15.11-.16s0,0,0,.07a.83.83,0,0,1-.08.12s0,0,0,0a.17.17,0,0,0,.1-.06s.07,0,.09,0a.53.53,0,0,1,0,.25,1.31,1.31,0,0,1-.07.44.74.74,0,0,1-.08.16.2.2,0,0,0,0,.18.39.39,0,0,1,0,.28,1.73,1.73,0,0,0-.12.43s0,.07.05.06l-.31.78a.11.11,0,0,0,0,.15,11.32,11.32,0,0,1,1.93,2.61s0,0,0,0l.45-.16a1.47,1.47,0,0,1,.53-.16l.26,0h.27a.82.82,0,0,1,.36.13,4,4,0,0,0,.43.3.09.09,0,0,1,.06.06s.05.08.12.13a.08.08,0,0,1,.05.05,1.75,1.75,0,0,1,.23.57l0,.07a.14.14,0,0,1,0,.09.06.06,0,0,0,0,0,1.74,1.74,0,0,1-.25,1l0,0s0,0,0,.09a.07.07,0,0,1,0,.05l-.13.2a.62.62,0,0,1-.3.32,3,3,0,0,1-.35.27,1.24,1.24,0,0,1-.58.21,0,0,0,0,0-.05,0,1,1,0,0,0,.06.25.24.24,0,0,1,0,.12.23.23,0,0,0,0,.11.19.19,0,0,0,0,.08.11.11,0,0,1,0,.05.65.65,0,0,0,0,.31,3,3,0,0,0,0,.6,1,1,0,0,1,0,.25l0,.22c0,.35-.07.69-.13,1a.7.7,0,0,1-.09.35.07.07,0,0,0,0,0,.39.39,0,0,1-.07.23.08.08,0,0,0,0,.13.07.07,0,0,1,0,0l0,.15a.29.29,0,0,1-.06.15.52.52,0,0,0-.06.16.69.69,0,0,1-.05.17.6.6,0,0,0-.06.19,1.29,1.29,0,0,1-.06.22,2.12,2.12,0,0,1-.11.21,10.37,10.37,0,0,1-1.52,2.56c-.13.18-.27.36-.41.53a1.38,1.38,0,0,0-.31.28,9,9,0,0,1-1,1l-.62.48a7.48,7.48,0,0,1-.67.41,1,1,0,0,1-.31.16.51.51,0,0,0-.18.09,2.07,2.07,0,0,1-.63.32,1.23,1.23,0,0,0-.33.16,1.64,1.64,0,0,1-.33.16l-1,.41a5,5,0,0,0-.63.19l-.58.12c-.23.05-.42.09-.58.11a11.32,11.32,0,0,1-1.54,0,5.21,5.21,0,0,1-.79,0,14.18,14.18,0,0,1-1.62-.15l-.5-.12H9.27a3.57,3.57,0,0,0-.53-.22Q8.2,23.27,7.57,23A2.28,2.28,0,0,1,7,22.75l-.73-.49q-.5-.27-1-.57a4.81,4.81,0,0,1-.5-.41l-.56-.5-.35-.42a2.87,2.87,0,0,1-.29-.31l-.14-.2A7.15,7.15,0,0,1,2.91,19a3.35,3.35,0,0,1-.32-.53,10.14,10.14,0,0,1-.68-1.59l-.06-.11A10.87,10.87,0,0,1,1.42,15c0-.13,0-.37,0-.73,0,0,0-.19,0-.58a5.16,5.16,0,0,1,.06-1,1,1,0,0,1,.07-.46A9.24,9.24,0,0,1,2.71,8.75a2.21,2.21,0,0,1,.18-.34l.17-.3a2.3,2.3,0,0,1,.35-.42.2.2,0,0,0,0,.13h0l.15,0s0,0,0-.06v0l-.08-.13s0,0,0,0H3.46a.17.17,0,0,0,0-.14c0-.21-.13-.52-.23-.94A.89.89,0,0,0,3.17,6a.49.49,0,0,1,0-.18,1.1,1.1,0,0,1,0-.18.22.22,0,0,0,0-.11.2.2,0,0,0,0-.11,4.07,4.07,0,0,1,.09-1.08,5.23,5.23,0,0,1,.57-1.47,2.7,2.7,0,0,1,1-.94l.15-.1a.67.67,0,0,1,.39-.1.38.38,0,0,0,.15,0h.11A2.8,2.8,0,0,1,7,2.22a1.42,1.42,0,0,1,.42.34,4.52,4.52,0,0,1,.68.77l.07.13a.46.46,0,0,0,.21.18l.08.15h0l1-.38a.23.23,0,0,1,.14,0c.05,0,.08,0,.09,0a.11.11,0,0,0,.08-.07s0,0,0,0l.68-.2,1.14-.18a1.61,1.61,0,0,1,.58,0l.6-.07a1.45,1.45,0,0,1,.55.05h.05a.27.27,0,0,1,.18,0,2.14,2.14,0,0,0,.52,0c.34.06.68.1,1,.13l1,.24.2.09a.76.76,0,0,1,.41.2s0,0,.06,0h0L17,3a2.71,2.71,0,0,1,.75-1l.39-.32A1.57,1.57,0,0,1,19.31,1.32Zm-15.42,2-.12.24a2.25,2.25,0,0,0-.22.61,6.42,6.42,0,0,0-.1,1v.1a1,1,0,0,1,0,.24c0,.1,0,.13-.1.09h0s0,0,.08,0a.06.06,0,0,1,.05.06c0,.21,0,.41,0,.61a2.73,2.73,0,0,0,.1.53c.09.32.14.5.14.53a.66.66,0,0,0,.14.38A1,1,0,0,1,4,8.25a3.34,3.34,0,0,1,.17.44A.82.82,0,0,1,4.3,9s0,0,0,0h0s0,0-.06-.07a.23.23,0,0,0-.07-.14L4,8.75a1.8,1.8,0,0,1-.28-.53.3.3,0,0,0,0-.08c0-.1,0-.11-.08,0a1.07,1.07,0,0,1-.14.16.17.17,0,0,0-.1.1.16.16,0,0,1-.12.09,0,0,0,0,0,0,0,.68.68,0,0,1-.16.39A1.29,1.29,0,0,0,3,9.06l-.09.21a2.9,2.9,0,0,0-.25.57c-.17.38-.32.77-.45,1.16a2.36,2.36,0,0,0-.15.66,1.25,1.25,0,0,0-.09.25,1.3,1.3,0,0,0,0,.17,1.15,1.15,0,0,1,0,.16,9.38,9.38,0,0,0-.14,1.3.74.74,0,0,0,0,.12.24.24,0,0,1,0,.12,1.36,1.36,0,0,0,0,.45.14.14,0,0,1,0,.09l0,.08s0,0,0,0a.46.46,0,0,1,.06.23.88.88,0,0,0,0,.22,5.07,5.07,0,0,0,.09.54.74.74,0,0,0,.07.39,1.37,1.37,0,0,1,.08.35,5.16,5.16,0,0,0,.28.84.93.93,0,0,1,.1.39.05.05,0,0,0,0,0,1.64,1.64,0,0,0,.14.22.39.39,0,0,1,.07.26s0,0,0,0l.09.09a.05.05,0,0,1,0,0l.27.54a.2.2,0,0,0,.06.07.54.54,0,0,1,.19.28,1,1,0,0,0,.24.38,2.26,2.26,0,0,1,.26.37.34.34,0,0,0,.12.12.51.51,0,0,1,.13.12l.09.13a.29.29,0,0,0,.1.12,2.22,2.22,0,0,1,.37.38,3.27,3.27,0,0,1,.35.3,1.63,1.63,0,0,0,.17.2c.2.14.38.28.57.43a2.3,2.3,0,0,0,.31.22l.3.22c.34.21.69.41,1,.59l1.24.51.13.07a.36.36,0,0,0,.21,0H9a10.54,10.54,0,0,0,1.55.36c.22.05.43.1.65.13a.62.62,0,0,0,.23,0,1.13,1.13,0,0,1,.41,0l.3.05a2.43,2.43,0,0,0,.53,0l.77-.06a2.57,2.57,0,0,0,.62-.08,13,13,0,0,0,1.75-.37,3.73,3.73,0,0,0,.48-.18l.48-.19a2.18,2.18,0,0,1,.58-.26.51.51,0,0,0,.16-.09,1.09,1.09,0,0,1,.3-.18l.08,0a.17.17,0,0,0,.1-.07.05.05,0,0,1,0,0,.24.24,0,0,0,.17-.07.65.65,0,0,1,.37-.16.05.05,0,0,0,0,0,.69.69,0,0,1,.43-.31.54.54,0,0,0,.19-.14,0,0,0,0,1,0,0h.06a.29.29,0,0,0,.22-.17l0-.06a1.82,1.82,0,0,1,.4-.39s0,0,0,0,.14.09.2,0,0,0,0,0a.15.15,0,0,0,.1-.12l0,0h0c-.1,0-.08-.06,0-.16a.63.63,0,0,0,.12-.11,5.76,5.76,0,0,1,.55-.56,2.59,2.59,0,0,0,.41-.51,1.42,1.42,0,0,0,.21-.29.63.63,0,0,1,.11-.13.37.37,0,0,0,.08-.15.39.39,0,0,1,.13-.2.67.67,0,0,0,.2-.32.51.51,0,0,1,.18-.26.38.38,0,0,0,.08-.18.05.05,0,0,1,0,0,.05.05,0,0,0,0,0,.35.35,0,0,1,.34-.34c.05,0,.06,0,0,0h0a.1.1,0,0,1-.12,0,0,0,0,0,1,0,0,1.12,1.12,0,0,0,.17-.35.25.25,0,0,1,.21-.28s0,0,0,0a.14.14,0,0,1,0-.19,1.13,1.13,0,0,0,.12-.21s0-.11.05-.23,0-.14,0-.22c.1-.34.18-.72.26-1.14,0-.06,0-.19.05-.38a2.71,2.71,0,0,1,.06-.38,2.54,2.54,0,0,1,0-.39c0-.23,0-.36,0-.38a9.87,9.87,0,0,0-.06-1.22.09.09,0,0,0,0-.05,6.32,6.32,0,0,0-.86-.32l-.08,0-.36-.35a1.84,1.84,0,0,1-.23-.89.3.3,0,0,1,0-.14s0,0,0,0a.83.83,0,0,1,.08-.45,5.8,5.8,0,0,1,.51-.85.08.08,0,0,0,0-.07,2.72,2.72,0,0,1-.29-.5,4.2,4.2,0,0,0-.32-.5c-.16-.2-.32-.4-.47-.61s-.33-.41-.49-.58c-.38-.39-.68-.68-.89-.86a7.84,7.84,0,0,0-1.07-.77l-.65-.38a6,6,0,0,0-.67-.34c-.29-.12-.61-.25-1-.37a7.2,7.2,0,0,0-1.15-.31,1.71,1.71,0,0,0-.36,0l-.25-.06a4.67,4.67,0,0,0-1.39-.15,1,1,0,0,0-.55,0,1.41,1.41,0,0,0-.41,0,1.73,1.73,0,0,0-.6,0h0L12,3.14l0,0a.15.15,0,0,0-.13.08c-.05.09-.1.09-.16,0l0,0a.09.09,0,0,0-.11.05l0,0a5.32,5.32,0,0,0-.56.06l-.09,0h0a1.14,1.14,0,0,1-.36.16,3.44,3.44,0,0,0-.64.2,1.46,1.46,0,0,0-.57.18l-.1,0s0,0,0,0A1.66,1.66,0,0,0,8.74,4q-.16,0,0,.12a.85.85,0,0,0,.11.26L9,4.78a0,0,0,0,1,0,0s-.06,0-.11,0a.53.53,0,0,1-.17-.25.1.1,0,0,0-.06,0c-.07,0-.09,0,0-.11a.09.09,0,0,0,0-.1h-.1a.09.09,0,0,1-.06,0l-.12-.16a.11.11,0,0,0-.08,0L8,4.16c-.09,0-.1,0,0-.08A.27.27,0,0,1,8.13,4a0,0,0,0,0,0-.07v0A8.72,8.72,0,0,0,6.72,2.49a.18.18,0,0,0-.14-.06,3.35,3.35,0,0,0-.77-.27.54.54,0,0,0-.22,0l-.2,0A1,1,0,0,0,5,2.22a4.71,4.71,0,0,0-.5.3,1.19,1.19,0,0,0-.31.32A4,4,0,0,0,3.89,3.35Zm4,.06s0-.05,0-.09,0-.07-.08-.06a.07.07,0,0,0,0,.09S7.85,3.42,7.88,3.41Zm16,5a1.21,1.21,0,0,0-.9.36.63.63,0,0,0-.25.26.17.17,0,0,1-.16.07h0a.46.46,0,0,0-.17.26s0,0,0,0l0,0,.08-.17,0,0a.05.05,0,0,1,.07,0,.15.15,0,0,1-.05.14.13.13,0,0,0,0,.1.21.21,0,0,0-.09.19l-.05.08a.14.14,0,0,0-.05.09v.07a1.26,1.26,0,0,0,.49,1.29,1.23,1.23,0,0,0,.2.13l.54.22a.63.63,0,0,0,.21,0H24a.21.21,0,0,0,.16-.06,2.11,2.11,0,0,1,.28-.15.28.28,0,0,0,.13-.1l.09,0,0,0a.11.11,0,0,0,0-.11s0-.06.09-.07l0,0,.17-.2.16,0s0,0,0,0a.12.12,0,0,0-.09-.16,0,0,0,0,0,0,0h0c-.12,0-.12,0,0-.08s.06,0,.06,0,.16-.21.08-.33a.08.08,0,0,1,0,0,.06.06,0,0,1,.08,0h0a.88.88,0,0,0,0-.28s0,0,0,0l0,0a0,0,0,0,1,0,0c.08,0,.11,0,.07-.06a.08.08,0,0,1,0-.05,1,1,0,0,0-.05-.39.27.27,0,0,0-.09-.12c-.15-.11-.16-.16,0-.17s.05,0,0,0l-.2-.14a0,0,0,0,0,0,0A1,1,0,0,0,23.87,8.45Zm1.58.94c0-.06,0-.08-.07-.07s0,0,0,0,0,.19.06.11A.1.1,0,0,0,25.45,9.39Zm-23.1.68-.06,0a0,0,0,0,0,0,0h0c.05,0,.07,0,.06-.05l0,0Zm22.9.65h0s0,0,0,0,.06,0,0-.06h0a0,0,0,0,0,0,0Zm-4.1,9.1s0,.05.05,0,0,0,0,0,0-.1-.06,0S21.15,19.81,21.15,19.82Z"/><path class="cls-9" d="M17.5,1.5a0,0,0,0,0,0,0c-.15.16-.3.31-.46.45h0a0,0,0,0,1,0,0Z"/><path class="cls-10" d="M20.08,2a4.89,4.89,0,0,1,.27.76l0,.37,0,0a.12.12,0,0,1,0,.15.41.41,0,0,0-.05.33.17.17,0,0,1,0,.12.16.16,0,0,0,0,.15.16.16,0,0,0,0,.17l0,.18,0,.12-.05,0,0,0A.88.88,0,0,0,20,4.27c-.74-.47-1.27-.79-1.6-.95a3,3,0,0,0-.81-.23h-.09A.08.08,0,0,1,17.39,3a3.5,3.5,0,0,1,1.4-1.3,1,1,0,0,1,.45-.13,1,1,0,0,1,.67.21A.6.6,0,0,1,20.08,2Z"/><path class="cls-11" d="M5.81,2.16a3.35,3.35,0,0,1,.77.27v0a2.07,2.07,0,0,1-.49-.12L5.77,2.3h0a.54.54,0,0,1-.23,0,.43.43,0,0,0-.16,0,4.39,4.39,0,0,0-.47.2,1.84,1.84,0,0,0-.31.2A3.07,3.07,0,0,0,4.32,3c-.13.19-.28.45-.47.78a4.14,4.14,0,0,0-.26.75c0,.08-.06.3-.11.68h0a6.42,6.42,0,0,1,.1-1,2.25,2.25,0,0,1,.22-.61c.14,0,.19,0,.12-.12s0,0,0,0V3.35a4,4,0,0,1,.3-.51,1.19,1.19,0,0,1,.31-.32,4.71,4.71,0,0,1,.5-.3,1,1,0,0,1,.39-.08l.2,0A.54.54,0,0,1,5.81,2.16Z"/><path class="cls-4" d="M5.77,2.3l.32.05a2.07,2.07,0,0,0,.49.12l.14,0A8.72,8.72,0,0,1,8.16,3.9a.08.08,0,0,1,0,.08h0A.27.27,0,0,0,8,4.08c-.07.07-.06.1,0,.08l.25,0a.11.11,0,0,1,.08,0l.12.16a.09.09,0,0,0,.06,0h.1a.09.09,0,0,1,0,.1c-.05.06,0,.1,0,.11a.1.1,0,0,1,.06,0,.53.53,0,0,0,.17.25c.05,0,.09,0,.11,0a0,0,0,0,0,0,0l-.21-.39a.85.85,0,0,1-.11-.26A1.14,1.14,0,0,0,9,4.05a.14.14,0,0,0,.06-.19s0,0,0,0,0,.17.14.12a4.83,4.83,0,0,1,1-.23,10.73,10.73,0,0,1,1.78-.33l.29-.05a.93.93,0,0,1,.29,0l.12,0h0l.36,0a8.19,8.19,0,0,0,1,0l1.14.13c.09,0,.14,0,.16,0s0,0,0,0a.35.35,0,0,1-.14,0,1.71,1.71,0,0,1,.36,0,7.2,7.2,0,0,1,1.15.31c.34.12.66.25,1,.37a6,6,0,0,1,.67.34l.65.38a7.84,7.84,0,0,1,1.07.77c.21.18.51.47.89.86.16.17.32.36.49.58s.31.41.47.61a4.2,4.2,0,0,1,.32.5,2.72,2.72,0,0,0,.29.5.08.08,0,0,1,0,.07,5.8,5.8,0,0,0-.51.85.83.83,0,0,0-.08.45s0,0,0,0a.3.3,0,0,0,0,.14,1.84,1.84,0,0,0,.23.89c0,.09-.1.11-.18,0L22,11a1.12,1.12,0,0,1-.17-.37,1.09,1.09,0,0,0-.08-.31c-.09-.23-.19-.45-.29-.68A4.6,4.6,0,0,0,21.1,9a5.23,5.23,0,0,0-1.23-1.3,2.58,2.58,0,0,0-.32-.18s0,0,0,0a.66.66,0,0,0-.21-.15,3.64,3.64,0,0,0-.63-.3l-.51-.17a3.33,3.33,0,0,0-.53-.11h-.09l-.09,0a.36.36,0,0,1-.14,0,1.93,1.93,0,0,0-.49-.09,1.65,1.65,0,0,1-.31,0,.13.13,0,0,0-.17.09c0,.12,0,.17.11.14a1.38,1.38,0,0,1,.4,0l.16,0h.17a1.5,1.5,0,0,1,.54.12,5.81,5.81,0,0,1-.62,0,3.27,3.27,0,0,0-1.45.12,1.59,1.59,0,0,1-.39.08c-.33.15-.66.28-1,.41a1.73,1.73,0,0,0-.41.3l-.3.15c0-.13,0-.19.16-.18h0a.29.29,0,0,0,.13-.23c0-.09.06-.14.18-.12a.1.1,0,0,0,.09,0,.43.43,0,0,1,.28-.06l.05,0a.71.71,0,0,1,.34-.18.17.17,0,0,0,.11-.06.05.05,0,0,1,0,0l.5-.14a.71.71,0,0,0,.32,0,1.35,1.35,0,0,1,.27-.07s0,0,0,0l0-.17s0,0,0,0a1.58,1.58,0,0,1-.42.09,2.29,2.29,0,0,0-.38.06,5.63,5.63,0,0,0-1.84.86s-.05,0,0,.08a.06.06,0,0,1,0,0,.08.08,0,0,1-.08.07s0,0,0,0a.05.05,0,0,0-.08,0A1.44,1.44,0,0,0,13,8l0,0s0,0,0,.08,0,.07-.05.15-.07,0-.12,0,0,0-.05,0a3.06,3.06,0,0,0-.58.71l-.1.15a.25.25,0,0,0,0,.35c0,.06,0,.08,0,.07A.27.27,0,0,1,12,9.45h0a5.35,5.35,0,0,0-.44.9,0,0,0,0,0,0,0h0c.07,0,.09,0,0,.06a.41.41,0,0,0-.16.16,1.77,1.77,0,0,1-.08.4.69.69,0,0,0,0,.32c0,.09,0,.11.05.07a.1.1,0,0,0,0,0l.08-.31,0,0h0a0,0,0,0,1,0,.05,1.05,1.05,0,0,0-.08.4c0,.06,0,.09.1.09v.11h-.09a0,0,0,0,1,0,0,1.13,1.13,0,0,1-.1-.13.05.05,0,0,0,0,0s-.06,0,0,.06a.66.66,0,0,1,0,.15.06.06,0,0,1,0,0,.24.24,0,0,0,0,.25v.05l0,.12a.08.08,0,0,0,0,0,.24.24,0,0,1,0,.08.27.27,0,0,1,0,.08.2.2,0,0,0,0,.2.34.34,0,0,1,0,.31.05.05,0,0,0,0,.08h0a.15.15,0,0,1,.09.13.86.86,0,0,0,.08.36.09.09,0,0,1,0,.13s0,0,0,0,0,.06-.07,0h0a.2.2,0,0,0-.13.21,1.44,1.44,0,0,0,0,.48,3.29,3.29,0,0,0,.15.6,7.42,7.42,0,0,1,.44,1.1,1.58,1.58,0,0,0,.1.29l.15.26a.52.52,0,0,1,.1.27l0,0a1.17,1.17,0,0,1,.3.19,6.91,6.91,0,0,0,1,.84l.34.24a3,3,0,0,0,.43.24.6.6,0,0,0,.31.15,2.42,2.42,0,0,0,.51.14l1.18.09.27.05h0a.11.11,0,0,0,.11,0,.19.19,0,0,0,0,.18h0l.17,0a0,0,0,0,0,0,0l.05-.17a.13.13,0,0,0,.12,0l.1,0,.44,0a1.41,1.41,0,0,0,.41,0A3.61,3.61,0,0,0,19,18.52h0a.09.09,0,0,1,0,.12l0,0-.1.29,0,0a1.14,1.14,0,0,0-.31.27,4.39,4.39,0,0,1-.47.27l0-.11a.08.08,0,0,0,0-.05h0c-.15,0-.24.1-.25.22a2,2,0,0,1-.08.26.28.28,0,0,0-.25,0,5.11,5.11,0,0,1-.62.41,1.17,1.17,0,0,1-.24.09l-.25.07a.15.15,0,0,1-.13,0s0,0,0,0l0,0c.09-.16,0-.21-.17-.16a.13.13,0,0,0-.07.06l-.39.83a.32.32,0,0,0-.29,0,.63.63,0,0,1-.3.12,3.29,3.29,0,0,1-.69.16,1.33,1.33,0,0,0-.33.08.05.05,0,0,0,0,0s0,0-.06,0a.24.24,0,0,0-.2,0,1,1,0,0,0-.37-.1.59.59,0,0,0-.21,0,.48.48,0,0,1-.21,0h-.37l-.2,0a.5.5,0,0,0-.21,0,0,0,0,0,1,0,0s-.05,0-.07,0a.61.61,0,0,1,0-.17c0-.07,0-.1,0-.11l0,0a.38.38,0,0,0-.14.19.48.48,0,0,1-.08.16v0a.17.17,0,0,1,0-.05s0-.07,0-.09a.36.36,0,0,0-.34.06H11a1.41,1.41,0,0,0-.5,0L10,21.42a.29.29,0,0,1-.16,0H9.78a.83.83,0,0,0-.28.06,1,1,0,0,1-.44,0,3.62,3.62,0,0,1-.47,0,2.14,2.14,0,0,0-.35-.06l-.19-.05-.18-.08-.17,0a.36.36,0,0,1-.17-.07h0s0,0,0,0A.62.62,0,0,1,7.51,21a1.48,1.48,0,0,0,.3-.5c0-.09,0-.12-.08-.07a.55.55,0,0,0-.31.34,3.43,3.43,0,0,1-.24.48l0,0s0,0,0,0a.08.08,0,0,0,0-.12,1.73,1.73,0,0,1-.39-.19l-.17-.09a.54.54,0,0,1-.16-.1,1.52,1.52,0,0,0-.19-.17,6.15,6.15,0,0,1-.58-.46L5.48,20A2.11,2.11,0,0,0,5,19.77c-.26-.1-.52-.18-.78-.26l-.17-.08a.49.49,0,0,0-.17-.06l-.14,0a.26.26,0,0,0-.19,0A1,1,0,0,1,3.32,19a.54.54,0,0,0-.19-.28.2.2,0,0,1-.06-.07l-.27-.54a.05.05,0,0,0,0,0L2.68,18s0,0,0,0a.39.39,0,0,0-.07-.26,1.64,1.64,0,0,1-.14-.22.05.05,0,0,1,0,0,.93.93,0,0,0-.1-.39,5.16,5.16,0,0,1-.28-.84A1.37,1.37,0,0,0,2,15.82a.74.74,0,0,1-.07-.39,5.07,5.07,0,0,1-.09-.54.88.88,0,0,1,0-.22.46.46,0,0,0-.06-.23s0,0,0,0l0-.08a.14.14,0,0,0,0-.09,1.36,1.36,0,0,1,0-.45.24.24,0,0,0,0-.12.74.74,0,0,1,0-.12,9.38,9.38,0,0,1,.14-1.3,1.15,1.15,0,0,0,0-.16,1.3,1.3,0,0,1,0-.17A1.25,1.25,0,0,1,2,11.66,2.36,2.36,0,0,1,2.17,11c.13-.39.28-.78.45-1.16a2.9,2.9,0,0,1,.25-.57L3,9.06a1.29,1.29,0,0,1,.13-.18.68.68,0,0,0,.16-.39,0,0,0,0,1,0,0,.16.16,0,0,0,.12-.09.17.17,0,0,1,.1-.1.39.39,0,0,1-.12.25.06.06,0,0,0,0,.05v.11A.42.42,0,0,0,3.16,9a.24.24,0,0,0-.05.2L3,9.33a.09.09,0,0,0,0,.05.36.36,0,0,1-.07.23,2.59,2.59,0,0,0-.23.58.55.55,0,0,0-.11.3s0,.17-.13.47a.58.58,0,0,0,0,.26l0,0h0l0,0a4.56,4.56,0,0,1,.29-1A2.87,2.87,0,0,0,3,9.63a1.22,1.22,0,0,1,.11-.24,1.09,1.09,0,0,0,.11-.27L3.27,9a.81.81,0,0,0,.14-.33,2.54,2.54,0,0,0,.31-.53.3.3,0,0,1,0,.08A1.8,1.8,0,0,0,4,8.75l.11.09A.23.23,0,0,1,4.22,9c0,.06,0,.08.06.07s0,0,0,0h0a.82.82,0,0,0-.15-.33A3.34,3.34,0,0,0,4,8.25a1,1,0,0,0-.15-.42.66.66,0,0,1-.14-.38s0-.21-.14-.53a2.73,2.73,0,0,1-.1-.53c0-.2,0-.4,0-.61a.06.06,0,0,0-.05-.06c-.06,0-.09,0-.08,0h0c.08,0,.11,0,.1-.09a1,1,0,0,0,0-.24.12.12,0,0,0,0-.11c0-.38.09-.6.11-.68a4.14,4.14,0,0,1,.26-.75c.19-.33.34-.59.47-.78a3.07,3.07,0,0,1,.24-.29,1.84,1.84,0,0,1,.31-.2,4.39,4.39,0,0,1,.47-.2.43.43,0,0,1,.16,0,.54.54,0,0,0,.23,0Zm-1,3.84c0,.13,0,.22,0,.28a4.48,4.48,0,0,1,.11.72.49.49,0,0,0,0,.15.45.45,0,0,1,0,.16c-.08,0-.13,0-.16,0a.7.7,0,0,1,0-.13.84.84,0,0,1,0-.49.07.07,0,0,0,0-.09h0a.24.24,0,0,1-.09-.06.05.05,0,0,1,0,0,.25.25,0,0,0-.07-.12s0,0,0-.06h0c.13-.12.13-.16,0-.11a.1.1,0,0,0,0,0,.08.08,0,0,0,0,.09.08.08,0,0,1,0,0,.47.47,0,0,0,0,.26l0,0a.11.11,0,0,1,.1.1s0,0,0,0H4.58a0,0,0,0,0,0,0h0l.12.48s0,0,0,0a.24.24,0,0,0,0,.12.49.49,0,0,1,0,.11,2.77,2.77,0,0,0,.47.9l0,0c0,.06.06.05.08,0a.18.18,0,0,0,0-.06.28.28,0,0,1,0-.09.44.44,0,0,0,.33-.13.52.52,0,0,0,.19.17s0,0,0,0,.06,0,0-.06l0-.05a.3.3,0,0,1-.15-.26A.27.27,0,0,0,6,7.87c0,.08.08.16.13.24s.16.16.25,0a.06.06,0,0,0,0,0,.42.42,0,0,0-.12-.26.29.29,0,0,1-.07-.16l.37-.34s.08.05.12.12A.27.27,0,0,0,7,7.62a0,0,0,0,0,0,0H7a.8.8,0,0,0-.2-.36.05.05,0,0,0,0,0l-.1,0c-.16-.12-.15-.2,0-.25,0,0,0,0,0,0h0a.2.2,0,0,0,0,.09h0a1.67,1.67,0,0,0,.37-.38.06.06,0,0,0,0,0,.81.81,0,0,0-.06-.31c0-.11,0-.17.09-.17l0,0,.08.23a.06.06,0,0,0,.07,0h0l.23-.22a.63.63,0,0,0,.31.41s0,0,.06,0v0a.72.72,0,0,0-.12-.44.38.38,0,0,0-.08-.09s-.09,0-.13.09,0,0,0,0A.17.17,0,0,1,7.75,6l0,.08a0,0,0,0,0,0,0h0A.54.54,0,0,0,8,5.83a0,0,0,0,0,0,0l-.38-.56-.56-.64a.12.12,0,0,1,.08-.12s0,0,0,0A.3.3,0,0,1,7,4.34a.06.06,0,0,1,0,0s.06,0,.13,0l0,0a1.18,1.18,0,0,1,.28.23.58.58,0,0,0,.19.27.52.52,0,0,1,.12.23.05.05,0,0,0,0,0,.51.51,0,0,1,.19.44,0,0,0,0,0,0,0H8c.15,0,.19.07.13.19a.08.08,0,0,0,0,.07s0,0,0,0h0a.19.19,0,0,0,0-.28,11.06,11.06,0,0,0-1-1.36.6.6,0,0,0-.12-.11L6.93,4l-.11-.14a.17.17,0,0,0-.06-.06l-.09,0,0,0a.62.62,0,0,0-.26-.13l0,0a.65.65,0,0,0-.17-.08H6a1.12,1.12,0,0,0-.78.44A.16.16,0,0,1,5.11,4a.74.74,0,0,0-.35.4.56.56,0,0,1,0,.08A.64.64,0,0,0,4.55,5a.2.2,0,0,1-.06.15.15.15,0,0,0,0,.15v0c0,.1,0,.13.08.09s0,0,0,0,0-.11.06-.08,0,0,0,0a.08.08,0,0,1,0,.09s0,0,0,0l-.09.14a.19.19,0,0,0,0,.15.26.26,0,0,0,.1.16h0c.07,0,.1,0,.08.06a.07.07,0,0,1-.09,0h0c0,.1,0,.15.1.14ZM12.32,4a.24.24,0,0,0-.26-.07A.05.05,0,0,0,12,4h0a2.21,2.21,0,0,0,.45.7l.09.13a.2.2,0,0,0,.2.07.05.05,0,0,0,0,0v0a.88.88,0,0,1-.12-.26.26.26,0,0,0-.07-.15l0,0A1.7,1.7,0,0,0,12.32,4Zm3.21.57a.14.14,0,0,0,0,.09,3.72,3.72,0,0,0,.22.64,1.8,1.8,0,0,0,.1.4s0,0,0,0a.16.16,0,0,0,.16-.1.06.06,0,0,0,0,0A.34.34,0,0,1,16,5.32s-.05-.25-.15-.73a.27.27,0,0,0-.09-.15C15.67,4.38,15.6,4.41,15.53,4.52Zm-5.24,0s0,0,0,0h0l-.07.16a0,0,0,0,0,0,0,2.34,2.34,0,0,0,.36.49,1,1,0,0,0,.24.16c.11.07.15,0,.1-.07A1.28,1.28,0,0,0,10.72,5l-.16-.22A1.69,1.69,0,0,0,10.29,4.47Zm3.65.72h0s0,0,0,0h0a1.4,1.4,0,0,0,.25.65,2.12,2.12,0,0,0,.11.21s0,0,.05.1a.28.28,0,0,0,.09.1s.06,0,.06,0a.5.5,0,0,0-.12-.29.36.36,0,0,1,0-.09,1.34,1.34,0,0,0-.08-.26l-.1-.14a.26.26,0,0,1-.06-.21s0,0,0,0a.06.06,0,0,0-.08,0Zm-1.4.73a.32.32,0,0,1-.1-.1c-.09-.19-.22-.23-.38-.1a0,0,0,0,0,0,.07v0A.28.28,0,0,1,12.2,6s0,0,0,0a4.45,4.45,0,0,0,.61.54c.05,0,.06,0,.05,0a.74.74,0,0,0-.28-.43.11.11,0,0,1,0-.13S12.57,5.94,12.54,5.92Zm7.73.77a.67.67,0,0,0,.07.89.41.41,0,0,0,.24.13.32.32,0,0,0,.28-.1A.58.58,0,0,0,21,7.26a.88.88,0,0,0-.36-.75h0A.34.34,0,0,0,20.27,6.69Zm-13,.23A.21.21,0,0,0,7.53,7a0,0,0,0,0,0,0h0l-.18-.36s0,0,0,0-.14.07-.12.18A.82.82,0,0,0,7.26,6.92Zm4.26.56A4.71,4.71,0,0,1,11.09,7a0,0,0,0,0-.07,0h0l-.11.11a0,0,0,0,0,0,0,.87.87,0,0,0,.21.32,2,2,0,0,0,.48.43h0c.07,0,.11,0,.11-.09a.17.17,0,0,0-.06-.12S11.58,7.53,11.52,7.48Zm-1.64.75-.37-.3-.13-.09a.42.42,0,0,1-.17-.18c-.14-.17-.23-.16-.28,0a.08.08,0,0,0,0,0,.19.19,0,0,0,.09,0l0,0a.49.49,0,0,0,.29.24l0,0a.62.62,0,0,0,.52.3A0,0,0,0,0,10,8.34v0A.2.2,0,0,0,9.88,8.23Zm-.6,1.46a.05.05,0,0,1,0,0c0-.11-.06-.18-.22-.22a.2.2,0,0,0-.15,0,1.41,1.41,0,0,0-.35.21.12.12,0,0,0,0,.13.49.49,0,0,1,0,.14.86.86,0,0,0,.19.78l0,0,.33.08h0a.81.81,0,0,0,.29-.29.42.42,0,0,0,.05-.33.94.94,0,0,1,0-.28Q9.4,9.77,9.28,9.69ZM9.38,13c.08,0,.09,0,0-.11a2.18,2.18,0,0,0-.4-.34l0,0a.31.31,0,0,0-.15-.12,1.71,1.71,0,0,0-.72-.16l-.5,0a2.77,2.77,0,0,0-.5.1.72.72,0,0,0-.36.26,1.56,1.56,0,0,0-.43.38,2.81,2.81,0,0,0-.37,1,1.43,1.43,0,0,0,0,.23.88.88,0,0,0,0,.29.11.11,0,0,1,0,0,.57.57,0,0,0,0,.29l.29.38a2.16,2.16,0,0,0,.33.34,1.86,1.86,0,0,0,.42.25,1.56,1.56,0,0,0,.61.09.46.46,0,0,0,.26,0H8a3.09,3.09,0,0,0,.75-.11A.9.9,0,0,0,9,15.62a1.77,1.77,0,0,0,.36-.3l.17-.24a.57.57,0,0,0,.12-.35.09.09,0,0,1,0-.05,1.3,1.3,0,0,0,.17-.58s0,0,0,0a.18.18,0,0,1,0-.22.06.06,0,0,0,0,0,2.75,2.75,0,0,0-.24-.68.15.15,0,0,0,0-.06.05.05,0,0,0-.09,0s0,0,0,0,0,.08-.05,0l0,0A.12.12,0,0,1,9.34,13ZM12,16.9a.21.21,0,0,1-.11,0q-.11,0-.12.06a3.83,3.83,0,0,0-.22.56.48.48,0,0,1-.13.23c0,.07,0,.11,0,.1l.07,0a.54.54,0,0,0,.2-.31A3,3,0,0,1,12,17C12.09,16.9,12.08,16.87,12,16.9Zm-2.6,1a.23.23,0,0,0-.13.14c0,.07,0,.12.06.15h0a.74.74,0,0,0,.21-.4l0,0s.07-.06.07-.09a.79.79,0,0,1,.19-.33s0,0,0,0a.33.33,0,0,0-.37.24,1,1,0,0,0-.11.28.11.11,0,0,0,0,.05l0,0s0,0,0,0ZM7,18a3.67,3.67,0,0,0-.6.89.11.11,0,0,0,0,.05s0,0,.06,0a3.91,3.91,0,0,1,.3-.41,1.24,1.24,0,0,0,.16-.24A1.28,1.28,0,0,1,7,18s0-.06,0-.06Zm5.35,1.91a.23.23,0,0,0-.13.19c0,.07,0,.08.06,0a1.52,1.52,0,0,0,.44-.61c.07-.18.16-.36.25-.54,0,0,0,0,0,0h0l-.13,0a.15.15,0,0,0-.1.08,4.33,4.33,0,0,0-.4.73v.05l0,.08s0,0,0,0Zm1.94.26a.1.1,0,0,0-.06.05c0,.05,0,.07,0,.06a.32.32,0,0,0,.18-.1l.12-.16a1.63,1.63,0,0,0,.11-.23c0-.14.07-.21.08-.24a2.56,2.56,0,0,0,.12-.32c0-.08,0-.1-.08-.06a.36.36,0,0,0-.18.22.77.77,0,0,0-.12.28,1.23,1.23,0,0,0-.18.46Zm-4-.59a.31.31,0,0,0-.23.11,2.18,2.18,0,0,0-.26.5.39.39,0,0,0-.06.23c0,.07.05.09.11.06s.14-.11.12-.18a.07.07,0,0,1,0-.05,1,1,0,0,1,.22-.34.75.75,0,0,0,.15-.24.06.06,0,0,0,0-.08Z"/><path class="cls-9" d="M6.58,2.43a.18.18,0,0,1,.14.06l-.14,0Z"/><path class="cls-4" d="M16.16,3.11h0a.12.12,0,0,1,0,.15l-1-.24c-.34,0-.68-.07-1-.13a2.14,2.14,0,0,1-.52,0,.27.27,0,0,0-.18,0h-.05a1.45,1.45,0,0,0-.55-.05l-.6.07a1.61,1.61,0,0,0-.58,0l-1.14.18-.68.2s0,0,0,0a.11.11,0,0,1-.08.07s0,0-.09,0a.23.23,0,0,0-.14,0l-1,.38h0l-.08-.15a10.94,10.94,0,0,1,3.82-.9l.15,0,.17,0A11.43,11.43,0,0,1,16.16,3.11Z"/><path class="cls-12" d="M16.51,2.75a.07.07,0,0,0,.1,0s0,0,0,0A.71.71,0,0,1,17,3l-.2.52a0,0,0,0,1-.06,0,0,0,0,0,1,0,0,.76.76,0,0,0-.41-.2l-.2-.09a.12.12,0,0,0,0-.15.17.17,0,0,1,.13,0s.07,0,.08,0A1.71,1.71,0,0,1,16.51,2.75Z"/><path class="cls-13" d="M17.39,3a.08.08,0,0,0,.08.07h.09a3,3,0,0,1,.81.23c.33.16.86.48,1.6.95a.88.88,0,0,1,.11.14l0,0,.05,0s0,0,0,0a.16.16,0,0,0,0,.15.42.42,0,0,0-.16.27A.47.47,0,0,0,20,5q0,.1-.06,0a9.73,9.73,0,0,0-2.78-1.62h0v0Zm2.17,1.35a0,0,0,0,0,0,0s0,0,0,0h0a0,0,0,0,0,0,0,.05.05,0,0,0,0,0Zm.19.06q-.06.08,0,.06s0,0,0,0,0-.06,0,0Z"/><path class="cls-14" d="M12,3.14l.06.07h0a1.73,1.73,0,0,1,.6,0,.26.26,0,0,0-.15,0,5.07,5.07,0,0,0-.68.11,8.46,8.46,0,0,1-1,.12s0,0,0,0-.12,0-.08,0a.85.85,0,0,0-.42.08,2.84,2.84,0,0,1-.58.05h0a3.44,3.44,0,0,1,.64-.2,1.14,1.14,0,0,0,.36-.16h0l.09,0a5.32,5.32,0,0,1,.56-.06l0,0a.09.09,0,0,1,.11-.05l0,0c.06.07.11.07.16,0A.15.15,0,0,1,12,3.12Z"/><path class="cls-4" d="M13.68,3.21a4.67,4.67,0,0,1,1.39.15l-.56,0-.2,0a.41.41,0,0,0-.22,0l-.69-.06-.27,0h0A1,1,0,0,1,13.68,3.21Z"/><path class="cls-15" d="M13.13,3.19h0l-.56,0a.26.26,0,0,1,.15,0A1.41,1.41,0,0,1,13.13,3.19Z"/><path class="cls-11" d="M13.13,3.2l.27,0a.07.07,0,0,0,.06,0c.06,0,.06,0,0,0h-.28l-.36,0h0l-.12,0a.93.93,0,0,0-.29,0l-.29.05a10.73,10.73,0,0,0-1.78.33,4.83,4.83,0,0,0-1,.23c-.11,0-.16,0-.14-.12l.1,0,.29-.07h.05a.18.18,0,0,0,.25-.11,2.84,2.84,0,0,0,.58-.05.85.85,0,0,1,.42-.08.08.08,0,0,0,.08,0s0,0,0,0a8.46,8.46,0,0,0,1-.12,5.07,5.07,0,0,1,.68-.11Z"/><path class="cls-9" d="M13.4,3.25l.69.06c.05,0,.07,0,.08.06a8.19,8.19,0,0,1-1,0h.28c.06,0,.06,0,0,0A.07.07,0,0,1,13.4,3.25Z"/><ellipse class="cls-16" cx="7.86" cy="3.34" rx="0.05" ry="0.08" transform="translate(-0.64 2.5) rotate(-17.4)"/><path class="cls-6" d="M14.51,3.34l.56,0,.25.06a.35.35,0,0,0,.14,0s0,0,0,0-.07,0-.16,0l-1.14-.13s0-.05-.08-.06a.41.41,0,0,1,.22,0Z"/><path class="cls-9" d="M3.89,3.35v.08s0,0,0,0,0,.14-.12.12Z"/><path class="cls-7" d="M17.14,3.41v0h0a9.73,9.73,0,0,1,2.78,1.62q.08.08.06,0a.47.47,0,0,1,0-.17h.17v.07l0,0s0,.07,0,.08h0l.28-.21a.06.06,0,0,1,.08,0,.71.71,0,0,0,.31.16l-.11.37a.58.58,0,0,1-.13.33h0l-.24-.2-.12-.07a.38.38,0,0,1-.15-.16A.22.22,0,0,0,20,5.15l-.25-.09,0,0a.22.22,0,0,0-.13-.12,3,3,0,0,0-.66-.45,5.45,5.45,0,0,1-.53-.29,6.53,6.53,0,0,0-.7-.35l-.5-.19a.15.15,0,0,1-.09-.08S17.08,3.46,17.14,3.41Z"/><path class="cls-1" d="M6.15,3.49a.65.65,0,0,1,.17.08l0,0a.62.62,0,0,1,.26.13l0,0,.09,0a.17.17,0,0,1,.06.06L6.93,4l.12.11a.6.6,0,0,1,.12.11,11.06,11.06,0,0,1,1,1.36.19.19,0,0,1,0,.28s0,0,0,0h0a.08.08,0,0,1,0-.07c.06-.12,0-.18-.13-.19a0,0,0,0,1,0,0h0a.51.51,0,0,0-.19-.44.05.05,0,0,1,0,0,.52.52,0,0,0-.12-.23.58.58,0,0,1-.19-.27,1.18,1.18,0,0,0-.28-.23l0,0C7,4.27,7,4.26,7,4.3a.06.06,0,0,0,0,0,.3.3,0,0,0,.17.08c.07,0,.07,0,0,0a.12.12,0,0,0-.08.12A.29.29,0,0,1,7,4.5a1.18,1.18,0,0,0-.86-.58L6,3.89a.2.2,0,0,0-.1,0,.27.27,0,0,1-.13,0h0a2.92,2.92,0,0,0-.48.29A.69.69,0,0,0,5,4.38a2.56,2.56,0,0,0-.27.55.27.27,0,0,0,0,.18.15.15,0,0,1,0,.11.06.06,0,0,0,0,0,.26.26,0,0,1,0,.21,2.31,2.31,0,0,1,0,.37s0,0,0,0a.52.52,0,0,1,0,.25H4.64c-.12,0-.15,0-.1-.14h0a.07.07,0,0,0,.09,0c0-.06,0-.08-.08-.06h0a.26.26,0,0,1-.1-.16.19.19,0,0,1,0-.15l.09-.14s0,0,0,0a.08.08,0,0,0,0-.09s0,0,0,0-.07,0-.06.08,0,0,0,0-.1,0-.08-.09v0a.15.15,0,0,1,0-.15A.2.2,0,0,0,4.55,5a.64.64,0,0,1,.16-.49.56.56,0,0,0,0-.08A.74.74,0,0,1,5.11,4a.16.16,0,0,0,.08-.06A1.12,1.12,0,0,1,6,3.48Zm.77.6L6.67,3.9c-.08-.06-.11,0-.1,0a.13.13,0,0,0,.1.12l.08,0,.15,0C7,4.14,7,4.13,6.92,4.09Z"/><path class="cls-6" d="M10.89,3.48a.08.08,0,0,1-.08,0S10.8,3.46,10.89,3.48Z"/><path class="cls-5" d="M9.79,3.64h0a.18.18,0,0,1-.25.11H9.51l-.29.07A1.46,1.46,0,0,1,9.79,3.64Z"/><path class="cls-17" d="M5.78,3.86a.27.27,0,0,0,.13,0,.2.2,0,0,1,.1,0l.09,0A1.18,1.18,0,0,1,7,4.5a.29.29,0,0,0,.13.09l.56.64a.52.52,0,0,1-.11.1l-.12.08-.93.83c-.5.42-1,.86-1.44,1.33H5l-.06-.13a.45.45,0,0,0,0-.16.49.49,0,0,1,0-.15,4.48,4.48,0,0,0-.11-.72c0-.06,0-.15,0-.28a.52.52,0,0,0,0-.25s0,0,0,0a2.31,2.31,0,0,0,0-.37.26.26,0,0,0,0-.21.06.06,0,0,1,0,0,.15.15,0,0,0,0-.11.27.27,0,0,1,0-.18A2.56,2.56,0,0,1,5,4.38a.69.69,0,0,1,.22-.23,2.92,2.92,0,0,1,.48-.29ZM5.43,5.22s0,0,0,0,0,0,0,0a0,0,0,0,0,.08,0Z"/><path class="cls-11" d="M9.07,3.86A.14.14,0,0,1,9,4.05a1.14,1.14,0,0,1-.3.08q-.14-.08,0-.12A1.66,1.66,0,0,1,9.07,3.86Z"/><path class="cls-18" d="M12.32,4a1.7,1.7,0,0,1,.26.38l0,0a.26.26,0,0,1,.07.15.88.88,0,0,0,.12.26s0,0,0,.06h0a.2.2,0,0,1-.2-.07l-.09-.13A2.21,2.21,0,0,1,12,4a.06.06,0,0,1,0-.07h0A.24.24,0,0,1,12.32,4Z"/><path class="cls-19" d="M6.67,3.9l.25.19s0,0,0,0l-.15,0-.08,0a.13.13,0,0,1-.1-.12C6.56,3.85,6.59,3.84,6.67,3.9Z"/><path class="cls-20" d="M20.31,3.93a.07.07,0,0,1,.08.07l0,0a.24.24,0,0,1-.11.06A.16.16,0,0,1,20.31,3.93Z"/><path class="cls-21" d="M20.32,4.3a.15.15,0,0,0,.11,0,0,0,0,0,1,0,0h0c0,.14-.08.18-.14.12s0,0,0,0,0,0-.09,0,0,0-.06,0,0,0,0,0l0-.12s.05,0,.06,0Z"/><ellipse class="cls-22" cx="19.55" cy="4.33" rx="0.04" ry="0.04" transform="matrix(0.96, -0.27, 0.27, 0.96, -0.44, 5.45)"/><path class="cls-22" d="M19.78,4.49q-.09,0,0-.06l0,0c.05,0,.07,0,0,0S19.8,4.49,19.78,4.49Z"/><path class="cls-2" d="M15.83,4.59c.1.48.15.72.15.73a.34.34,0,0,0,.05.22.06.06,0,0,1,0,0,.16.16,0,0,1-.16.1s0,0,0,0a1.8,1.8,0,0,1-.1-.4,3.72,3.72,0,0,1-.22-.64.14.14,0,0,1,0-.09c.07-.11.14-.14.21-.08A.27.27,0,0,1,15.83,4.59Zm0,.9s0,0,0,0l0,0c0-.06,0-.06-.05,0Z"/><path class="cls-2" d="M10.29,4.47a1.69,1.69,0,0,1,.27.32l.16.22a1.28,1.28,0,0,1,.15.25c.05.11,0,.14-.1.07a1,1,0,0,1-.24-.16,2.34,2.34,0,0,1-.36-.49,0,0,0,0,1,0,0l.07-.16a0,0,0,0,1,0,0Z"/><path class="cls-23" d="M20.17,4.59c.07,0,.09,0,.08.07l0,0s0,0,0,.08.1.14-.06.08H20A.42.42,0,0,1,20.17,4.59Z"/><path class="cls-18" d="M14,5.2a.06.06,0,0,1,.08,0s0,0,0,0a.26.26,0,0,0,.06.21l.1.14a1.34,1.34,0,0,1,.08.26.36.36,0,0,0,0,.09.5.5,0,0,1,.12.29s0,.06-.06,0a.28.28,0,0,1-.09-.1c0-.06,0-.1-.05-.1a2.12,2.12,0,0,1-.11-.21,1.4,1.4,0,0,1-.25-.65l0,0H14Z"/><circle class="cls-17" cx="5.39" cy="5.22" r="0.04"/><path class="cls-9" d="M3.48,5.22a.12.12,0,0,1,0,.11v-.1Z"/><path class="cls-13" d="M7.65,5.23,8,5.79a0,0,0,0,1,0,0,.54.54,0,0,1-.2.22s0,0,0,0h0l0-.08a.1.1,0,0,0-.06-.1H7.64c-.15.1-.15.2,0,.31,0,0,0,0,0,0a.21.21,0,0,0,0,.06l-.23.22a.05.05,0,0,1-.08,0h0l-.08-.23,0,0c-.11,0-.14.06-.09.17a.81.81,0,0,1,.06.31.06.06,0,0,1,0,0,1.67,1.67,0,0,1-.37.38h0a.2.2,0,0,1,0-.09s0,0,0,0h0c-.19,0-.2.13,0,.25l0,.12-.37.34a.34.34,0,0,1-.07-.15A.64.64,0,0,0,6,7.29H6a.36.36,0,0,0,0,.09.59.59,0,0,1,0,.08s0,.08,0,.1a0,0,0,0,1,0,0l0,.29a.27.27,0,0,1-.28.24.54.54,0,0,0-.11-.28,0,0,0,0,0,0,0q-.09,0,0,.15c0,.11.06.22.1.33a.44.44,0,0,1-.33.13,2.87,2.87,0,0,1-.24-.57A.66.66,0,0,1,5,7.58h.06c.46-.47.94-.91,1.44-1.33l.93-.83.12-.08A.52.52,0,0,0,7.65,5.23Z"/><path class="cls-24" d="M15.86,5.51s0,0,0,0v0c.06,0,.07,0,.05,0Z"/><path class="cls-5" d="M12.44,5.82a.32.32,0,0,0,.1.1s0,0,0,.1a.11.11,0,0,0,0,.13.74.74,0,0,1,.28.43c0,.06,0,.07-.05,0a4.45,4.45,0,0,1-.61-.54s0,0,0,0a.28.28,0,0,0-.14-.22.06.06,0,0,1,0-.08h0C12.22,5.59,12.35,5.63,12.44,5.82ZM12.32,6c0,.07,0,.1,0,.07l0,0q.06-.12,0-.06Z"/><path class="cls-8" d="M7.69,5.86a.1.1,0,0,1,.06.1.17.17,0,0,0-.1.22c-.16-.11-.16-.21,0-.31Z"/><path class="cls-25" d="M12.34,6.06c-.05,0-.06,0,0-.07l0,0q.09-.06,0,.06Z"/><path class="cls-1" d="M7.87,6.22A.72.72,0,0,1,8,6.66a0,0,0,0,1,0,0h0a.63.63,0,0,1-.31-.41.21.21,0,0,1,0-.06c0-.08.08-.11.13-.09A.38.38,0,0,1,7.87,6.22Z"/><path class="cls-1" d="M4.52,6.42s0,0,0,.06h0a.25.25,0,0,1,.07.12.05.05,0,0,0,0,0,.24.24,0,0,0,.09.06.07.07,0,0,1,0,.09h0a.84.84,0,0,0,0,.49.7.7,0,0,0,0,.13s.08.06.16,0L5,7.58a.66.66,0,0,0,.09.28,2.87,2.87,0,0,0,.24.57.28.28,0,0,0,0,.09.18.18,0,0,1,0,.06c0,.07,0,.08-.08,0l0,0a2.77,2.77,0,0,1-.47-.9.49.49,0,0,0,0-.11.24.24,0,0,1,0-.12s0,0,0,0L4.56,6.9s0,0,0,0h.08l0,0h0a.11.11,0,0,0-.1-.1l0,0a.47.47,0,0,1,0-.26.08.08,0,0,0,0,0,.08.08,0,0,1,0-.09.1.1,0,0,1,0,0C4.65,6.26,4.65,6.3,4.52,6.42Z"/><path class="cls-8" d="M20.62,6.51a.88.88,0,0,1,.36.75.58.58,0,0,1-.12.35.32.32,0,0,1-.28.1.41.41,0,0,1-.24-.13.67.67,0,0,1-.07-.89.34.34,0,0,1,.31-.19Z"/><path class="cls-21" d="M7.38,6.59,7.56,7a0,0,0,0,1,0,.06h0a.21.21,0,0,1-.27-.09.82.82,0,0,1,0-.18q0-.17.12-.18S7.37,6.57,7.38,6.59Z"/><path class="cls-1" d="M16.51,6.66a1.65,1.65,0,0,0,.31,0,1.93,1.93,0,0,1,.49.09.36.36,0,0,0,.14,0l.09,0h.09a3.33,3.33,0,0,1,.53.11l.51.17a3.64,3.64,0,0,1,.63.3.66.66,0,0,1,.21.15s0,0,0,0a2.58,2.58,0,0,1,.32.18A5.23,5.23,0,0,1,21.1,9a4.6,4.6,0,0,1,.35.64c.1.23.2.45.29.68a1.09,1.09,0,0,1,.08.31c0,.08-.08.09-.1,0a.11.11,0,0,0,0-.05s-.06,0-.07,0,0,0,0,0a.13.13,0,0,1,0,.18,0,0,0,0,0,0,0c0,.05,0,.06.07,0a.15.15,0,0,1,0-.06s.05-.05.07,0a.06.06,0,0,1,0,0s0,.08,0,.1l0,0A2.57,2.57,0,0,1,22,12.12l0,.48a2.41,2.41,0,0,1-.07.48,5.68,5.68,0,0,1-.17.65,3.59,3.59,0,0,1-.24.63c-.1.19-.23.41-.38.67a5.09,5.09,0,0,1-.67.88,5.27,5.27,0,0,1-.56.51,4.58,4.58,0,0,1-.63.41,5.07,5.07,0,0,1-1.52.59l-.76.16H16.9a.4.4,0,0,0-.15,0h-.17l-.29,0a2.57,2.57,0,0,1-.73-.05.8.8,0,0,1-.34,0c-.24-.07-.47-.15-.71-.24s-.26-.11-.37-.16a3.13,3.13,0,0,1-.34-.21,2,2,0,0,1-.46-.3l-.1-.07a.39.39,0,0,1-.1-.08,7.71,7.71,0,0,1-.74-.78l-.11-.1a.14.14,0,0,1,0-.15,0,0,0,0,0,0-.05,1.08,1.08,0,0,0-.31-.35s0-.05,0,0l.14,0s0,0,0,0l-.36-.4a.11.11,0,0,1,0-.14v0c0-.07,0-.11,0-.12s0-.06-.08-.06a.1.1,0,0,1-.09,0,.17.17,0,0,0-.12-.06l0-.05s0,0,0,0l.08-.09,0,0a.13.13,0,0,0,.09-.1s0,0,0,0-.08,0-.08.07,0,0,0,0,0,0,0,0a.36.36,0,0,0-.07-.1l-.06,0a.07.07,0,0,1,0-.09.09.09,0,0,0,0-.13.86.86,0,0,1-.08-.36.15.15,0,0,0-.09-.13.06.06,0,0,1,0-.08h0a.34.34,0,0,0,0-.31.2.2,0,0,1,0-.2.27.27,0,0,0,0-.08.24.24,0,0,0,0-.08.08.08,0,0,1,0,0l0-.12V12a.24.24,0,0,1,0-.25.06.06,0,0,0,0,0,.66.66,0,0,0,0-.15c0-.05,0-.07,0-.06a.05.05,0,0,1,0,0,1.13,1.13,0,0,0,.1.13,0,0,0,0,0,0,0h.09a.63.63,0,0,1,0,.27l0,0s0,.06,0,.08l0,0,0,.38s0,0,0,0a.14.14,0,0,0-.17,0q-.09,0,0,0c.15,0,.22.07.21.19v.16a1,1,0,0,0,.06.23,1.25,1.25,0,0,1,.07.4.11.11,0,0,1,0,.05,5.41,5.41,0,0,0,1.59,2.59,4.37,4.37,0,0,0,1.37.83l.42.19a2.15,2.15,0,0,1,.51.15h0a1.21,1.21,0,0,1,.31,0,2.84,2.84,0,0,0,1,0h.05a.2.2,0,0,0,.13,0l.11,0A5,5,0,0,0,19.83,16a5.2,5.2,0,0,0,1.76-3.82s0-.09,0-.18a.48.48,0,0,0,0-.17,1,1,0,0,1,0-.24s0-.05,0-.07a.47.47,0,0,1,0-.26.09.09,0,0,0,0-.05,7.38,7.38,0,0,0-.45-1.45,2,2,0,0,1-.21-.37s0,0,0,0l.18-.09,0,0s0,0-.07,0a.49.49,0,0,0-.17.06s-.08,0-.09,0A5,5,0,0,0,19.71,8c-.2-.17-.36-.29-.47-.37a2.07,2.07,0,0,0-.53-.28,2.1,2.1,0,0,0-.53-.19L17.72,7a1.5,1.5,0,0,0-.54-.12H17l-.16,0a1.38,1.38,0,0,0-.4,0c-.11,0-.14,0-.11-.14A.13.13,0,0,1,16.51,6.66ZM11.37,12a.07.07,0,0,0,0-.11h0a.07.07,0,0,0-.11,0h0a.09.09,0,0,0,0,.11h0a.09.09,0,0,0,.11,0Zm10.36.34s.06,0,.08-.09h0c0-.06,0-.11,0-.12h0s-.06,0-.08.09h0C21.7,12.24,21.71,12.29,21.73,12.3Zm-10.4-.17c-.14,0-.14.06,0,.13h0c.07,0,.07-.07,0-.12Zm10.38.45s.07,0,.11-.06h0s.05-.09,0-.11h0s-.07,0-.11.05h0S21.69,12.56,21.71,12.58Zm-10.28.59s0,0,0-.06h0a0,0,0,0,0,0,0s0,0,0,.06h0a0,0,0,0,0,0,0Zm0,.21s0,0,0,.06h0c.06,0,.07,0,0-.11S11.47,13.29,11.46,13.38Zm.47,1.19c0-.12,0-.12,0,0s0,0,0,0S11.94,14.59,11.93,14.57Z"/><path class="cls-21" d="M16.13,6.66s0,0,0,0l0,.17s0,0,0,0a1.35,1.35,0,0,0-.27.07.71.71,0,0,1-.32,0l-.5.14a.05.05,0,0,0,0,0,.17.17,0,0,1-.11.06.71.71,0,0,0-.34.18l-.05,0a.43.43,0,0,0-.28.06.1.1,0,0,1-.09,0c-.12,0-.18,0-.18.12a.29.29,0,0,1-.13.23h0c-.12,0-.18.05-.16.18l0,0a.41.41,0,0,0-.34.24,3.09,3.09,0,0,0-.73.88l-.2.25a.09.09,0,0,0,0,.1,4.42,4.42,0,0,0-.48,1.36,3.28,3.28,0,0,0-.19.68c-.06,0-.1,0-.1-.09a1.05,1.05,0,0,1,.08-.4,0,0,0,0,0,0-.05h0l0,0-.08.31a.1.1,0,0,1,0,0s-.06,0-.05-.07a.69.69,0,0,1,0-.32,1.77,1.77,0,0,0,.08-.4.41.41,0,0,1,.16-.16s0-.05,0-.06a0,0,0,0,1,0,0h0a5.35,5.35,0,0,1,.44-.9s0,0,0,0h0a.27.27,0,0,0,.15.12c.07,0,.08,0,0-.07a.25.25,0,0,1,0-.35l.1-.15a3.06,3.06,0,0,1,.58-.71s0,0,.05,0,.09.05.12,0,.08-.13.05-.15,0-.06,0-.08l0,0a1.44,1.44,0,0,1,.26-.22.05.05,0,0,1,.08,0s0,0,0,0a.08.08,0,0,0,.08-.07.06.06,0,0,0,0,0s0-.06,0-.08a5.63,5.63,0,0,1,1.84-.86,2.29,2.29,0,0,1,.38-.06A1.58,1.58,0,0,0,16.13,6.66Zm-4.19,3v0s0,0,0,0a.38.38,0,0,0-.09.15l0,0s.05,0,.07,0,0,0,0-.08A.13.13,0,0,1,12,9.69s0,0,0,0,0-.07-.07,0Z"/><path class="cls-18" d="M11.09,7a4.71,4.71,0,0,0,.43.53c.06,0,.11.11.16.16a.17.17,0,0,1,.06.12s0,.08-.11.09h0a2,2,0,0,1-.48-.43.87.87,0,0,1-.21-.32,0,0,0,0,1,0,0L11,6.94a0,0,0,0,1,.07,0Z"/><path class="cls-11" d="M17.1,7a5.81,5.81,0,0,0,.62,0l.46.13a.09.09,0,0,1,0,.06,10.2,10.2,0,0,0-1.35-.09l-.1,0h0a3.12,3.12,0,0,1-.52.08l-.89.2a6.24,6.24,0,0,0-2,1.13,1.41,1.41,0,0,0-.4.37c-.12.19-.25.38-.39.56-.07,0-.1,0-.08-.11a.27.27,0,0,0,0-.12,3.09,3.09,0,0,1,.73-.88l.34-.24,0,0,.3-.15a1.73,1.73,0,0,1,.41-.3c.34-.13.67-.26,1-.41a1.59,1.59,0,0,0,.39-.08A3.27,3.27,0,0,1,17.1,7Z"/><path class="cls-5" d="M16.7,7.08l.1,0a10.2,10.2,0,0,1,1.35.09l.47.14s.07,0,.09,0a2.07,2.07,0,0,1,.53.28c.11.08.27.2.47.37a5,5,0,0,1,1.11,1.3s.05,0,.09,0a.49.49,0,0,1,.17-.06c.07,0,.09,0,.07,0l0,0-.18.09s0,0,0,0a2,2,0,0,0,.21.37,7.38,7.38,0,0,1,.45,1.45.09.09,0,0,1,0,.05.47.47,0,0,0,0,.26s0,0,0,.07a1,1,0,0,0,0,.24.48.48,0,0,1,0,.17c0,.09,0,.15,0,.18A5.2,5.2,0,0,1,19.83,16a5,5,0,0,1-2.66,1.25l-.11,0a.2.2,0,0,1-.13,0h-.05a2.84,2.84,0,0,1-1,0,1.21,1.21,0,0,0-.31,0h0a2.15,2.15,0,0,0-.51-.15L14.63,17a4.37,4.37,0,0,1-1.37-.83,5.41,5.41,0,0,1-1.59-2.59.11.11,0,0,0,0-.05,1.25,1.25,0,0,0-.07-.4,1,1,0,0,1-.06-.23v-.16c0-.12-.06-.18-.21-.19s-.06,0,0,0a.14.14,0,0,1,.17,0s0,0,0,0l0-.38,0,0s0-.05,0-.08l0,0a.63.63,0,0,0,0-.27v-.11a3.28,3.28,0,0,1,.19-.68s0,0,0,0l0,0,.37-.9a3.81,3.81,0,0,0,.34-.58c.14-.18.27-.37.39-.56a1.41,1.41,0,0,1,.4-.37,6.24,6.24,0,0,1,2-1.13l.89-.2a3.12,3.12,0,0,0,.52-.08Zm-.37,4.53a.07.07,0,0,1,0,.06.14.14,0,0,0,0,.15v0a1,1,0,0,0,.11.46s0,0,0,0h0a3.81,3.81,0,0,1-.47,0,.65.65,0,0,0-.31,0h0a.56.56,0,0,0-.28-.05.47.47,0,0,1-.2,0,4.46,4.46,0,0,0-.51-.07l0,0a.25.25,0,0,0-.26,0H14a.72.72,0,0,0-.35.14l-.14.11a.44.44,0,0,0-.12.15,2,2,0,0,1-.14.25.5.5,0,0,0-.08.26,1.48,1.48,0,0,0,0,.26.84.84,0,0,0,.16.33v0a.14.14,0,0,0,.1.12,1.72,1.72,0,0,0,.32.23h.05l0,0,0,0s0,0,0,0,0,.13.05.16a6.47,6.47,0,0,0,.88.15s0,0,0,0a.22.22,0,0,1-.06.22l0,.05c0,.24,0,.51,0,.81a2.92,2.92,0,0,0,.18.85.47.47,0,0,0,.19.24.9.9,0,0,0,.84.07.83.83,0,0,0,.18-.08.28.28,0,0,0,.11-.18.18.18,0,0,1,0-.09l.06-.07a1.32,1.32,0,0,0,.1-.76,2.55,2.55,0,0,0,0-.87s0,0,0,0,0,0,0,.05,0,.05-.05.05a0,0,0,0,1,0,0,.11.11,0,0,1,0-.12s0,0,0,0,0-.1-.09-.09h-.05s0,0,0,0h0a1.43,1.43,0,0,1,.42-.09l.2-.06a.59.59,0,0,1,.3,0l.23-.05.15,0-.16.11a.23.23,0,0,0-.07.08c0,.1,0,.13.05.09a2.1,2.1,0,0,1,.3-.15l.31-.12a4.83,4.83,0,0,0,.95-.58,0,0,0,0,0,0,0s0,0-.08,0a.46.46,0,0,1-.23.12l.11-.15a.6.6,0,0,1,.14-.12.37.37,0,0,0,.13-.15,3.55,3.55,0,0,0,.48-.62c0-.15.09-.3.14-.45a.08.08,0,0,0,0-.07s0,0-.08,0-.05,0,0,0a.07.07,0,0,1,.07,0,0,0,0,0,0,0,0,.33.33,0,0,0,0-.32,1.68,1.68,0,0,0-.15-.26.39.39,0,0,0-.4-.21h0a.15.15,0,0,0-.11,0,1.91,1.91,0,0,0-.86.44l-.09.05a3.28,3.28,0,0,0-.55.24,6.21,6.21,0,0,0-.66.28l-.1.08a.18.18,0,0,1-.16,0,.28.28,0,0,1-.08-.2.23.23,0,0,0-.05-.22v-.22a5.6,5.6,0,0,0-.17-1.15c0-.06-.06-.11-.15-.14s0,0,0,0l.48-.13a2.1,2.1,0,0,0,.52-.28.75.75,0,0,0,.3-.51A.4.4,0,0,0,17.35,9,1.18,1.18,0,0,0,17,8.81a1.91,1.91,0,0,0-.34-.1,1,1,0,0,0-.34,0,3.08,3.08,0,0,0-1.44.59.79.79,0,0,0-.29.56.28.28,0,0,0,.07.22.52.52,0,0,0,.23.18,1.43,1.43,0,0,0,.42.1l.19,0a.34.34,0,0,0,.2,0,1.15,1.15,0,0,1,.37,0s0,0,0,0a4.87,4.87,0,0,0,.1.65,1.44,1.44,0,0,1,0,.24,1,1,0,0,0,0,.24.05.05,0,0,0,0,0Zm.94,2.74-.16,0h-.17l-.36.06c-.1,0-.12.07-.08.14l.05,0a2.48,2.48,0,0,0,.54-.06.21.21,0,0,0,.2-.07S17.32,14.35,17.27,14.35Z"/><path class="cls-9" d="M18.18,7.15a2.1,2.1,0,0,1,.53.19s-.05,0-.09,0l-.47-.14A.09.09,0,0,0,18.18,7.15Z"/><path class="cls-21" d="M6.78,7.23a.8.8,0,0,1,.2.36l0,0H7a.27.27,0,0,1-.25-.15c0-.07-.07-.11-.12-.12l0-.12.1,0A.05.05,0,0,1,6.78,7.23Z"/><path class="cls-21" d="M6,7.29a.64.64,0,0,1,.11.25.34.34,0,0,0,.07.15.29.29,0,0,0,.07.16.42.42,0,0,1,.12.26.06.06,0,0,1,0,0c-.09.12-.17.1-.25,0S6.05,8,6,7.87l0-.29a0,0,0,0,0,0,0c-.07,0-.08,0,0-.1a.59.59,0,0,0,0-.08.36.36,0,0,1,0-.09H6Z"/><path class="cls-18" d="M9.21,7.66a.42.42,0,0,0,.17.18l.13.09.37.3a.2.2,0,0,1,.09.09,0,0,0,0,1,0,.06h0a.62.62,0,0,1-.52-.3l0,0a.49.49,0,0,1-.29-.24l0,0a.19.19,0,0,1-.09,0,.08.08,0,0,1,0,0C9,7.5,9.07,7.49,9.21,7.66Z"/><path class="cls-7" d="M3.56,7.59l.08.13a.06.06,0,0,1,0,.07h0l-.15,0h0a.2.2,0,0,1,0-.13l0-.11h.06S3.55,7.57,3.56,7.59Z"/><path class="cls-21" d="M5.62,7.83a.54.54,0,0,1,.11.28.3.3,0,0,0,.15.26l0,.05s0,.06,0,.06,0,0,0,0a.52.52,0,0,1-.19-.17c0-.11-.07-.22-.1-.33s0-.12,0-.15A0,0,0,0,1,5.62,7.83Z"/><path class="cls-26" d="M3.72,8.14a2.54,2.54,0,0,1-.31.53h0V8.57a.06.06,0,0,1,0-.05.39.39,0,0,0,.12-.25,1.07,1.07,0,0,0,.14-.16C3.7,8,3.72,8,3.72,8.14Z"/><path class="cls-25" d="M13.51,8.07l-.34.24A.41.41,0,0,1,13.51,8.07Z"/><path class="cls-13" d="M24.84,8.8a.24.24,0,0,1-.14-.05,1.38,1.38,0,0,0-.48-.25h0l0,0h-.29A1,1,0,0,1,24.84,8.8Z"/><path class="cls-27" d="M23.87,8.45h.29l0,0h0a1.38,1.38,0,0,1,.48.25.24.24,0,0,0,.14.05,0,0,0,0,1,0,0,.13.13,0,0,0,0,.06s0,0,0,0h0a.59.59,0,0,1-.27-.11A1.26,1.26,0,0,0,24,8.59a.37.37,0,0,0-.25.05.39.39,0,0,1-.18,0l-.11.05a1.3,1.3,0,0,0-.52.47.85.85,0,0,1-.19.19,0,0,0,0,1,0,0,.13.13,0,0,1-.06-.14.45.45,0,0,0,.11-.13l.2-.16s0,0,0-.06a.09.09,0,0,0,0-.07A1.21,1.21,0,0,1,23.87,8.45Z"/><path class="cls-28" d="M24,8.59a1.26,1.26,0,0,1,.57.21.59.59,0,0,0,.27.11s0,0,0,0h0a.13.13,0,0,1,0-.06l.2.14s0,0,0,0-.12.06,0,.17a.27.27,0,0,1,.09.12,1,1,0,0,1,.05.39.08.08,0,0,0,0,.05c0,.05,0,.07-.07.06s-.11,0,0,.09a.88.88,0,0,1,0,.28h0a.06.06,0,0,0-.08,0,.08.08,0,0,0,0,0c.08.12.06.23-.08.33a.09.09,0,0,0-.06,0c-.1.08-.1.1,0,.08h0a0,0,0,0,1,0,0,.45.45,0,0,1-.1.14l-.17.2,0,0c-.07,0-.1,0-.09.07a.13.13,0,0,0-.1.17.28.28,0,0,1-.13.1,2.11,2.11,0,0,0-.28.15.17.17,0,0,1-.1,0l0,0a.56.56,0,0,1,.09-.17.85.85,0,0,0,.1-.19s0,0,0,0a1.89,1.89,0,0,0-.1.17l-.09.16a0,0,0,0,0,0,0,.09.09,0,0,1,0,.1h-.2a.63.63,0,0,1-.21,0L23,11.35a1.23,1.23,0,0,1-.2-.13,1.26,1.26,0,0,1-.49-1.29V9.86a.14.14,0,0,1,.05-.09,0,0,0,0,0,0,0h0l.19,0,0,.05a.08.08,0,0,1,0,0c0,.1,0,.16.11.18a.05.05,0,0,1,0,0c0,.06,0,.08-.08.07s0,0,0,0a.08.08,0,0,0-.12,0s0,0,0,0,.07.12.17.13.15,0,.17-.09l0-.08c0-.05,0-.08-.06-.08s0,0,0,0,0-.13.06-.09h0s.05,0,0-.05,0,0,0,0l-.07,0s0,0,0,0,0-.11-.11-.06l-.08,0a.18.18,0,0,1,0-.22c.05,0,.07-.08.07-.09s0-.1-.11-.11a.15.15,0,0,0,.05-.14s0,0,0,0a.13.13,0,0,0,.06.14,0,0,0,0,0,0,0,.85.85,0,0,0,.19-.19,1.3,1.3,0,0,1,.52-.47c0,.07,0,.08.08,0s0-.06,0-.09a.39.39,0,0,0,.18,0A.37.37,0,0,1,24,8.59ZM23.9,9A.31.31,0,0,0,24,8.94a.09.09,0,0,0,0,0c0-.05,0,0-.08,0a.16.16,0,0,1-.08.06.22.22,0,0,0-.14.1v0l.07.16h0A.39.39,0,0,1,23.9,9Zm.8.06v0a.1.1,0,0,1,0,0c0,.09.05.12.13.07s0,0,0,0A.29.29,0,0,0,24.72,9C24.6,8.94,24.59,9,24.7,9.07Zm-1.2,0-.06.1s0,0,0,.05,0,0,0,0a.94.94,0,0,0,.06-.15Q23.53,8.93,23.5,9.09Zm.65.33s0,0,0-.06,0,0,0,0a.13.13,0,0,0,0-.12c0-.06-.06-.06-.07,0l0,.1a.43.43,0,0,1,0,0s0,0,0,0S24.15,9.4,24.15,9.42Zm-.62,0s-.05.08,0,.11,0,0,0,0a.51.51,0,0,1,.13-.18s0,0,0,0,0,0,0,0A.52.52,0,0,0,23.53,9.42Zm1.34,0s0,0,0,0,0,0,0,0h0A.27.27,0,0,1,25,9.41s0,0,0-.06S24.91,9.37,24.87,9.45Zm.1.18c-.1.06-.11.09,0,.11h0a.08.08,0,0,0,0-.09.25.25,0,0,1,.12-.16l0,0s0,0,0,0A.22.22,0,0,0,25,9.63Zm-.6-.12s0,0,0,0h0c.06,0,.08,0,.07,0S24.4,9.46,24.37,9.51Zm-.67,0s0,0,0,0l0,0h0l0,0Zm.36,0c-.06,0-.08,0-.06,0a0,0,0,0,0,0,0,.07.07,0,0,0,.06,0s0,0,0,0Zm-.56.16a.23.23,0,0,1-.11,0h0s0,0,0,0,.2.14.28,0,0,0,0,0h0a.06.06,0,0,0-.07,0Zm1.13.19c.05,0,0-.05,0-.05l0,0s-.08,0-.14,0,0,0-.05,0h0a.19.19,0,0,0,0,.17l.12,0c.11,0,.15,0,.12-.16A.06.06,0,0,1,24.63,9.91Zm-.69.07A0,0,0,0,0,24,10a0,0,0,0,0,0-.05c-.08-.1-.15-.09-.2.05s0,0,0,.06,0,0,0,0l.05-.06Zm-1.59,0a.2.2,0,0,0,0,.21c0,.05,0,.05.06,0l.13-.21s0,0,0,0h0C22.43,9.91,22.38,9.92,22.35,10Zm2.67.11v0s0,0,0,0h0a.06.06,0,0,0,.09,0,0,0,0,0,0,0,0c0-.06,0-.06-.07,0Zm-1.65.27a.13.13,0,0,0,.09-.14.06.06,0,0,1,0,0,.09.09,0,0,0,0-.11l0,0a.48.48,0,0,0-.2.07,1.73,1.73,0,0,0-.14.19s0,0,0,0l.06.05.08,0c.05.05.09,0,.09-.06S23.36,10.34,23.37,10.34Zm.81-.18c0-.05,0-.06-.05,0l0,0s0,0,0,0S24.17,10.17,24.18,10.16Zm-.41,0c-.08,0-.1.08-.06.11s0,0,0,0a.22.22,0,0,0,.05-.08S23.79,10.12,23.77,10.13Zm.61.08s-.09,0-.14.06,0,.06,0,0a.28.28,0,0,1,.2,0l0,0h0c0-.06,0-.09-.09-.08Zm.61.11c-.07,0-.07,0,0,0s0,0,.05,0,0,0,0,0Zm-2.4.1a.07.07,0,0,0-.07-.07h0a.07.07,0,0,0-.06.07.06.06,0,0,0,.06.06.07.07,0,0,0,.07-.06Zm1,.28h0c.05-.11,0-.17-.1-.2l0,0h0a.18.18,0,0,0,.1.17Zm.3.07a.2.2,0,0,0-.08-.08h0a.08.08,0,0,0,.06.1l.06,0c.06,0,.08,0,.06-.05l0,0h-.05Zm.71.23s.08,0,.12-.1h0c0-.07,0-.14,0-.15s-.08,0-.12.1h0C24.56,10.91,24.55,11,24.57,11Zm-1.06-.14s0,0,0,0h0s0,0,0,0h0l-.05.21s0,0,0,0h0a0,0,0,0,0,0,0h0Zm-.75.05a0,0,0,0,0,0-.05c-.08,0-.11,0-.08,0l0,0S22.75,11,22.76,10.91Zm1.27.14c-.05,0-.06.06,0,.1h0l.08-.16,0-.05c0-.06,0-.07-.06,0s0,0,0,0V11A.05.05,0,0,1,24,11.05Zm-1,.16,0-.13s0,0,0,0-.11,0-.14,0l0,0c-.05,0-.07,0-.05,0s0,0,0,.05a.19.19,0,0,1,.07.12C23,11.31,23,11.31,23,11.21Zm.59.22s0,0,.08.05.08,0,.1,0a.08.08,0,0,0,0-.08.46.46,0,0,0-.16-.15h0Z"/><path class="cls-16" d="M23.54,8.66s0,.06,0,.09-.08,0-.08,0Z"/><path class="cls-29" d="M3.41,8.67A.81.81,0,0,1,3.27,9L3.16,9a.42.42,0,0,1,.21-.29Z"/><path class="cls-1" d="M16.66,8.71a1.91,1.91,0,0,1,.34.1,1.18,1.18,0,0,1,.35.18.4.4,0,0,1,.12.43.75.75,0,0,1-.3.51,2.1,2.1,0,0,1-.52.28l-.48.13s0,0,0,0,.14.08.15.14a5.6,5.6,0,0,1,.17,1.15.14.14,0,0,1-.16,0l0,0a.05.05,0,0,1,0,0,1,1,0,0,1,0-.24,1.44,1.44,0,0,0,0-.24,4.87,4.87,0,0,1-.1-.65s0,0,0,0a1.15,1.15,0,0,0-.37,0,.34.34,0,0,1-.2,0l-.19,0a1.43,1.43,0,0,1-.42-.1.52.52,0,0,1-.23-.18.28.28,0,0,1-.07-.22.79.79,0,0,1,.29-.56,3.08,3.08,0,0,1,1.44-.59A1,1,0,0,1,16.66,8.71Zm-.17.23-.72.18a1.79,1.79,0,0,0-.84.59.35.35,0,0,0-.06.14s0,0,0,.06a.76.76,0,0,0,.6.32l.49,0a2.05,2.05,0,0,0,.48-.09A1.29,1.29,0,0,0,17,9.7a.6.6,0,0,0,.16-.27.56.56,0,0,0,0-.31s0,0,0,0A.35.35,0,0,1,17,9,.64.64,0,0,0,16.49,8.94Zm-.21,2.28a.16.16,0,0,0,.13.15s0,0,0,0c-.07-.25-.13-.49-.2-.73q0-.06,0,0v0a2.3,2.3,0,0,0,.05.45S16.27,11.12,16.28,11.22Z"/><path class="cls-6" d="M23,8.81a.09.09,0,0,1,0,.07s0,0,0,.06l-.2.16s0,0,0,0A.63.63,0,0,1,23,8.81Z"/><path class="cls-30" d="M24,8.94A.31.31,0,0,1,23.9,9a.39.39,0,0,0-.11.27h0l-.07-.16v0a.22.22,0,0,1,.14-.1.16.16,0,0,0,.08-.06c0-.06.08-.07.08,0A.09.09,0,0,1,24,8.94Z"/><path class="cls-31" d="M17,9a.35.35,0,0,0,.14.06s0,0,0,0a.56.56,0,0,1,0,.31A.6.6,0,0,1,17,9.7a1.29,1.29,0,0,1-.59.41,2.05,2.05,0,0,1-.48.09l-.49,0a.76.76,0,0,1-.6-.32s0,0,0-.06H15a.09.09,0,0,0,.06,0,3.42,3.42,0,0,1,.48-.39,1,1,0,0,1,.29-.14l.31-.12a1.14,1.14,0,0,1,.37-.05s0,0,0,.07,0,0,0,0h0a.39.39,0,0,0,.18,0h.05c.06,0,.08,0,0-.06l-.05,0a.37.37,0,0,0-.18,0,.41.41,0,0,0-.07-.11A.64.64,0,0,1,17,9Zm0,.25a.1.1,0,0,1-.1.05.19.19,0,0,0-.17.1s0,0,0,0A.73.73,0,0,0,17,9.27s0,0,0,0h0S17,9.22,17,9.27Zm-1.2.39c-.07-.06-.08,0,0,.07a0,0,0,0,0,0,0C15.82,9.73,15.81,9.7,15.75,9.66Zm.48,0-.1,0a0,0,0,0,0,0,0,.26.26,0,0,1-.12.19.38.38,0,0,0-.09.09c-.05.06,0,.09,0,.09h0a1,1,0,0,0,.18-.22.38.38,0,0,1,.15-.19,0,0,0,0,0,0,0h0Zm-.66.15a.1.1,0,0,1,0-.1s0-.05,0-.06,0,0-.07.05a.06.06,0,0,0,0,.08c.08.06.07.11,0,.15s0,0,0,0,0,.07.06,0l.06-.08,0,0c.06,0,.07,0,0-.05Z"/><path class="cls-11" d="M16.49,8.94a.41.41,0,0,1,.07.11.08.08,0,0,1-.08.06,1.14,1.14,0,0,0-.37.05l-.31.12a1,1,0,0,0-.29.14,3.42,3.42,0,0,0-.48.39.09.09,0,0,1-.06,0h-.1a.35.35,0,0,1,.06-.14,1.79,1.79,0,0,1,.84-.59Z"/><path class="cls-16" d="M24.72,9s0,0,0,.05C24.59,9,24.6,8.94,24.72,9Z"/><path class="cls-6" d="M3.16,9l.11,0-.06.12s-.08,0-.1.05A.24.24,0,0,1,3.16,9Z"/><path class="cls-30" d="M23.53,9.09s0,0,0,0S23.53,9,23.53,9.09Z"/><path class="cls-32" d="M24.72,9a.29.29,0,0,1,.15.16s0,0,0,0-.12,0-.13-.07a.1.1,0,0,0,0,0v0S24.7,9,24.72,9Z"/><path class="cls-13" d="M16.79,9.09s0,.06,0,.06H16.7a.39.39,0,0,1-.18,0l0,0h0s0,0,0-.07a.08.08,0,0,0,.08-.06.37.37,0,0,1,.18,0Z"/><path class="cls-19" d="M22.72,9.07s0,0,0,0a.45.45,0,0,1-.11.13s0,0,0,0a.05.05,0,0,0-.07,0l0,0-.08.17,0,0s0,0,0,0a.46.46,0,0,1,.17-.26h0A.17.17,0,0,0,22.72,9.07Z"/><path class="cls-33" d="M23.53,9.09a.94.94,0,0,1-.06.15s0,0,0,0,0,0,0-.05l.06-.1S23.52,9.07,23.53,9.09Z"/><path class="cls-9" d="M3.21,9.12a1.09,1.09,0,0,1-.11.27A1.22,1.22,0,0,0,3,9.63a2.87,2.87,0,0,1-.24.57.06.06,0,0,1-.06,0,2.59,2.59,0,0,1,.23-.58A.36.36,0,0,0,3,9.38a.09.09,0,0,1,0-.05l.11-.16S3.16,9.12,3.21,9.12Z"/><path class="cls-34" d="M24.19,9.19a.13.13,0,0,1,0,.12s0,0,0,0,0,.1,0,.06,0,0,0,0-.06,0,0,0a.43.43,0,0,0,0,0l0-.1C24.13,9.13,24.15,9.13,24.19,9.19Z"/><path class="cls-35" d="M12.44,9.19a.27.27,0,0,1,0,.12c0,.08,0,.11.08.11a3.81,3.81,0,0,1-.34.58l-.37.9,0,0s0,0,0,0a4.42,4.42,0,0,1,.48-1.36c.05,0,.06,0,0-.1Z"/><path class="cls-6" d="M17,9.27a.73.73,0,0,1-.33.16s0,0,0,0a.19.19,0,0,1,.17-.1.1.1,0,0,0,.1-.05s.07-.06.09,0,0,0,0,0Z"/><path class="cls-33" d="M23.67,9.3s0,0,0,0a.51.51,0,0,0-.13.18s0,0,0,0,0-.07,0-.11a.52.52,0,0,1,.1-.11S23.66,9.29,23.67,9.3Z"/><path class="cls-36" d="M25.41,9.46c-.1.08-.12,0-.06-.11s0,0,0,0,.1,0,.07.07A.1.1,0,0,1,25.41,9.46Z"/><path class="cls-16" d="M25,9.35c.05,0,.05,0,0,.06a.27.27,0,0,0-.08.07s0,0,0,0h0s0,0,0,0S25,9.34,25,9.35Z"/><path class="cls-8" d="M9,9.42c.16,0,.23.11.22.22a.05.05,0,0,0,0,0q.12.08.09.18a.94.94,0,0,0,0,.28.42.42,0,0,1-.05.33.81.81,0,0,1-.29.29H9L8.7,10.7l0,0a.86.86,0,0,1-.19-.78.49.49,0,0,0,0-.14.12.12,0,0,1,0-.13,1.41,1.41,0,0,1,.35-.21A.2.2,0,0,1,9,9.42ZM9,10.16a.08.08,0,0,0,0-.11s-.07-.06-.1,0a.11.11,0,0,0,0,.11S9,10.18,9,10.16Z"/><path class="cls-29" d="M22.54,9.4c.09,0,.13,0,.11.11s0,0-.07.09a.18.18,0,0,0,0,.22h0l-.19,0h0a0,0,0,0,1,0,0l.05-.08a.22.22,0,0,0,.09-.19A.13.13,0,0,1,22.54,9.4Z"/><path class="cls-16" d="M25.12,9.43s0,0,0,0l0,0a.25.25,0,0,0-.12.16h0A.22.22,0,0,1,25.12,9.43Z"/><path class="cls-2" d="M12.24,9.44c0,.05,0,.08,0,.1A.09.09,0,0,1,12.24,9.44Z"/><path class="cls-33" d="M24.45,9.51c0,.05,0,.06-.07,0s0,0,0,0h0S24.43,9.46,24.45,9.51Z"/><path class="cls-33" d="M23.74,9.5c0,.06,0,.07,0,0v0l0,0,0,0Z"/><path class="cls-18" d="M22.5,9.5a.22.22,0,0,1-.09.19A.21.21,0,0,1,22.5,9.5Z"/><path class="cls-33" d="M24.08,9.56s0,0,0,0a.07.07,0,0,1-.06,0,0,0,0,0,1,0,0c0-.05,0-.06.06,0Z"/><path class="cls-7" d="M12,9.69a.13.13,0,0,0-.09.13s0,.07,0,.08,0,0-.07,0l0,0a.38.38,0,0,1,.09-.15s0,0,0,0v0l0,0s.07,0,.07,0S12,9.68,12,9.69Z"/><path class="cls-13" d="M15.75,9.66c.06,0,.07.07,0,.08a0,0,0,0,1,0,0C15.67,9.62,15.68,9.6,15.75,9.66Z"/><path class="cls-30" d="M25,9.63h0a.08.08,0,0,1,0,.09h0C24.86,9.72,24.87,9.69,25,9.63Z"/><path class="cls-22" d="M16.27,9.69a.38.38,0,0,0-.15.19,1,1,0,0,1-.18.22h0s-.05,0,0-.09A.38.38,0,0,1,16,9.93a.26.26,0,0,0,.12-.19,0,0,0,0,1,0,0l.1,0,0,0h0A0,0,0,0,1,16.27,9.69Z"/><path class="cls-31" d="M15.54,9.74a.1.1,0,0,0,0,.1l0,0c.06,0,.05,0,0,.05l0,0-.06.08c-.06.05-.07.05-.06,0s0,0,0,0,.09-.09,0-.15a.06.06,0,0,1,0-.08c0-.05.06-.06.07-.05S15.55,9.7,15.54,9.74Z"/><path class="cls-33" d="M23.62,9.71c-.08.15-.17.15-.28,0s0-.05,0,0h0a.23.23,0,0,0,.11,0l0,0a.06.06,0,0,1,.07,0s0,0,0,0Z"/><path class="cls-22" d="M22.8,9.87l.07,0s0,0,0,0,0,.06,0,.05h0q-.15-.06-.06.09s0,0,0,0,.08,0,.06.08l0,.08c0,.06-.08.09-.17.09s-.16-.05-.17-.13,0,0,0,0a.08.08,0,0,1,.12,0s0,0,0,0,.09,0,.08-.07a.05.05,0,0,0,0,0c-.1,0-.13-.08-.11-.18a.08.08,0,0,0,0,0l0-.05h0l.08,0c.08,0,.11,0,.11.06S22.79,9.87,22.8,9.87Z"/><path class="cls-30" d="M25.16,9.81a0,0,0,0,0,0,0l0,0s0,0,0,0S25,9.83,25.16,9.81Z"/><path class="cls-34" d="M24.43,9.87c.06.05.1.05.14,0l0,0c.06,0,.07,0,0,.05a.06.06,0,0,0,0,0c0,.13,0,.19-.12.16l-.12,0a.19.19,0,0,1,0-.17,0,0,0,0,1,.05,0Z"/><path class="cls-33" d="M24,10a0,0,0,0,1-.06,0h0l-.05.06s0,0,0,0,0,0,0-.06.12-.15.2-.05A0,0,0,0,1,24,10Z"/><path class="cls-29" d="M22.51,9.93s0,0,0,0h0l-.13.21s-.05,0-.06,0a.2.2,0,0,1,0-.21S22.43,9.91,22.51,9.93Z"/><ellipse class="cls-37" cx="8.92" cy="10.08" rx="0.06" ry="0.09" transform="matrix(0.83, -0.56, 0.56, 0.83, -4.13, 6.78)"/><path class="cls-30" d="M25.12,10.1a.06.06,0,0,1-.09,0s0,0,0,0h0v0l0,0s.06,0,.07,0A0,0,0,0,1,25.12,10.1Z"/><path class="cls-20" d="M23.48,10.05a.09.09,0,0,1,0,.11.06.06,0,0,0,0,0,.13.13,0,0,1-.09.14s0,0,0,0,0,.11-.09.06l-.08,0-.06-.05s0,0,0,0a1.73,1.73,0,0,1,.14-.19.48.48,0,0,1,.2-.07Z"/><path class="cls-21" d="M2.38,10.09c0,.05,0,.07-.06.05s0,0,0,0h0l.06,0,0,0Z"/><path class="cls-33" d="M24.15,10.19s0,0,0,0l0,0c.05,0,.07,0,.05,0S24.16,10.19,24.15,10.19Z"/><path class="cls-33" d="M23.8,10.15a.22.22,0,0,1-.05.08s0,0,0,0,0-.06.06-.11S23.8,10.12,23.8,10.15Z"/><path class="cls-34" d="M24.42,10.22c.08,0,.11,0,.09.08l0,0h0a.28.28,0,0,0-.2,0c-.06,0-.07,0,0,0s.1-.1.14-.06Z"/><path class="cls-15" d="M2.69,10.19a.06.06,0,0,0,.06,0,4.56,4.56,0,0,0-.29,1l0,0h0a.58.58,0,0,1,0-.26c.09-.3.13-.46.13-.47A.55.55,0,0,1,2.69,10.19Z"/><path class="cls-16" d="M25,10.34s0,0,0,0,0,0-.05,0,0,0,0,0Z"/><circle class="cls-20" cx="22.52" cy="10.42" r="0.06"/><path class="cls-38" d="M23.47,10.51c.12,0,.15.09.1.2h0a.18.18,0,0,1-.1-.17s0,0,0,0Z"/><path class="cls-24" d="M16.25,10.61c.07.24.13.48.2.73,0,0,0,0,0,0a.16.16,0,0,1-.13-.15c0-.1,0-.16,0-.16a2.3,2.3,0,0,1-.05-.45v0S16.24,10.57,16.25,10.61Z"/><path class="cls-30" d="M25,10.57q0,.11-.06,0A.09.09,0,0,1,25,10.57Z"/><path class="cls-12" d="M21.72,10.66c0,.08.06.07.1,0A1.12,1.12,0,0,0,22,11l.06.16a1.14,1.14,0,0,0,0,.34,3.38,3.38,0,0,1,.15,1.14,6.77,6.77,0,0,1,0,.72,2.46,2.46,0,0,1-.21.7,5.66,5.66,0,0,1-.27.79,4.4,4.4,0,0,1-.41.72c-.16.22-.33.44-.51.65a8.23,8.23,0,0,1-.56.62,3.43,3.43,0,0,1-.83.65,5.63,5.63,0,0,1-2.43.67h0a.82.82,0,0,0-.51,0,.23.23,0,0,1-.21,0l-.17-.08-.18-.05a4.9,4.9,0,0,0-.77-.07,1.17,1.17,0,0,1-.52-.12l-.45-.26a5.76,5.76,0,0,1-1.37-1.11,5,5,0,0,1-.77-1c-.15-.28-.26-.5-.32-.65a2.52,2.52,0,0,1-.17-.72.17.17,0,0,1,.12.06.1.1,0,0,0,.09,0c.08,0,.11,0,.08.06s-.05,0,0,.12v0a.11.11,0,0,0,0,.14l.36.4s0,0,0,0l-.14,0c-.07,0-.09,0,0,0a1.08,1.08,0,0,1,.31.35,0,0,0,0,1,0,.05.14.14,0,0,0,0,.15l.11.1a7.71,7.71,0,0,0,.74.78.39.39,0,0,0,.1.08l.1.07a2,2,0,0,0,.46.3,3.13,3.13,0,0,0,.34.21c.11,0,.23.11.37.16s.47.17.71.24a.8.8,0,0,0,.34,0,2.57,2.57,0,0,0,.73.05l.29,0h.17a.4.4,0,0,1,.15,0H17l.76-.16a5.07,5.07,0,0,0,1.52-.59,4.58,4.58,0,0,0,.63-.41,5.27,5.27,0,0,0,.56-.51,5.09,5.09,0,0,0,.67-.88c.15-.26.28-.48.38-.67a3.59,3.59,0,0,0,.24-.63,5.68,5.68,0,0,0,.17-.65A2.41,2.41,0,0,0,22,12.6l0-.48a2.57,2.57,0,0,0-.14-1.06l0,0s0-.06,0-.1a.06.06,0,0,0,0,0c0-.05-.05,0-.07,0a.15.15,0,0,0,0,.06s-.06,0-.07,0a0,0,0,0,1,0,0,.13.13,0,0,0,0-.18s0,0,0,0,0-.07.07,0A.11.11,0,0,1,21.72,10.66Zm-2.54,6.59c.1.12.2.14.28,0a.25.25,0,0,0,0-.07c0-.06,0-.08-.06-.07l-.07,0a.35.35,0,0,1-.18.05S19.16,17.24,19.18,17.25Z"/><path class="cls-36" d="M25.24,10.67q.09.06,0,.06s0,0,0,0h0a0,0,0,0,1,0,0h0Z"/><path class="cls-34" d="M23.78,10.69a.2.2,0,0,1,.08.08h.08c0,.06,0,.07-.06.05l-.06,0a.08.08,0,0,1-.06-.1,0,0,0,0,1,0,0Z"/><path class="cls-19" d="M25,10.71a.12.12,0,0,1,.09.16s0,0,0,0l-.16,0A.45.45,0,0,0,25,10.71Z"/><ellipse class="cls-32" cx="24.65" cy="10.87" rx="0.14" ry="0.05" transform="translate(2.74 26.55) rotate(-59.4)"/><rect class="cls-38" x="23.3" y="10.91" width="0.28" height="0.09" rx="0.03" transform="translate(7.96 31.68) rotate(-78.3)"/><path class="cls-18" d="M22.74,10.86a0,0,0,0,1,0,.05s0,.05-.06,0l0,0C22.63,10.84,22.66,10.82,22.74,10.86Z"/><path class="cls-33" d="M24.12,11l-.08.16h0s0-.07,0-.1a.05.05,0,0,0,0,0v-.08s0,0,0,0,.06,0,.06,0Z"/><path class="cls-4" d="M22.91,11s.07,0,.14,0,0,0,0,0l0,.13c0,.1-.07.1-.1,0a.19.19,0,0,0-.07-.12s0,0,0-.05,0-.07.05,0Z"/><path class="cls-37" d="M22.23,11.13l.36.35.08,0a6.32,6.32,0,0,1,.86.32.09.09,0,0,1,0,.05,9.87,9.87,0,0,1,.06,1.22s0,.15,0,.38a2.54,2.54,0,0,0,0,.39,2.71,2.71,0,0,0-.06.38c0,.19,0,.32-.05.38-.08.42-.16.8-.26,1.14,0,.08,0,.16,0,.22s0,.19-.05.23a1.13,1.13,0,0,1-.12.21.14.14,0,0,0,0,.19s0,0,0,0a.25.25,0,0,0-.21.28,1.12,1.12,0,0,1-.17.35,0,0,0,0,0,0,0,.1.1,0,0,0,.12,0h0s0,0,0,0a.35.35,0,0,0-.34.34.05.05,0,0,1,0,0,.05.05,0,0,0,0,0,.38.38,0,0,1-.08.18.51.51,0,0,0-.18.26.67.67,0,0,1-.2.32.39.39,0,0,0-.13.2.37.37,0,0,1-.08.15.63.63,0,0,0-.11.13,1.42,1.42,0,0,1-.21.29c-.08,0-.09-.05-.05-.1l0,0a15.52,15.52,0,0,0,.86-1.31,2,2,0,0,0,.11-.26,1.39,1.39,0,0,1,.15-.3,3.88,3.88,0,0,0,.33-.77c0-.07,0-.09,0-.08a0,0,0,0,0,0,0,3.57,3.57,0,0,1-.33.75l-.08.09a.36.36,0,0,0-.07.1l-.1.15c-.16.19-.26.31-.29.36a6.81,6.81,0,0,1-1.26,1.47l-.48.46,0,0a.1.1,0,0,1,0,.06l-.05,0a1.61,1.61,0,0,0-.36.31.15.15,0,0,1-.07.05l-.05,0a3.75,3.75,0,0,1-.51.38,9.42,9.42,0,0,1-1.08.8,2.41,2.41,0,0,1-.7.39l-.14.05a.46.46,0,0,0-.24.14.48.48,0,0,1-.43.18.25.25,0,0,0,.08-.29s0,0,0,0a.16.16,0,0,0,.05-.17.07.07,0,0,1,0-.11s0,0,0,0,0-.21-.1-.16a.28.28,0,0,0-.1.09.7.7,0,0,0-.12.35,1.16,1.16,0,0,0-.12.45l-1.19.31a11.08,11.08,0,0,1-1.15.21c-.15,0-.34,0-.59,0a5.68,5.68,0,0,0-.59,0c-.39,0-.78,0-1.17,0a1.24,1.24,0,0,0-.37-.06,1.14,1.14,0,0,1-.37,0,4.8,4.8,0,0,1-1.25-.14A4.16,4.16,0,0,0,9,22.61a2.07,2.07,0,0,1-.48-.14,19,19,0,0,1-3.22-1.65l-.12-.06A2,2,0,0,1,5,20.61a3.76,3.76,0,0,0-.37-.25l0,0s0,0,0,.06a2.25,2.25,0,0,1,.43.38.13.13,0,0,1,0,.07.1.1,0,0,1-.07,0,3.27,3.27,0,0,0-.35-.3,2.22,2.22,0,0,0-.37-.38.29.29,0,0,1-.1-.12L4.07,20a.51.51,0,0,0-.13-.12.34.34,0,0,1-.12-.12,2.26,2.26,0,0,0-.26-.37.26.26,0,0,1,.19,0l.14,0a.49.49,0,0,1,.17.06l.17.08c.26.08.52.16.78.26a2.11,2.11,0,0,1,.47.19l.14.11a6.15,6.15,0,0,0,.58.46,1.52,1.52,0,0,1,.19.17.54.54,0,0,0,.16.1l.17.09a1.73,1.73,0,0,0,.39.19.08.08,0,0,1,0,.12s0,0,0,0l0,0c0,.19,0,.21.14.08l.13-.18s0,0,0,0h0a.36.36,0,0,0,.17.07l.17,0,.18.08.19.05a2.14,2.14,0,0,1,.35.06,3.62,3.62,0,0,0,.47,0,1,1,0,0,0,.44,0,.83.83,0,0,1,.28-.06h.05a.29.29,0,0,0,.16,0l.54.09a1.41,1.41,0,0,1,.5,0h.34a.36.36,0,0,1,.34-.06c.06,0,.07.05,0,.09a.17.17,0,0,0,0,.05v0l-.4.57a.09.09,0,0,0,0,.11h0s.07,0,.09,0l0,0a2,2,0,0,0,.37-.53s0,0,0,0a.24.24,0,0,0,.09-.14s0,0,.07,0a0,0,0,0,0,0,0,.5.5,0,0,1,.21,0l.2,0h.37a.48.48,0,0,0,.21,0,.59.59,0,0,1,.21,0,1,1,0,0,1,.37.1,1.88,1.88,0,0,0-.31.51.23.23,0,0,0,0,.21c0,.05,0,.06.07,0l.4-.63a.28.28,0,0,0,.06-.13q0,.08.06,0a.05.05,0,0,1,0,0,1.33,1.33,0,0,1,.33-.08,3.29,3.29,0,0,0,.69-.16.63.63,0,0,0,.3-.12.32.32,0,0,1,.29,0,.11.11,0,0,0,0,.13,0,0,0,0,0,0,0,.79.79,0,0,0,.21-.27,1.27,1.27,0,0,1,.13-.22,2.77,2.77,0,0,0,.22-.37l0,0s0,0,0,0a.15.15,0,0,0,.13,0l.25-.07a1.17,1.17,0,0,0,.24-.09,5.11,5.11,0,0,0,.62-.41.28.28,0,0,1,.25,0l-.09.3a.49.49,0,0,0,0,.37c0,.1.08.1.13,0A1.49,1.49,0,0,0,18,20,2,2,0,0,1,18,19.8a.84.84,0,0,0,.07-.24,4.39,4.39,0,0,0,.47-.27,1.14,1.14,0,0,1,.31-.27l0,0,.1-.29,0,0a.09.09,0,0,0,0-.12h0a3.61,3.61,0,0,1-1.05.31,1.41,1.41,0,0,1-.41,0l-.44,0-.1,0a.13.13,0,0,1-.12,0,1,1,0,0,1,.09-.32.37.37,0,0,0,.07-.21s0,0,0,0l-.08,0a5.63,5.63,0,0,0,2.43-.67,3.43,3.43,0,0,0,.83-.65,8.23,8.23,0,0,0,.56-.62c.18-.21.35-.43.51-.65a4.4,4.4,0,0,0,.41-.72,5.66,5.66,0,0,0,.27-.79,2.46,2.46,0,0,0,.21-.7,6.77,6.77,0,0,0,0-.72,3.38,3.38,0,0,0-.15-1.14,1.14,1.14,0,0,1,0-.34C22.13,11.24,22.19,11.22,22.23,11.13Zm-2.55,7.08c-.08-.05-.08,0,0,.18a0,0,0,0,0,.05,0h0a.21.21,0,0,0,.14-.16,0,0,0,0,0,0,0h-.1A.06.06,0,0,1,19.68,18.21Zm-.16.62c0,.09,0,.15,0,.2a.17.17,0,0,0,0,.12c.07.1.12.11.14,0a3.72,3.72,0,0,0,.15-.62,0,0,0,0,0,0,0h0q-.15,0-.15-.09s0,0,0,0,0,0,0,0v0A.71.71,0,0,0,19.52,18.83ZM9.22,22.49a.15.15,0,0,0,.13,0,.17.17,0,0,0,.07-.09l.13-.3A.92.92,0,0,1,9.67,22a.33.33,0,0,0,.07-.25c0-.05,0-.07-.07-.05l-.05,0a2.87,2.87,0,0,0-.43.74A0,0,0,0,0,9.22,22.49Z"/><path class="cls-30" d="M24.18,11.15a.85.85,0,0,1-.1.19s0,0,0,0a1.89,1.89,0,0,1,.1-.17S24.19,11.12,24.18,11.15Z"/><path class="cls-23" d="M24.62,11.14a.11.11,0,0,1,0,.11l0,0-.09,0A.13.13,0,0,1,24.62,11.14Z"/><path class="cls-8" d="M19,11.18a.15.15,0,0,1,.11,0h0a.39.39,0,0,1,.4.21,1.68,1.68,0,0,1,.15.26.33.33,0,0,1,0,.32,0,0,0,0,1,0,0,.07.07,0,0,0-.07,0s0,0,0,0,.07,0,.08,0a.08.08,0,0,1,0,.07c-.05.15-.1.3-.14.45a3.55,3.55,0,0,1-.48.62.37.37,0,0,1-.13.15.6.6,0,0,0-.14.12l-.11.15a1,1,0,0,1-.23.13l-.86.35-.15,0-.23.05a.59.59,0,0,0-.3,0l-.2.06a1.43,1.43,0,0,0-.42.09,0,0,0,0,0,0,0h.05q.11,0,.09.09s0,0,0,0a.11.11,0,0,0,0,.12,0,0,0,0,0,0,0s0,0,.05-.05,0-.06,0-.05,0,0,0,0a2.55,2.55,0,0,1,0,.87,1.32,1.32,0,0,1-.1.76l-.06.07a.18.18,0,0,0,0,.09.28.28,0,0,1-.11.18.83.83,0,0,1-.18.08.9.9,0,0,1-.84-.07.47.47,0,0,1-.19-.24,2.92,2.92,0,0,1-.18-.85c0-.3,0-.57,0-.81l0-.05a.22.22,0,0,0,.06-.22s0,0,0,0a6.47,6.47,0,0,1-.88-.15c-.08,0-.1-.08-.05-.16s0,0,0,0l0,0,0,0h-.05a1.72,1.72,0,0,1-.32-.23.14.14,0,0,1-.1-.12c.06,0,.1,0,.11-.07s0,0,0,0-.11,0-.1.09a.84.84,0,0,1-.16-.33,1.48,1.48,0,0,1,0-.26.5.5,0,0,1,.08-.26,2,2,0,0,0,.14-.25.44.44,0,0,1,.12-.15l.14-.11a.72.72,0,0,1,.35-.14.1.1,0,0,0,.13.1,0,0,0,0,1,0,0h0s0,0-.06,0l0,0h0l0,.08a.11.11,0,0,0,0,.05s.06,0,.06-.06,0,0,0-.07a.62.62,0,0,0,0-.19.25.25,0,0,1,.26,0l0,0a4.46,4.46,0,0,1,.51.07.47.47,0,0,0,.2,0,.56.56,0,0,1,.28.05v.22s0,0,0,0,0,.11,0,.16h0l.12-.06a.45.45,0,0,0,.16,0,.13.13,0,0,1,.2.09.09.09,0,0,1,0,.05,2,2,0,0,0-.18.36,2.69,2.69,0,0,0-.31.61c0,.06,0,.07,0,0a.87.87,0,0,0,.16-.26.51.51,0,0,1,.09-.18,1.08,1.08,0,0,0,.11-.18l.14-.3a.52.52,0,0,1,.18-.23s.05,0,0,0l0,0c-.05.07-.1.06-.16,0a.14.14,0,0,0-.09,0l-.34,0a.52.52,0,0,1-.1-.26.65.65,0,0,1,.31,0,3.81,3.81,0,0,0,.47,0h0a1,1,0,0,1-.11-.46v0a.14.14,0,0,1,0-.15c.06,0,.08.05.06.1s0,.14.13.1a.23.23,0,0,1,.05.22l-.13,0c-.06,0-.05,0,0,.1l0,.06q.06.11.15.06a.18.18,0,0,0,.16,0l.1-.08a6.21,6.21,0,0,1,.66-.28,3.28,3.28,0,0,1,.55-.24l.09-.05A1.91,1.91,0,0,1,19,11.18Zm.13.24c0-.11,0-.13-.12-.05l0,0a.89.89,0,0,0-.39.12l-.18.08a.49.49,0,0,0-.18.11l-.14.1a1.51,1.51,0,0,1-.31.16.92.92,0,0,0-.3.18l0,0-.29.08s-.05,0-.06,0c-.16,0-.21,0-.15,0a.38.38,0,0,0,.25,0l.28-.08a.38.38,0,0,0,.17-.1.19.19,0,0,1,.18-.1A.28.28,0,0,0,18,12l.62-.39a.66.66,0,0,1,.53-.08c.11,0,.13.07.07.16a.73.73,0,0,1-.18.17s0,0,0,0a.29.29,0,0,0,.14,0,.48.48,0,0,0,.1-.12.22.22,0,0,1,.14-.11s0,0,0,0,0,.1-.06.17a0,0,0,0,0,0,.05h0c.05,0,0,.06,0,.13s0,0,0,0a.42.42,0,0,0,.16-.09s0,0,0,0a.66.66,0,0,1,0-.14.2.2,0,0,0,0-.13.25.25,0,0,0-.07-.12s0,0-.05,0a.22.22,0,0,1-.28,0A.08.08,0,0,1,19.17,11.42Zm-.39.33s0,0-.06,0,0,0,0,.05,0,0,.06,0S18.79,11.76,18.78,11.75Zm-.16.62v0h0l0-.08a.19.19,0,0,1,0-.08,1.15,1.15,0,0,1,.12-.25s0,0,0,0a.13.13,0,0,0-.09.07.81.81,0,0,0-.12.33s0,0,0,0A.23.23,0,0,0,18.62,12.37Zm.58-.25s0,0,0-.07-.05-.05-.06,0,0,0,0,.07S19.18,12.13,19.2,12.12Zm.25,0s0,.05,0,.06.07,0,.09-.08a0,0,0,0,0,0,0S19.48,12.06,19.45,12.11Zm-.32.24s.07,0,.13-.08.07-.13,0-.14-.07,0-.12.08-.08.12-.06.14ZM18,12.18s.05,0,.05,0a.06.06,0,0,0,.09,0h.05c.07,0,.07,0,0-.08h0C17.89,12.17,17.84,12.18,18,12.18Zm.22.34a.43.43,0,0,0-.22.2.4.4,0,0,1-.14.15s0,0,0,0a.45.45,0,0,1,.13-.28l0,0a.11.11,0,0,0-.08-.09s0,0,0,0h0a1.22,1.22,0,0,1-.06.26.77.77,0,0,0-.06.2.42.42,0,0,1-.11.18.08.08,0,0,0,0,.05l0,.18a.35.35,0,0,0-.08.16s0,0,0,0a.27.27,0,0,1,0,.16c0,.07,0,.09.08.05s.09-.06.06-.12a.12.12,0,0,1,0-.1.2.2,0,0,0,0-.18.17.17,0,0,1,.11-.09s0,0,0,0a.11.11,0,0,1,0-.15.54.54,0,0,0,.07-.13s0,0,0,0a.14.14,0,0,0,.14-.1c0-.06.08-.1.19-.13a.17.17,0,0,1,.17,0c0,.11,0,.14.06.1a.08.08,0,0,0,0,0,.43.43,0,0,1,.06-.17,0,0,0,0,1,0,0q.21,0,.15.18h0l.13-.1s0,0,0,0h-.11l-.21-.19-.05-.12a.08.08,0,0,0,0-.05c-.05,0-.07,0-.05,0s0,0,0,.05A.62.62,0,0,1,18.17,12.52Zm-.29-.13s0,0,.06,0,0,0,0-.06h0s0,0-.06,0,0,.05,0,.06Zm-1.07,0s0,0,0-.08,0,0,0,0-.07.05,0,.09A0,0,0,0,0,16.81,12.43Zm2,0s0,0,0-.06,0,0-.06,0,0,0,0,.05S18.84,12.42,18.85,12.41Zm-4.38.06a0,0,0,0,0,0-.05h0a0,0,0,0,0,0,0h0a0,0,0,0,0,0,.05h0s.05,0,.05,0Zm.31,0s0,0,0,0a0,0,0,0,0,0,0h0s0,0,0,0h0s0,0,0,0Zm1.13,0a0,0,0,0,0,0,0s0,0,0,0,.16,0,.19-.08,0,0,0,0h0A.23.23,0,0,0,15.91,12.49Zm.69-.06s-.06,0-.11,0h0s-.08.08-.07.09.06,0,.11,0h0S16.61,12.45,16.6,12.43Zm2.37,0s0,0-.06.06a.3.3,0,0,1-.06.15s0,0,0,0a.05.05,0,0,0,0,0,.16.16,0,0,1,.08-.06,0,0,0,0,0,0,0,.28.28,0,0,0,0-.09A0,0,0,0,0,19,12.44Zm-1.89.19a1.94,1.94,0,0,0-.29.53,2,2,0,0,1-.26.5.06.06,0,0,0,0,0c0,.05.05.05.08,0a1.84,1.84,0,0,0,.28-.58,1,1,0,0,1,.09-.21c.06-.13.1-.19.11-.21a.51.51,0,0,1,.21-.17l0,0s0,0,0,0h0A.25.25,0,0,0,17.08,12.63Zm1.67,0s0,0,.05,0,0-.06,0-.07l-.06,0S18.73,12.58,18.75,12.59Zm.51,0a1.46,1.46,0,0,1-.07.19s0,0,0,0a.3.3,0,0,0,.15-.2s0,0,0,0S19.28,12.52,19.26,12.57Zm-4.74.26a0,0,0,0,1,0,0s0,0,0,0a.53.53,0,0,0-.29.28,1,1,0,0,1-.11.21l-.08.06a.16.16,0,0,0-.05.08.28.28,0,0,1-.25.18,0,0,0,0,0,0,0h0a.14.14,0,0,0,.15.09A.22.22,0,0,0,14,13.7a1.87,1.87,0,0,1,.33-.44s0,0,.05,0,.13.08.06.15a3.12,3.12,0,0,0-.31.49A.34.34,0,0,1,14,14s0,0,0,0h0a.11.11,0,0,0,.08,0,.12.12,0,0,0,.09-.06l.1-.13a.53.53,0,0,0,.06-.16.44.44,0,0,1,.12-.19.11.11,0,0,0,0-.14s0,0,0,0a2.5,2.5,0,0,0,.31-.34s0-.05,0-.06h0l-.07.05-.05,0s0,0,0,.08a0,0,0,0,1,0,0q-.12.22-.24,0a.09.09,0,0,1,0-.14.46.46,0,0,0,.17-.17s0,0,0,0,0-.14.05-.17l0,0s0-.06.09,0,.15.07.2,0,0,0,0,0h0a.42.42,0,0,0-.25,0h0c-.07,0-.11,0-.11.07s0,.1-.1.09l-.18,0-.14,0a.17.17,0,0,0-.18.08s0,0,0,0,.22-.08.3,0,0,0,0,0a0,0,0,0,0,0,0s0,0,0,0l.16.05A0,0,0,0,1,14.52,12.83Zm4.64-.25s0,0-.07,0h0a.06.06,0,0,0,0,.07h0a0,0,0,0,0,.07,0h0s.05-.05,0-.07Zm-4,.12a.35.35,0,0,0,.23,0c.05,0,.05,0,0-.07s0,0,0,0a.14.14,0,0,1-.14,0c-.1,0-.15,0-.15.05s0,.21.08.05S15.19,12.69,15.2,12.7Zm1.91.7a1.69,1.69,0,0,0-.15.43.19.19,0,0,0,0,.08c0,.07.06.06.11,0l.12-.46.16-.44v0c0-.06,0-.08.07-.07a.05.05,0,0,0,0,0,.33.33,0,0,0,0-.24s0,0,0,0a.11.11,0,0,0-.11.09l0,0a.24.24,0,0,0-.05.2,0,0,0,0,1,0,.05Zm-.88,0c0,.09,0,.09.06,0a1.59,1.59,0,0,1,.14-.26,1.59,1.59,0,0,0,.13-.22,1.23,1.23,0,0,1,.19-.31s0,0,0,0a.28.28,0,0,0-.21.18,1.57,1.57,0,0,1-.24.45A.25.25,0,0,0,16.23,13.45Zm-2.71-.66c0,.07,0,.12,0,.13a.09.09,0,0,0,.13-.05q.08-.16,0-.21s0,0,0,0Zm5.42.17c-.07,0-.07.08,0,.12h0a.3.3,0,0,0,.05-.37,0,0,0,0,0,0,0h0c-.1.06-.12.11,0,.14a.06.06,0,0,1,0,.09Zm-4.19.56a.11.11,0,0,0,.09-.08l.11-.17.1-.16a.75.75,0,0,1,.25-.25s0,0,0,0h0l-.13.1L15,13a.15.15,0,0,0-.06.09.16.16,0,0,1,0,.07.77.77,0,0,0-.22.36l0,0a1.16,1.16,0,0,0-.29.37l0,.05a.05.05,0,0,0,0,.08h.05a1.15,1.15,0,0,0,.3-.48ZM18,12.88c0,.07,0,.08.05,0l0,0c.07-.05.06-.07,0-.05A0,0,0,0,0,18,12.88Zm-3.19,1a.08.08,0,0,0,.08,0,1.3,1.3,0,0,0,.2-.43c0-.1.1-.13.2-.08s0,0,0,0l0-.08s0,0,0-.05l.2-.39s0,0,0,0h0c-.06,0-.09,0-.09.11a.07.07,0,0,1,0,.05l-.56.82,0,0S14.73,13.88,14.81,13.93Zm-1-1s0,0,0,0-.11-.05-.09,0V13Q13.74,13.08,13.81,12.94Zm4.78,0a1.5,1.5,0,0,0-.17.46.13.13,0,0,0,0,.12s0,0,0,0a.1.1,0,0,0,0-.16.14.14,0,0,1,0-.14,1.72,1.72,0,0,0,.1-.26v0S18.61,12.87,18.59,12.9ZM13.94,13a1.43,1.43,0,0,0-.3.35l-.08.09s0,.1,0,.14h0l.28-.42,0,0c.07,0,.09,0,.07-.11l.1-.07a.08.08,0,0,0,0,0s0,0-.05,0A.12.12,0,0,0,13.94,13Zm1.71,0a.45.45,0,0,1-.14.16.05.05,0,0,0,0,0,1.43,1.43,0,0,1-.14.34.29.29,0,0,1-.12.1,0,0,0,0,0,0,0,.59.59,0,0,1-.12.31,0,0,0,0,0,0,0l0,0a.46.46,0,0,1,.21-.18s0,0,0,0h0a.07.07,0,0,1,0-.08s0,0,0-.05a.18.18,0,0,0,.09-.12.33.33,0,0,1,0-.13.28.28,0,0,1,.14-.12.08.08,0,0,0,0,0,.5.5,0,0,1,.15-.25s0,0,0,0,0,0-.09,0A.23.23,0,0,0,15.65,13Zm2.57,0a.53.53,0,0,0-.12.25c0,.13-.07.26-.1.4s0,0,0,0,0,0,0,0a5.22,5.22,0,0,0,.18-.56l.09-.14s0,0,0,0h0s0,0,0,0Zm-4.65.1s-.05,0-.08,0h0a.06.06,0,0,0,0,.08h0s0,0,.08,0h0a.06.06,0,0,0,0-.08Zm1,.25s0,0,0,0,0,0,0,.05h0s0,0,.05,0h0s0,0,0,0Zm1.5.66c.05,0,.07,0,.06,0v-.1s0,0,0,0a.48.48,0,0,0,.06-.18s0,0,0,0a.27.27,0,0,0-.12.23.32.32,0,0,1,0,.07A.08.08,0,0,0,16.11,14Zm.43-.06c.07,0,.12,0,.17-.13a0,0,0,0,0,0,0h0a.31.31,0,0,0-.24.12,0,0,0,0,0,0,0h.11Zm-2.12.23a0,0,0,0,0,0-.06l-.19-.08a0,0,0,0,0-.06,0h0a0,0,0,0,0,0,.06l.19.08a0,0,0,0,0,.06,0Zm.59.64,0,0s0,0,0,0h0a.8.8,0,0,0,0,.31,0,0,0,0,0,.06,0c0,.18.07.35.11.53a.9.9,0,0,0,.05.37,1.52,1.52,0,0,0,.17.34.46.46,0,0,0,.29.17.42.42,0,0,0,.27,0,.45.45,0,0,0,.22-.16,1.06,1.06,0,0,0,.19-.48s0-.19,0-.5a2.86,2.86,0,0,0-.16-1V14.3s0,0,0,0h0q-.11,0-.15,0a.39.39,0,0,0-.33-.15.14.14,0,0,0-.11,0,.65.65,0,0,0-.45.22.33.33,0,0,0-.06.19.65.65,0,0,0,0,.2C15.08,14.77,15.06,14.81,15,14.83Zm-.49-.63a.51.51,0,0,0,.35,0s0,0,0,0l-.27-.08h0C14.46,14.14,14.45,14.15,14.52,14.2Zm1.87.73v0s0,0,0,0h0s0,0,0-.06,0,0,0,0ZM15,15.44s-.09,0-.11,0a0,0,0,0,0,0,.05c0,.06.06,0,.12,0a0,0,0,0,0,0,0Zm1.37.07a.2.2,0,0,0,0,.13c0,.1.07.14.1.12s0,0,0,0V15.5s0,0,0,0A.07.07,0,0,0,16.38,15.51Zm0,.56a1,1,0,0,0-.05.16c0,.08,0,.11,0,.07s0,0,0,0a.09.09,0,0,1,0-.06.11.11,0,0,0,0-.13S16.36,16,16.35,16.07Z"/><path class="cls-21" d="M23.63,11.23a.46.46,0,0,1,.16.15.08.08,0,0,1,0,.08s-.05,0-.1,0-.08,0-.08-.05v-.18l0,0Z"/><path class="cls-23" d="M24,11.31s0,0,0,0a.56.56,0,0,0-.09.17l0,0a.17.17,0,0,0,.1,0,.21.21,0,0,1-.16.06.09.09,0,0,0,0-.1,0,0,0,0,1,0,0Z"/><path class="cls-4" d="M19.19,11.46a.22.22,0,0,0,.28,0s0,0,.05,0a.25.25,0,0,1,.07.12.2.2,0,0,1,0,.13.66.66,0,0,0,0,.14s0,0,0,0a.42.42,0,0,1-.16.09s0,0,0,0,.06-.11,0-.13,0,0,0-.05h0c.07-.07.09-.13.06-.17s0,0,0,0a.22.22,0,0,0-.14.11.48.48,0,0,1-.1.12.29.29,0,0,1-.14,0s0,0,0,0a.73.73,0,0,0,.18-.17c.06-.09,0-.14-.07-.16a.66.66,0,0,0-.53.08L18,12a.28.28,0,0,1-.15,0,.19.19,0,0,0-.18.1.38.38,0,0,1-.17.1l-.28.08a.38.38,0,0,1-.25,0c-.06,0,0,0,.15,0,0,0,0,0,.06,0l.29-.08,0,0a.92.92,0,0,1,.3-.18,1.51,1.51,0,0,0,.31-.16l.14-.1a.49.49,0,0,1,.18-.11l.18-.08a.89.89,0,0,1,.39-.12l0,0c.08-.08.12-.06.12.05A.08.08,0,0,0,19.19,11.46Z"/><path class="cls-14" d="M16.33,11.61a.14.14,0,0,0,.16,0v.22c-.12,0-.16,0-.13-.1s0-.08-.06-.1A.07.07,0,0,0,16.33,11.61Z"/><ellipse class="cls-16" cx="18.74" cy="11.79" rx="0.05" ry="0.02" transform="translate(-3.15 15.07) rotate(-40.7)"/><ellipse class="cls-4" cx="11.3" cy="11.91" rx="0.08" ry="0.08" transform="translate(-4.79 15.19) rotate(-58)"/><path class="cls-4" d="M18.71,11.94a1.15,1.15,0,0,0-.12.25.19.19,0,0,0,0,.08l0,.08v0h0a.23.23,0,0,1-.12,0s0,0,0,0a.81.81,0,0,1,.12-.33.13.13,0,0,1,.09-.07S18.72,11.92,18.71,11.94Z"/><ellipse class="cls-16" cx="19.17" cy="12.06" rx="0.04" ry="0.06" transform="translate(-3.47 11.32) rotate(-30.3)"/><path class="cls-12" d="M19.57,12.09c0,.05-.05.08-.09.08s-.05,0,0-.06.07-.07.1-.06A0,0,0,0,1,19.57,12.09Z"/><path class="cls-14" d="M16.41,12.07l.13,0a.28.28,0,0,0,.08.2q-.09,0-.15-.06l0-.06C16.36,12.09,16.35,12.06,16.41,12.07Z"/><ellipse class="cls-16" cx="21.76" cy="12.19" rx="0.11" ry="0.05" transform="translate(3.8 29.5) rotate(-73.2)"/><path class="cls-14" d="M11.38,12.14s0,.09,0,.12h0c-.12-.07-.12-.11,0-.13Z"/><ellipse class="cls-16" cx="19.22" cy="12.24" rx="0.14" ry="0.04" transform="translate(-2.53 19.02) rotate(-49.8)"/><path class="cls-16" d="M18.13,12.16c.08.06.08.08,0,.08h-.05a.06.06,0,0,1-.09,0s0,0-.05,0-.06,0,.14,0Z"/><path class="cls-1" d="M8.82,12.37a.31.31,0,0,1,.15.12l0,0a2.18,2.18,0,0,1,.4.34c.07.07.06.11,0,.11l0,0a.12.12,0,0,0,.05.13l0,0s.06,0,.05,0,0,0,0,0a.05.05,0,0,1,.09,0,.15.15,0,0,1,0,.06,2.75,2.75,0,0,1,.24.68.06.06,0,0,1,0,0,.18.18,0,0,0,0,.22s0,0,0,0a1.3,1.3,0,0,1-.17.58.09.09,0,0,0,0,.05.57.57,0,0,1-.12.35l-.17.24a1.77,1.77,0,0,1-.36.3.9.9,0,0,1-.32.17A3.09,3.09,0,0,1,8,15.9h0a.46.46,0,0,1-.26,0A1.56,1.56,0,0,1,7,15.86a1.86,1.86,0,0,1-.42-.25,2.16,2.16,0,0,1-.33-.34L6,14.89a.57.57,0,0,1,0-.29.11.11,0,0,0,0,0,.88.88,0,0,1,0-.29,1.43,1.43,0,0,1,0-.23,2.81,2.81,0,0,1,.37-1,1.56,1.56,0,0,1,.43-.38.72.72,0,0,1,.36-.26,2.77,2.77,0,0,1,.5-.1l.5,0A1.71,1.71,0,0,1,8.82,12.37Zm-1.69.23a.26.26,0,0,0-.14.11,1.63,1.63,0,0,0-.6.88l0,.16a.34.34,0,0,0,0,.26l-.09.44a.18.18,0,0,0,0,.14,0,0,0,0,1,0,.05c0,.08,0,.1.11.08s0,0,0,.07a.07.07,0,0,0,0,.09l.28.4,0,0,.09,0a0,0,0,0,1,0,0,.44.44,0,0,0,.12.15l.15.11a.57.57,0,0,0,.34.1h.11l.2,0a.29.29,0,0,1,.24.06h0c0-.05,0-.07.11-.07a1.16,1.16,0,0,0,.58-.12h0a.24.24,0,0,0,.18-.1s0,0,.05-.06a1.18,1.18,0,0,0,.47-.59l.08-.21c.05-.12.09-.23.13-.34a.11.11,0,0,0,0-.08l0-.33s0,0,0,0a.33.33,0,0,1-.06-.1.72.72,0,0,0-.11-.31.05.05,0,0,1,0,0,.17.17,0,0,0-.05-.14,0,0,0,0,1,0,0,.11.11,0,0,0,0,0,.05.05,0,0,0,0-.05l-.19-.16a.19.19,0,0,1-.11-.22.05.05,0,0,0,0,0H8.86l0,0a.08.08,0,0,0-.11,0,1.73,1.73,0,0,0-.93-.14A1.91,1.91,0,0,0,7.13,12.6Zm2.41,1a0,0,0,0,0,.07,0v0c0-.11,0-.13-.09-.06S9.49,13.57,9.54,13.59Z"/><path class="cls-16" d="M14.3,12.26a.62.62,0,0,1,0,.19s0,.05,0,.07,0,.09-.06.06a.11.11,0,0,1,0-.05l0-.08s0,0,0,0h0s.06,0,.06,0a0,0,0,0,0,0,0h0a.1.1,0,0,1-.13-.1Z"/><path class="cls-16" d="M18.38,12.34l.05.12a.35.35,0,0,0-.16.27.17.17,0,0,0-.17,0,.14.14,0,0,0,.07-.17.62.62,0,0,0,.14-.14s0,0,0-.05,0-.08.05,0A.08.08,0,0,1,18.38,12.34Z"/><ellipse class="cls-16" cx="17.92" cy="12.35" rx="0.06" ry="0.02" transform="translate(-3.56 15.84) rotate(-43.8)"/><path class="cls-16" d="M16.83,12.35s0,.07,0,.08a0,0,0,0,1,0,0s0-.07,0-.09S16.82,12.33,16.83,12.35Z"/><ellipse class="cls-16" cx="18.82" cy="12.37" rx="0.03" ry="0.05" transform="translate(-3.68 13.23) rotate(-35.5)"/><ellipse class="cls-21" cx="21.78" cy="12.49" rx="0.11" ry="0.05" transform="translate(-1.7 21.39) rotate(-50.6)"/><ellipse class="cls-16" cx="14.44" cy="12.45" rx="0.03" ry="0.04" transform="translate(-3.06 20.03) rotate(-64.2)"/><ellipse class="cls-37" cx="14.77" cy="12.46" rx="0.03" ry="0.03" transform="translate(-2.75 4.31) rotate(-15.2)"/><path class="cls-7" d="M15.59,12.42h0a.52.52,0,0,0,.1.26.13.13,0,0,0,0,.11l-.12.06h0c-.06-.05-.07-.11,0-.16s0,0,0,0Z"/><path class="cls-16" d="M16.11,12.48c0,.09-.09.12-.19.08a0,0,0,0,1,0-.06h0a.23.23,0,0,1,.17-.05,0,0,0,0,1,0,0Z"/><ellipse class="cls-12" cx="16.51" cy="12.5" rx="0.11" ry="0.03" transform="translate(-4.17 11.37) rotate(-34)"/><path class="cls-4" d="M17.83,12.43a.11.11,0,0,1,.08.09l0,0a.45.45,0,0,0-.13.28s0,.05,0,0a.4.4,0,0,0,.14-.15.43.43,0,0,1,.22-.2.14.14,0,0,1-.07.17c-.11,0-.17.07-.19.13a.14.14,0,0,1-.14.1s0,0,0,0a.54.54,0,0,1-.07.13.11.11,0,0,0,0,.15s0,0,0,0a.17.17,0,0,0-.11.09l0,0,0-.18a.08.08,0,0,1,0-.05.42.42,0,0,0,.11-.18.77.77,0,0,1,.06-.2,1.22,1.22,0,0,0,.06-.26,0,0,0,0,1,0,0Z"/><path class="cls-3" d="M8.71,12.6a.1.1,0,0,1,0,.12.24.24,0,0,1-.18-.07.09.09,0,0,0-.14,0l-.11,0a1,1,0,0,0-.55,0l-.14-.06a.44.44,0,0,0-.22.12L7,12.91a.2.2,0,0,0-.19.12l-.13.15c0,.1-.09.2-.13.3a.37.37,0,0,1-.12.2.09.09,0,0,1-.08-.09,1.63,1.63,0,0,1,.6-.88c.12.08.17,0,.14-.11a1.91,1.91,0,0,1,.65-.14A1.73,1.73,0,0,1,8.71,12.6Z"/><path class="cls-16" d="M19,12.47a.28.28,0,0,1,0,.09,0,0,0,0,1,0,0,.16.16,0,0,0-.08.06.05.05,0,0,1,0,0s0,0,0,0a.3.3,0,0,0,.06-.15s0-.06.06-.06A0,0,0,0,1,19,12.47Z"/><path class="cls-24" d="M18.43,12.46l.21.19h.11s0,0,0,0l-.13.1h0q.06-.18-.15-.18a0,0,0,0,0,0,0,.43.43,0,0,0-.06.17.08.08,0,0,1,0,0c-.06,0-.09,0-.06-.1A.35.35,0,0,1,18.43,12.46Z"/><path class="cls-25" d="M17.31,12.51l0,0a.51.51,0,0,0-.21.17s0,.08-.11.21a1,1,0,0,0-.09.21,1.84,1.84,0,0,1-.28.58c0,.05-.06.05-.08,0a.06.06,0,0,1,0,0,2,2,0,0,0,.26-.5,1.94,1.94,0,0,1,.29-.53.25.25,0,0,1,.2-.14h0Z"/><ellipse class="cls-16" cx="18.77" cy="12.54" rx="0.05" ry="0.03" transform="translate(-1.39 22.71) rotate(-60.5)"/><path class="cls-7" d="M19.35,12.57a.3.3,0,0,1-.15.2s0,0,0,0a1.46,1.46,0,0,0,.07-.19c0-.05,0-.06.08,0S19.36,12.56,19.35,12.57Z"/><path class="cls-24" d="M14.92,12.59c-.05.08-.12.08-.2,0s-.07,0-.09,0l0,0c-.09,0-.11.09-.05.17s0,0,0,0a.46.46,0,0,1-.17.17.09.09,0,0,0,0,.14q.12.2.24,0a0,0,0,0,0,0,0s0-.07,0-.08l.05,0,.07-.05h0s0,0,0,.06a2.5,2.5,0,0,1-.31.34s0,0,0,0a.11.11,0,0,1,0,.14.44.44,0,0,0-.12.19.53.53,0,0,1-.06.16l-.1.13a.12.12,0,0,1-.09.06A.11.11,0,0,1,14,14a0,0,0,0,1,0,0h0a.34.34,0,0,0,.12-.12,3.12,3.12,0,0,1,.31-.49c.07-.07,0-.12-.06-.15s0,0-.05,0a1.87,1.87,0,0,0-.33.44.22.22,0,0,1-.11.12.14.14,0,0,1-.15-.09,0,0,0,0,1,0,0h0a.28.28,0,0,0,.25-.18.16.16,0,0,1,.05-.08l.08-.06a1,1,0,0,0,.11-.21.53.53,0,0,1,.29-.28s0,0,0,0a0,0,0,0,0,0,0,0,0,0,0,0,0,0l-.16-.05s0,0,0,0a0,0,0,0,1,0,0s0,0,0,0-.18-.12-.3,0,0,0,0,0a.17.17,0,0,1,.18-.08l.14,0,.18,0c.06,0,.1,0,.1-.09s0-.09.11-.07h0a.42.42,0,0,1,.25,0l0,0Z"/><ellipse class="cls-7" cx="19.11" cy="12.61" rx="0.06" ry="0.04" transform="translate(-3.75 11.36) rotate(-30.3)"/><path class="cls-20" d="M8.86,12.65h.06a.05.05,0,0,1,0,0,.19.19,0,0,0,.11.22A.09.09,0,0,1,9,13c-.05,0-.08,0-.09,0l0,0h0s.07,0,.06.08,0,0,0,0a.12.12,0,0,0,0,.1.41.41,0,0,1,0,.1.1.1,0,0,1-.11,0c-.09-.06-.16,0-.2.06a0,0,0,0,0,0,0,.07.07,0,0,1,0,.06.05.05,0,0,1,0,0c-.07.05-.07.09,0,.13a.05.05,0,0,1,0,0,.24.24,0,0,0,.14.17,0,0,0,0,0,0,0h0a.2.2,0,0,0,0-.18s0,0,0,0A.13.13,0,0,0,9,13.62s0,0,0,0H9a.14.14,0,0,1,.07.15s0,0,0,0a.55.55,0,0,0-.23.17s-.06,0-.09,0a.54.54,0,0,0-.24-.21c0-.11,0-.14,0-.1l-.05-.13c0-.08,0-.08,0,0s.05,0,.07.06h0a.3.3,0,0,1,.06-.22.06.06,0,0,0,0,0,.32.32,0,0,1,0-.13s0-.05,0,0,0,0,0,0a.16.16,0,0,1-.07.11l0,0c-.05.07-.06.06,0,0a.05.05,0,0,1,0,0,2.88,2.88,0,0,0,.27-.34l0,0s0,0,.05,0a.08.08,0,0,1,0,0s0-.06-.05-.06a.1.1,0,0,0,0-.12.08.08,0,0,1,.11,0Zm-.18.49c-.06.1-.06.15,0,.15a.12.12,0,0,0,.09,0s0-.08,0-.13a0,0,0,0,0-.07,0Z"/><path class="cls-25" d="M15.24,12.62a.14.14,0,0,0,.14,0s0,0,0,0,.06,0,0,.07a.35.35,0,0,1-.23,0s0,0,0,0-.09.14-.08-.05S15.14,12.57,15.24,12.62Z"/><path class="cls-13" d="M7.13,12.6c0,.15,0,.19-.14.11A.26.26,0,0,1,7.13,12.6Z"/><path class="cls-2" d="M17.49,12.63a.33.33,0,0,1,0,.24.05.05,0,0,1,0,0c-.06,0-.08,0-.07.07v0l-.16.44a.08.08,0,0,1-.09,0l.16-.42a0,0,0,0,0,0-.05.24.24,0,0,1,.05-.2l0,0a.11.11,0,0,1,.11-.09S17.48,12.61,17.49,12.63Z"/><path class="cls-4" d="M7.57,12.61a.17.17,0,0,0-.1.12.58.58,0,0,1,0,.14L7.36,13a.55.55,0,0,1-.26.3h0s0,0-.06,0-.07.06-.15,0,0,0-.07,0v0a4.73,4.73,0,0,0-.2.5,1.08,1.08,0,0,1-.16.3s0,0,0,0h0a.11.11,0,0,1,0-.1.25.25,0,0,0,.1-.24l0-.1a.37.37,0,0,0,.12-.2c0-.1.08-.2.13-.3a.17.17,0,0,1,.21.05s0,0,.05,0h.14l0,0a.73.73,0,0,0,.19-.47A.44.44,0,0,1,7.57,12.61Z"/><path class="cls-38" d="M7.57,12.61l.14.06a.12.12,0,0,0,.1,0s0,0,0,0,0,0,0,0a.19.19,0,0,0,0,.15.37.37,0,0,1-.16.19s0,0,0,0l-.34.67a1,1,0,0,1-.24.52s0,0,0,0-.07,0-.07.08l.06.14H7L7,14.49a.28.28,0,0,0,0-.09s0,0,0,0a1,1,0,0,0,.17-.28l.27-.55.08-.13a.43.43,0,0,0,0-.16A1.08,1.08,0,0,1,7.81,13l.25.05a0,0,0,0,0,0,0h0a.21.21,0,0,1,.07-.2.08.08,0,0,0,0,0c0-.08,0-.08-.07,0a.87.87,0,0,0-.21.17H7.83l0,0a.36.36,0,0,1,.28-.25h.05a.09.09,0,0,0,.12,0l.11,0A.29.29,0,0,1,8.3,13a.41.41,0,0,0-.12.2,0,0,0,0,0,0,0s0,0,0,0l.27-.42a.2.2,0,0,0,0-.11.24.24,0,0,0,.18.07c.06,0,.08,0,.05.06a.08.08,0,0,0,0,0s0,0-.05,0l0,0a2.88,2.88,0,0,1-.27.34.05.05,0,0,0,0,0c0,.09,0,.1,0,0l0,0a.16.16,0,0,0,.07-.11s0,0,0,0,0,0,0,0a.32.32,0,0,0,0,.13.06.06,0,0,1,0,0,.3.3,0,0,0-.06.22s0,0,0,0h0s-.05,0-.07-.06-.06,0,0,0l.05.13a7.68,7.68,0,0,0-.77,1.67.14.14,0,0,1-.11.09s0,0,0,0a.87.87,0,0,0,.41.07.28.28,0,0,0,.24-.22,0,0,0,0,0,0,0,.14.14,0,0,1,0-.14L8.24,15c.17-.37.35-.73.55-1.08A.55.55,0,0,1,9,13.79s0,0,0,0A.14.14,0,0,0,9,13.6H9a.13.13,0,0,1-.17.07s0,0,0,0a.2.2,0,0,1,0,.18s0,0,0,0h0a.24.24,0,0,1-.14-.17.05.05,0,0,0,0,0c-.07,0-.07-.08,0-.13a.05.05,0,0,0,0,0,.07.07,0,0,0,0-.06,0,0,0,0,1,0,0c0-.1.11-.12.2-.06a.23.23,0,0,0,.07.1h0A.68.68,0,0,0,9,13.25a.13.13,0,0,1,.11-.08l0,0h0A.28.28,0,0,0,9,13a.09.09,0,0,0,.09-.05l.19.16a.05.05,0,0,1,0,.05.11.11,0,0,1,0,0,0,0,0,0,0,0,0,.17.17,0,0,1,.05.14.05.05,0,0,0,0,0,.72.72,0,0,1,.11.31.33.33,0,0,0,.06.1s0,0,0,0l0,.33a.11.11,0,0,1,0,.08c0,.11-.08.22-.13.34l-.08.21a1.18,1.18,0,0,1-.47.59s0,0-.05.06a.24.24,0,0,1-.18.1h0a1.16,1.16,0,0,1-.58.12c-.06,0-.1,0-.11.07h0a.29.29,0,0,0-.24-.06l-.2,0H7.34a.57.57,0,0,1-.34-.1l-.15-.11a.44.44,0,0,1-.12-.15,0,0,0,0,0,0,0l-.09,0,0,0-.28-.4a.07.07,0,0,1,0-.09s0,0,0-.07a.12.12,0,0,1,0-.19s0-.07,0-.08L6.29,14a.07.07,0,0,0,.06,0,.11.11,0,0,0,0,.1s0,0,0,0h0a1.08,1.08,0,0,0,.16-.3,4.73,4.73,0,0,1,.2-.5s0,0,.06,0h0c.08.1.13.11.15,0s0,0,.06,0h0a.55.55,0,0,0,.26-.3l.06-.13a.58.58,0,0,0,0-.14A.17.17,0,0,1,7.57,12.61Zm1.61.94c.06,0,.1,0,.11,0a.15.15,0,0,0,0-.07s0-.06,0-.06a.09.09,0,0,0-.07,0,.42.42,0,0,0,0,.1S9.16,13.54,9.18,13.55Zm-1.37,0a.15.15,0,0,0-.14.09s0,0,0,0l.12,0c.09,0,.1,0,0-.05Zm1.46.31-.1,0h0L9,14l-.1.1a.2.2,0,0,0-.06.18v.12c-.1.19-.2.39-.31.58s0,.26,0,0l0,0a1.9,1.9,0,0,0,.3-.49.26.26,0,0,0,0-.13c0-.14.07-.21.23-.23s0,0,0,0,0-.08,0-.14h0v0l.06.13c0,.09,0,.14-.07.15l0,0c-.06.06-.05.08,0,.06l.05,0c.1-.07.13,0,.08.08a1.91,1.91,0,0,0-.44.73c0,.08,0,.09,0,0a3.85,3.85,0,0,0,.41-.71.5.5,0,0,0,0-.46s0-.05,0-.07a.13.13,0,0,0,.07-.16.2.2,0,0,1,0-.07c0-.07,0-.08-.07,0a.06.06,0,0,0,0,0A.27.27,0,0,1,9.27,13.9Zm-2.46-.08a.12.12,0,0,0,.08-.09c0-.09,0-.12-.07-.08a.1.1,0,0,0-.05.06,1.18,1.18,0,0,0-.09.23s0,.05,0,.05,0,0,0,0a.17.17,0,0,0,0-.12S6.8,13.82,6.81,13.82Zm.65,0h0l0-.13s0,0,0,0h0s0,0,0,0a.09.09,0,0,1,0,.06S7.41,13.82,7.46,13.85Zm.62-.16v0H8l-.5,1h0l0,0a0,0,0,0,0,0,0Zm-.72.78s0-.08,0-.13-.1-.07-.12-.05h0s0,.08,0,.13.1.07.12.05Zm-.94-.08s0,0,0,0,0,0,0,0a.11.11,0,0,0,0,.14l.1.12s0,0,0,0a.09.09,0,0,1,0-.1.12.12,0,0,1,.07-.07c.06,0,.09-.07.1-.11s0-.05,0,0a.25.25,0,0,1-.18.08Zm.53.34a.22.22,0,0,0-.32.09.92.92,0,0,1-.14.19h0v0h0a.11.11,0,0,1,.18,0l0,0h.11s.06,0,0,0l0,0A.24.24,0,0,1,6.65,15a0,0,0,0,1,0,0l.1-.17s0,0,0,0,.25,0,.29-.12,0,0,0,0a.22.22,0,0,0-.07.09Zm.55.2c.1,0,.11,0,0-.07l0,0c0-.11,0-.08,0,.08S7.49,14.92,7.5,14.93ZM7,15.34c0,.05,0,.05,0,0s-.07-.06-.1,0,0,0,0,0l.18.13s0,0,0,0,0-.22.05-.28,0,0,0,0a.07.07,0,0,1,0-.06c0-.1,0-.11,0,0v0A.27.27,0,0,0,7,15.34Z"/><path class="cls-23" d="M8.26,12.64a.09.09,0,0,1-.12,0H8.09a.36.36,0,0,0-.28.25h0a.19.19,0,0,1,0-.15s0,0,0,0,0,0,0,0a.12.12,0,0,1-.1,0A1,1,0,0,1,8.26,12.64Z"/><path class="cls-24" d="M8.51,12.65a.2.2,0,0,1,0,.11l-.27.42s0,0,0,0a0,0,0,0,1,0,0A.41.41,0,0,1,8.3,13a.29.29,0,0,0,.07-.29A.09.09,0,0,1,8.51,12.65Z"/><path class="cls-6" d="M16.75,12.65a1.23,1.23,0,0,0-.19.31,1.59,1.59,0,0,1-.13.22,1.59,1.59,0,0,0-.14.26h-.06a.25.25,0,0,1,.06-.19,1.57,1.57,0,0,0,.24-.45.28.28,0,0,1,.21-.18S16.76,12.63,16.75,12.65Z"/><path class="cls-1" d="M13.66,12.66q.08,0,0,.21a.09.09,0,0,1-.13.05s0-.06,0-.13l.1-.12S13.65,12.65,13.66,12.66Z"/><path class="cls-5" d="M16.05,12.65a.14.14,0,0,1,.09,0c.06.07.11.08.16,0l0,0s0,0,0,0a.52.52,0,0,0-.18.23l-.14.3a1.08,1.08,0,0,1-.11.18.51.51,0,0,0-.09.18.87.87,0,0,1-.16.26c-.05,0-.06,0,0,0a2.69,2.69,0,0,1,.31-.61,2,2,0,0,1,.18-.36.09.09,0,0,0,0-.05.13.13,0,0,0-.2-.09.45.45,0,0,1-.16,0,.13.13,0,0,1,0-.11Z"/><path class="cls-16" d="M19,12.71a.3.3,0,0,1-.05.37h0c-.06,0-.06-.08,0-.12l0,0a.06.06,0,0,0,0-.09c-.07,0-.05-.08,0-.14s0,0,0,0Z"/><path class="cls-13" d="M7.35,12.73a.73.73,0,0,1-.19.47l0,0H7s0,0-.05,0a.17.17,0,0,0-.21-.05L6.85,13c0,.09,0,.1,0,0s0,0,0,0S7,13,7,12.91Z"/><path class="cls-2" d="M8.15,12.83a.21.21,0,0,0-.07.2s0,0,0,0h0L7.81,13a.08.08,0,0,0,0-.05h.06a.87.87,0,0,1,.21-.17c.06-.06.08-.06.07,0A.08.08,0,0,1,8.15,12.83Z"/><path class="cls-24" d="M15.29,12.82c.05,0,.05,0,0,0a.75.75,0,0,0-.25.25l-.1.16-.11.17a.11.11,0,0,1-.09.08l0,0a1.15,1.15,0,0,1-.3.48h-.05a.05.05,0,0,1,0-.08l0-.05a1.16,1.16,0,0,1,.29-.37l0,0a.77.77,0,0,1,.22-.36.16.16,0,0,0,0-.07A.15.15,0,0,1,15,13l.07-.05.13-.1Z"/><path class="cls-16" d="M18.05,12.91c0,.05-.06,0-.05,0a0,0,0,0,1,.05-.05c.1,0,.11,0,0,.05Z"/><path class="cls-2" d="M15.47,12.86l-.2.39s0,0,0,.05l0,.08s0,0,0,0-.16,0-.2.08a1.3,1.3,0,0,1-.2.43.08.08,0,0,1-.08,0c-.08,0-.1-.07-.05-.09l0,0,.56-.82a.07.07,0,0,0,0-.05c0-.07,0-.11.09-.11h0Z"/><path class="cls-16" d="M13.81,12.9s0,0,0,0-.08.11-.09.06v-.06C13.7,12.85,13.73,12.84,13.81,12.9Z"/><path class="cls-24" d="M18.63,12.93a1.72,1.72,0,0,1-.1.26.14.14,0,0,0,0,.14.1.1,0,0,1,0,.16s0,0,0,0a.13.13,0,0,1,0-.12,1.5,1.5,0,0,1,.17-.46s0,0,0,0Z"/><path class="cls-5" d="M7,12.91S7,13,6.89,13s0,0,0,0,0,0,0,0A.2.2,0,0,1,7,12.91Z"/><path class="cls-4" d="M14.08,12.91s.05,0,.05,0a.08.08,0,0,1,0,0l-.1.07s0,0-.07,0A.12.12,0,0,1,14.08,12.91Z"/><path class="cls-12" d="M7.79,12.92h0l0,0a.08.08,0,0,1,0,.05,1.08,1.08,0,0,0-.18.24.43.43,0,0,1,0,.16l-.08.13-.27.55a1,1,0,0,1-.17.28s0,0,0,0a.28.28,0,0,1,0,.09c0-.09-.07-.11-.14-.07s0-.08.07-.08,0,0,0,0a1,1,0,0,0,.24-.52l.34-.67s0,0,0,0A.37.37,0,0,0,7.79,12.92Z"/><path class="cls-5" d="M15.79,13a.5.5,0,0,0-.15.25.08.08,0,0,1,0,0,.28.28,0,0,0-.14.12.33.33,0,0,0,0,.13.18.18,0,0,1-.09.12s0,0,0,.05a.07.07,0,0,0,0,.08s0,0,0,0h0a.46.46,0,0,0-.21.18l0,0a0,0,0,0,1,0,0,.59.59,0,0,0,.12-.31,0,0,0,0,1,0,0,.29.29,0,0,0,.12-.1,1.43,1.43,0,0,0,.14-.34.05.05,0,0,1,0,0,.45.45,0,0,0,.14-.16.23.23,0,0,1,.07-.07q.09,0,.09,0S15.81,13,15.79,13Z"/><path class="cls-18" d="M18.31,13l-.09.14a5.22,5.22,0,0,1-.18.56s0,0,0,0,0,0,0,0,.07-.27.1-.4a.53.53,0,0,1,.12-.25l0,0s0,0,0,0a0,0,0,0,1,0,0Z"/><path class="cls-4" d="M9,13a.28.28,0,0,1,.17.17s0,0,0,0h0a.13.13,0,0,0-.11.08.68.68,0,0,1-.14.23h0a.23.23,0,0,1-.07-.1.1.1,0,0,0,.11,0,.41.41,0,0,0,0-.1.12.12,0,0,1,0-.1s0,0,0,0,0-.07-.06-.08,0,0,0,0h0S8.91,13,9,13Z"/><path class="cls-6" d="M13.94,13s.05,0,.07,0,0,.11-.07.11l0,0-.28.42h0c-.06,0-.07-.09,0-.14l.08-.09A1.43,1.43,0,0,1,13.94,13Z"/><ellipse class="cls-16" cx="11.4" cy="13.13" rx="0.03" ry="0.05" transform="translate(-5.32 8.36) rotate(-33.1)"/><ellipse class="cls-7" cx="13.53" cy="13.16" rx="0.06" ry="0.05" transform="translate(-5.32 12.3) rotate(-41.6)"/><path class="cls-38" d="M8.76,13.13s.05.09,0,.13a.12.12,0,0,1-.09,0c-.07,0-.07,0,0-.15a0,0,0,0,1,.07,0Z"/><path class="cls-16" d="M11.52,13.33c.05.07,0,.11,0,.11s-.05,0,0-.06h0C11.47,13.29,11.49,13.28,11.52,13.33Z"/><path class="cls-5" d="M17.52,13.32l0,0a.2.2,0,0,1,0,.18.12.12,0,0,0,0,.1q0,.09-.06.12c-.09,0-.12,0-.08-.05a.27.27,0,0,0,0-.16s0,0,0,0A.35.35,0,0,1,17.52,13.32Z"/><ellipse class="cls-4" cx="14.57" cy="13.38" rx="0.04" ry="0.03" transform="translate(-4.8 9.35) rotate(-30.8)"/><path class="cls-4" d="M9.26,13.38s.05,0,0,.06a.15.15,0,0,1,0,.07c0,.05,0,.06-.11,0s0,0,0,0a.42.42,0,0,1,0-.1A.09.09,0,0,1,9.26,13.38Z"/><path class="cls-4" d="M17.11,13.4a.08.08,0,0,0,.09,0l-.12.46c0,.07-.08.08-.11,0a.19.19,0,0,1,0-.08A1.69,1.69,0,0,1,17.11,13.4Z"/><path class="cls-4" d="M16.29,13.44c0,.1,0,.1-.06,0Z"/><path class="cls-37" d="M9.62,13.55a.08.08,0,0,1-.07,0h0s0-.06,0-.1S9.63,13.44,9.62,13.55Z"/><path class="cls-3" d="M19,13.55a4.83,4.83,0,0,1-.95.58l-.31.12a2.1,2.1,0,0,0-.3.15c-.07,0-.09,0-.05-.09a.23.23,0,0,1,.07-.08l.16-.11.86-.35a1,1,0,0,0,.23-.13.46.46,0,0,0,.23-.12s.06,0,.08,0A0,0,0,0,1,19,13.55Z"/><path class="cls-14" d="M11.38,13.58a.07.07,0,0,0,0,.09l.06,0a.36.36,0,0,1,.07.1s0,0,0,0,0,0,0,0,0-.08.08-.07,0,0,0,0a.13.13,0,0,1-.09.1l0,0-.08.09s0,0,0,0l0,.05a2.52,2.52,0,0,0,.17.72c.06.15.17.37.32.65a5,5,0,0,0,.77,1,5.76,5.76,0,0,0,1.37,1.11l.45.26a1.17,1.17,0,0,0,.52.12,4.9,4.9,0,0,1,.77.07l.18.05.17.08a.23.23,0,0,0,.21,0,.82.82,0,0,1,.51,0,.12.12,0,0,0-.11.08.79.79,0,0,1-.12.3.21.21,0,0,0,0,.18,0,0,0,0,1,0,0h0a.1.1,0,0,0-.09.06.11.11,0,0,1-.11,0h0l-.27-.05L15,18.65a2.42,2.42,0,0,1-.51-.14.6.6,0,0,1-.31-.15,3,3,0,0,1-.43-.24l-.34-.24a6.91,6.91,0,0,1-1-.84,1.17,1.17,0,0,0-.3-.19l0,0a.52.52,0,0,0-.1-.27l-.15-.26a1.58,1.58,0,0,1-.1-.29,7.42,7.42,0,0,0-.44-1.1,3.29,3.29,0,0,1-.15-.6,1.44,1.44,0,0,1,0-.48.2.2,0,0,1,.13-.21h0s.05,0,.07,0S11.36,13.56,11.38,13.58Z"/><path class="cls-13" d="M7.85,13.6c.06,0,.05.05,0,.05l-.12,0s0,0,0,0a.15.15,0,0,1,.14-.09Z"/><path class="cls-9" d="M6.39,13.59a.09.09,0,0,0,.08.09l0,.1a.11.11,0,0,0-.11,0Z"/><path class="cls-24" d="M9.37,13.76a.13.13,0,0,1-.07.16l0,0a.27.27,0,0,0,0-.2.06.06,0,0,1,0,0c0-.05.06,0,.07,0A.2.2,0,0,0,9.37,13.76Z"/><path class="cls-24" d="M6.89,13.73a.12.12,0,0,1-.08.09s0,0,0,0a.17.17,0,0,1,0,.12s0,0,0,0,0,0,0-.05a1.18,1.18,0,0,1,.09-.23.1.1,0,0,1,.05-.06C6.88,13.61,6.9,13.64,6.89,13.73Z"/><path class="cls-12" d="M8.46,13.77,8.31,14a3.38,3.38,0,0,1-.27.58c-.11.27-.21.52-.3.78,0,.07,0,.12.08.14s.22,0,.23-.16a.09.09,0,0,1,0-.05.37.37,0,0,0,0-.23.08.08,0,0,1,0,0,.2.2,0,0,0,.08-.1c.1-.21.2-.43.29-.65A2.83,2.83,0,0,0,8.7,14s.06,0,.09,0c-.2.35-.38.71-.55,1.08l-.05.08a.14.14,0,0,0,0,.14,0,0,0,0,1,0,0,.28.28,0,0,1-.24.22.87.87,0,0,1-.41-.07s0,0,0,0a.14.14,0,0,0,.11-.09,7.68,7.68,0,0,1,.77-1.67C8.5,13.63,8.51,13.66,8.46,13.77Z"/><path class="cls-7" d="M16.2,13.64s0,0,0,0a.48.48,0,0,1-.06.18s0,0,0,0V14c0,.07,0,.08-.06,0a.08.08,0,0,1,0-.08.32.32,0,0,0,0-.07A.27.27,0,0,1,16.2,13.64Z"/><path class="cls-14" d="M13.52,13.72s0,.07-.11.07v0c0-.11,0-.14.1-.09S13.52,13.7,13.52,13.72Z"/><path class="cls-2" d="M7.54,13.71l0,.13h0s0-.06,0-.09a.09.09,0,0,0,0-.06s0,0,0,0,0,0,0,0Z"/><rect class="cls-12" x="7.22" y="14.15" width="1.15" height="0.06" rx="0.01" transform="translate(-8.37 14.86) rotate(-63.6)"/><path class="cls-3" d="M6.34,13.75a.11.11,0,0,1,.11,0,.25.25,0,0,1-.1.24.07.07,0,0,1-.06,0A.34.34,0,0,1,6.34,13.75Z"/><path class="cls-10" d="M8.46,13.77A.54.54,0,0,1,8.7,14a2.83,2.83,0,0,1-.2.28c-.09.22-.19.44-.29.65a.2.2,0,0,1-.08.1.08.08,0,0,0,0,0,.37.37,0,0,1,0,.23.09.09,0,0,0,0,.05c0,.14-.08.19-.23.16s-.11-.07-.08-.14c.09-.26.19-.51.3-.78A3.38,3.38,0,0,0,8.31,14Zm-.09.36c.11,0,.12,0,0,0h0S8.35,14.12,8.37,14.13Z"/><path class="cls-24" d="M16.71,13.83c-.05.11-.1.15-.17.13h-.1a0,0,0,0,1,0,0h0a.31.31,0,0,1,.24-.12s0,0,0,0Z"/><path class="cls-20" d="M9.17,13.87l.1,0,0,0s0,0,0,.07a.5.5,0,0,1,0,.46v0c0-.12,0-.15-.08-.08l-.05,0c-.09,0-.1,0,0-.06l0,0c.09,0,.11-.06.07-.15L9.19,14s0,0,0,0h0c-.06.06-.07.11,0,.14s0,0,0,0-.23.09-.23.23l0,0v-.12a.2.2,0,0,1,.06-.18L9,14l.1-.11Z"/><rect class="cls-24" x="14.23" y="13.98" width="0.09" height="0.3" rx="0.05" transform="translate(-4.36 21.63) rotate(-66.6)"/><path class="cls-20" d="M8.38,14.1c.11.05.1.06,0,0s0,0,0,0Z"/><path class="cls-39" d="M15.55,14.09c0,.05,0,.09,0,.14a.16.16,0,0,0,.11.21l0,0c0,.1,0,.12-.05.06s-.12,0-.09.06a1.52,1.52,0,0,1,.06.42.09.09,0,0,0,0,.05.32.32,0,0,1,.06.27,1,1,0,0,0,0,.24s0,0,0,0,0,0,0,0a.13.13,0,0,0,0-.06,1.55,1.55,0,0,1,0-.48c0-.23,0-.49-.06-.77a.64.64,0,0,0,0-.07c0-.06,0-.1,0-.12a.39.39,0,0,1,.33.15s.08.05.15,0,0,0,0,0h0v.08a2.86,2.86,0,0,1,.16,1c0,.31,0,.48,0,.5a1.06,1.06,0,0,1-.19.48.45.45,0,0,1-.22.16.42.42,0,0,1-.27,0,.46.46,0,0,1-.29-.17,1.52,1.52,0,0,1-.17-.34.9.9,0,0,1-.05-.37c0-.18-.07-.35-.11-.53L15,15l0,0a.12.12,0,0,1,0-.14c.05,0,.07-.06.05-.13a.65.65,0,0,1,0-.2.33.33,0,0,1,.06-.19A.65.65,0,0,1,15.55,14.09Z"/><path class="cls-16" d="M15.55,14.09a.14.14,0,0,1,.11,0s0,.06,0,.12a.64.64,0,0,1,0,.07c0,.28,0,.54.06.77a1.55,1.55,0,0,0,0,.48.13.13,0,0,1,0,.06s0,0,0,0,0,0,0,0a1,1,0,0,1,0-.24.32.32,0,0,0-.06-.27.09.09,0,0,1,0-.05,1.52,1.52,0,0,0-.06-.42q0-.16.09-.06c.07.06.09,0,.05-.06l0,0a.16.16,0,0,1-.11-.21C15.52,14.18,15.54,14.14,15.55,14.09Z"/><path class="cls-4" d="M14.6,14.15l.27.08s0,0,0,0a.51.51,0,0,1-.35,0c-.07,0-.06-.06,0,0Z"/><ellipse class="cls-5" cx="7.28" cy="14.38" rx="0.05" ry="0.12" transform="translate(-7.83 8.77) rotate(-42.8)"/><path class="cls-4" d="M6.67,14.34s0,.07-.1.11a.12.12,0,0,0-.07.07.09.09,0,0,0,0,.1c0,.05,0,.05,0,0l-.1-.12a.11.11,0,0,1,0-.14s0,0,0,0,0,0,0,0l0,0a.25.25,0,0,0,.18-.08S6.69,14.29,6.67,14.34Z"/><path class="cls-11" d="M17.11,14.32l.16,0c.05,0,.06,0,0,.07a.21.21,0,0,1-.2.07,2.48,2.48,0,0,1-.54.06l-.05,0c0-.07,0-.12.08-.14l.36-.06Z"/><path class="cls-4" d="M8.89,14.36a.26.26,0,0,1,0,.13,1.9,1.9,0,0,1-.3.49l0,0c-.06.22-.07.21,0,0s.21-.39.31-.58Z"/><path class="cls-5" d="M7,14.49,7,14.57H7l-.06-.14C7,14.38,7,14.4,7,14.49Z"/><path class="cls-12" d="M9.31,14.41v0a3.85,3.85,0,0,1-.41.71c-.05.07-.06.06,0,0A1.91,1.91,0,0,1,9.31,14.41Z"/><path class="cls-4" d="M6.2,14.45c.07,0,.08,0,0,.08a.12.12,0,0,0,0,.19c-.09,0-.13,0-.11-.08a0,0,0,0,0,0-.05A.18.18,0,0,1,6.2,14.45Z"/><path class="cls-16" d="M11.93,14.57s0,0,0,0,0,0,0,0S11.9,14.45,11.93,14.57Z"/><path class="cls-25" d="M7.07,14.64c0,.15-.14.19-.29.12s0,0,0,0l-.1.17a0,0,0,0,0,0,0,.24.24,0,0,0,.18.07l0,0s0,.06,0,0H6.73l0,0a.11.11,0,0,0-.18,0h0v0h0a.92.92,0,0,0,.14-.19A.22.22,0,0,1,7,14.73H7a.22.22,0,0,1,.07-.09S7.07,14.63,7.07,14.64Z"/><path class="cls-22" d="M7.54,14.86c.07.06.06.08,0,.07s0,0,0,0,0-.19,0-.08Z"/><path class="cls-19" d="M15,14.81l0,0A.12.12,0,0,0,15,15l0,0,0,.16a0,0,0,0,1-.06,0,.8.8,0,0,1,0-.31l0,0Z"/><path class="cls-19" d="M16.43,14.92s0,0,0,.06,0,0,0,0h0v0s0,0,0,0Z"/><path class="cls-20" d="M7.18,15.09a.07.07,0,0,0,0,.06s0,0,0,0-.1.15-.05.28,0,0,0,0l-.18-.13s0,0,0,0,.06,0,.1,0,0,0,0,0a.27.27,0,0,1,.09-.26v0C7.18,15,7.2,15,7.18,15.09Z"/><path class="cls-20" d="M15,15.44s0,0,0,0h0c-.06.06-.09.07-.12,0a0,0,0,0,1,0-.05S15,15.4,15,15.44Z"/><path class="cls-23" d="M16.49,15.5v.22s0,0,0,0-.07,0-.1-.12a.2.2,0,0,1,0-.13.07.07,0,0,1,.09,0S16.49,15.48,16.49,15.5Z"/><path class="cls-19" d="M16.41,16.07a.11.11,0,0,1,0,.13.09.09,0,0,0,0,.06s0,0,0,0-.06,0,0-.07a1,1,0,0,1,.05-.16S16.38,16,16.41,16.07Z"/><path class="cls-16" d="M22.86,16.56a3.88,3.88,0,0,1-.33.77,1.39,1.39,0,0,0-.15.3,2,2,0,0,1-.11.26,15.52,15.52,0,0,1-.86,1.31l0,0c0,.05,0,.08.05.1a2.59,2.59,0,0,1-.41.51,5.76,5.76,0,0,0-.55.56.63.63,0,0,1-.12.11c-.12.1-.14.15,0,.16s0,0,0,0h0a.15.15,0,0,1-.1.12s0,0,0,0-.12.08-.2,0,0,0,0,0a1.82,1.82,0,0,0-.4.39l0,.06a.29.29,0,0,1-.22.17h-.06a0,0,0,0,0,0,0,.54.54,0,0,1-.19.14.69.69,0,0,0-.43.31.05.05,0,0,1,0,0,.65.65,0,0,0-.37.16.24.24,0,0,1-.17.07.05.05,0,0,0,0,0,.17.17,0,0,1-.1.07l-.08,0a1.09,1.09,0,0,0-.3.18.51.51,0,0,1-.16.09,2.18,2.18,0,0,0-.58.26l-.48.19a3.73,3.73,0,0,1-.48.18,13,13,0,0,1-1.75.37,2.57,2.57,0,0,1-.62.08l-.77.06a2.43,2.43,0,0,1-.53,0l-.3-.05a1.13,1.13,0,0,0-.41,0,.62.62,0,0,1-.23,0c-.22,0-.43-.08-.65-.13A10.54,10.54,0,0,1,9,23.18H9a.36.36,0,0,1-.21,0l-.13-.07-1.24-.51c-.36-.18-.71-.38-1-.59L6,21.75a2.3,2.3,0,0,1-.31-.22c-.19-.15-.37-.29-.57-.43A1.63,1.63,0,0,1,5,20.9a.1.1,0,0,0,.07,0,.13.13,0,0,0,0-.07,2.25,2.25,0,0,0-.43-.38s0,0,0-.06l0,0a3.76,3.76,0,0,1,.37.25,2,2,0,0,0,.18.15l.12.06a19,19,0,0,0,3.22,1.65,2.07,2.07,0,0,0,.48.14,4.16,4.16,0,0,1,.59.13,4.8,4.8,0,0,0,1.25.14,1.14,1.14,0,0,0,.37,0,1.24,1.24,0,0,1,.37.06c.39,0,.78,0,1.17,0a5.68,5.68,0,0,1,.59,0c.25,0,.44,0,.59,0a11.08,11.08,0,0,0,1.15-.21l1.19-.31a.51.51,0,0,0,.21-.1.48.48,0,0,0,.43-.18.46.46,0,0,1,.24-.14l.14-.05a2.41,2.41,0,0,0,.7-.39,9.42,9.42,0,0,0,1.08-.8,3.75,3.75,0,0,0,.51-.38l.05,0a.15.15,0,0,0,.07-.05,1.61,1.61,0,0,1,.36-.31l.05,0a.1.1,0,0,0,0-.06l0,0,.48-.46A6.81,6.81,0,0,0,21.92,18c0-.05.13-.17.29-.36l.1-.15a.36.36,0,0,1,.07-.1l.08-.09a3.57,3.57,0,0,0,.33-.75,0,0,0,0,1,0,0C22.87,16.47,22.88,16.49,22.86,16.56ZM18,21.77a2.26,2.26,0,0,0-.58.34l0,0q0,.09.06.06l.06,0a.36.36,0,0,1,.14-.11l.15-.09a.5.5,0,0,1,.2-.08s0,0,0,0,0-.09.07-.08h.27s0,0,0,0l0,0-.15,0a.17.17,0,0,0-.19.06Zm-10.62.5a1.75,1.75,0,0,0,.33.15l.17.08a.3.3,0,0,0,.23,0c.09,0,.09-.06,0-.08a2.82,2.82,0,0,1-.7-.27h0S7.35,22.24,7.39,22.27Z"/><path class="cls-18" d="M12,16.9c.07,0,.08,0,0,.08a3,3,0,0,0-.31.54.54.54,0,0,1-.2.31l-.07,0c-.05,0-.06,0,0-.1a.48.48,0,0,0,.13-.23,3.83,3.83,0,0,1,.22-.56q0-.09.12-.06A.21.21,0,0,0,12,16.9Z"/><path class="cls-7" d="M19.46,17.29c-.08.1-.18.08-.28,0s0,0,0,0a.35.35,0,0,0,.18-.05l.07,0c.06,0,.08,0,.06.07A.25.25,0,0,1,19.46,17.29Z"/><path class="cls-2" d="M9.87,17.28s.05,0,0,0a.79.79,0,0,0-.19.33s0,.05-.07.09l0,0a.74.74,0,0,1-.21.4h0c-.07,0-.08-.08-.06-.15a.23.23,0,0,1,.13-.14s0,0,0,0h0l0,0a.11.11,0,0,1,0-.05,1,1,0,0,1,.11-.28A.33.33,0,0,1,9.87,17.28Z"/><path class="cls-18" d="M7,18s0,0,0,.06a1.28,1.28,0,0,0-.15.25,1.24,1.24,0,0,1-.16.24,3.91,3.91,0,0,0-.3.41s0,0-.06,0a.11.11,0,0,1,0-.05A3.67,3.67,0,0,1,7,18Z"/><path class="cls-2" d="M17,18.18h0l.08,0s0,0,0,0a.37.37,0,0,1-.07.21,1,1,0,0,0-.09.32l-.05.17a0,0,0,0,1,0,0l-.17,0h0a.19.19,0,0,1,0-.18.1.1,0,0,1,.09-.06h0a.21.21,0,0,1,0-.18.79.79,0,0,0,.12-.3A.12.12,0,0,1,17,18.18Z"/><path class="cls-2" d="M19.73,18.23h.12a.21.21,0,0,1-.14.16,0,0,0,0,1-.05,0h0c-.06-.17-.06-.23,0-.18A.06.06,0,0,0,19.73,18.23Z"/><path class="cls-2" d="M19.61,18.43q0,.11.15.09s0,0,0,0h0a3.72,3.72,0,0,1-.15.62c0,.09-.07.08-.14,0a.17.17,0,0,1,0-.12c0-.05,0-.11,0-.2a.71.71,0,0,1,.05-.38v0s0,0,0,0S19.61,18.42,19.61,18.43Z"/><path class="cls-18" d="M12.94,19s0,0,0,0h0c-.09.18-.18.36-.25.54a1.52,1.52,0,0,1-.44.61s-.07,0-.06,0a.23.23,0,0,1,.13-.19s0,0,0,0h0l0-.08v-.05a4.33,4.33,0,0,1,.4-.73.15.15,0,0,1,.1-.08Z"/><path class="cls-18" d="M14.86,19.22a2.56,2.56,0,0,1-.12.32s0,.1-.08.24a1.63,1.63,0,0,1-.11.23l-.12.16a.32.32,0,0,1-.18.1c-.06,0-.07,0,0-.06a.1.1,0,0,1,.06-.05l0,0a1.23,1.23,0,0,1,.18-.46.77.77,0,0,1,.12-.28.36.36,0,0,1,.18-.22C14.85,19.12,14.88,19.14,14.86,19.22Z"/><path class="cls-2" d="M18.14,19.45l0,.11a.84.84,0,0,1-.07.24A2,2,0,0,0,18,20a1.49,1.49,0,0,1-.2.53c-.05.08-.1.08-.13,0a.49.49,0,0,1,0-.37l.09-.3a2,2,0,0,0,.08-.26c0-.12.1-.19.25-.22s0,0,0,0Z"/><path class="cls-2" d="M10.23,19.57a.07.07,0,0,1,.06.07v0a.75.75,0,0,1-.15.24,1,1,0,0,0-.22.34.07.07,0,0,0,0,.05q0,.11-.12.18c-.06,0-.1,0-.11-.06a.39.39,0,0,1,.06-.23,2.18,2.18,0,0,1,.26-.5A.31.31,0,0,1,10.23,19.57Z"/><path class="cls-16" d="M21.2,19.85s-.05,0-.05,0,0,0,0,0,.09-.06.06,0S21.21,19.85,21.2,19.85Z"/><path class="cls-2" d="M16.22,20.45a2.77,2.77,0,0,1-.22.37,1.27,1.27,0,0,0-.13.22.79.79,0,0,1-.21.27,0,0,0,0,1,0,0,.11.11,0,0,1,0-.13l.39-.83a.13.13,0,0,1,.07-.06C16.25,20.24,16.31,20.29,16.22,20.45Z"/><path class="cls-2" d="M7.81,20.53a1.48,1.48,0,0,1-.3.5.62.62,0,0,0-.06.15l-.13.18c-.1.13-.15.11-.14-.08a3.43,3.43,0,0,0,.24-.48.55.55,0,0,1,.31-.34C7.82,20.41,7.85,20.44,7.81,20.53Z"/><path class="cls-2" d="M12,21.28c.07,0,.08,0,0,.11a.61.61,0,0,0,0,.17.24.24,0,0,1-.09.14s0,0,0,0a2,2,0,0,1-.37.53l0,0s-.05,0-.09,0a.07.07,0,0,1,0-.1h0l.4-.57a.48.48,0,0,0,.08-.16A.38.38,0,0,1,12,21.3Z"/><path class="cls-2" d="M16.66,21.74a.07.07,0,0,0,0,.11.16.16,0,0,1-.05.17s0,0,0,0a.25.25,0,0,1-.08.29.51.51,0,0,1-.21.1,1.16,1.16,0,0,1,.12-.45.7.7,0,0,1,.12-.35.28.28,0,0,1,.1-.09c.14-.05.17,0,.1.16S16.68,21.74,16.66,21.74Z"/><path class="cls-25" d="M13.88,21.58a.28.28,0,0,1-.06.13l-.4.63c0,.05-.06,0-.07,0a.23.23,0,0,1,0-.21,1.88,1.88,0,0,1,.31-.51A.24.24,0,0,1,13.88,21.58Z"/><path class="cls-2" d="M9.74,21.7a.33.33,0,0,1-.07.25.92.92,0,0,0-.12.16l-.13.3a.17.17,0,0,1-.07.09.15.15,0,0,1-.13,0,0,0,0,0,1,0-.06,2.87,2.87,0,0,1,.43-.74l.05,0S9.74,21.65,9.74,21.7Z"/><path class="cls-7" d="M18.24,21.68l.15,0,0,0s0,0,0,0h-.27c-.05,0-.07,0-.07.08s0,0,0,0a.5.5,0,0,0-.2.08l-.15.09a.36.36,0,0,0-.14.11l-.06,0q-.08,0-.06-.06l0,0a2.26,2.26,0,0,1,.58-.34l0,0A.17.17,0,0,1,18.24,21.68Z"/><path class="cls-7" d="M7.42,22.16a2.82,2.82,0,0,0,.7.27c.09,0,.09.05,0,.08a.3.3,0,0,1-.23,0l-.17-.08a1.75,1.75,0,0,1-.33-.15s0-.06,0-.1Z"/></svg>